<?xml version="1.0" encoding="UTF-8" standalone="no"?>
<!-- Generator: Adobe Illustrator 22.0.1, SVG Export Plug-In . SVG Version: 6.00 Build 0)  -->

<svg
   xmlns:dc="http://purl.org/dc/elements/1.1/"
   xmlns:cc="http://creativecommons.org/ns#"
   xmlns:rdf="http://www.w3.org/1999/02/22-rdf-syntax-ns#"
   xmlns:svg="http://www.w3.org/2000/svg"
   xmlns="http://www.w3.org/2000/svg"
   xmlns:sodipodi="http://sodipodi.sourceforge.net/DTD/sodipodi-0.dtd"
   xmlns:inkscape="http://www.inkscape.org/namespaces/inkscape"
   version="1.1"
   id="レイヤー_2"
   x="0px"
   y="0px"
   width="907.086609px"
   height="765.354309px"
   viewBox="0 0 907.086609 765.354309"
   enable-background="new 0 0 907.086609 765.354309"
   xml:space="preserve"
   sodipodi:docname="ergo42-case-2_0_0.svg"
   inkscape:version="0.92.1 r15371"><metadata
     id="metadata4591"><rdf:RDF><cc:Work
         rdf:about=""><dc:format>image/svg+xml</dc:format><dc:type
           rdf:resource="http://purl.org/dc/dcmitype/StillImage" /><dc:title></dc:title></cc:Work></rdf:RDF></metadata><defs
     id="defs4589" /><sodipodi:namedview
     pagecolor="#ffffff"
     bordercolor="#666666"
     borderopacity="1"
     objecttolerance="10"
     gridtolerance="10"
     guidetolerance="10"
     inkscape:pageopacity="0"
     inkscape:pageshadow="2"
     inkscape:window-width="3840"
     inkscape:window-height="2081"
     id="namedview4587"
     showgrid="false"
     inkscape:zoom="1.7443132"
     inkscape:cx="387.54675"
     inkscape:cy="336.25832"
     inkscape:window-x="2391"
     inkscape:window-y="-9"
     inkscape:window-maximized="1"
     inkscape:current-layer="レイヤー_2" /><g
     id="g4553"
     style="stroke:#000000;stroke-opacity:1;stroke-width:0.37795276;stroke-miterlimit:4;stroke-dasharray:none"><g
       id="g4541"
       style="stroke:#000000;stroke-opacity:1;stroke-width:0.37795276;stroke-miterlimit:4;stroke-dasharray:none"><polygon
         fill="none"
         stroke="#FF0000"
         stroke-width="0.01"
         points="71.106339,130.642761 71.106339,133.477402     68.838631,133.477402 68.838631,142.264816 71.106339,142.264816 71.106339,158.70575 68.838631,158.70575 68.838631,167.493149     71.106339,167.493149 71.106339,170.327805 110.791374,170.327805 110.791374,167.493149 113.056267,167.493149     113.056267,158.70575 110.791374,158.70575 110.791374,142.264816 113.056267,142.264816 113.056267,133.477402     110.791374,133.477402 110.791374,130.642761   "
         id="polygon4485"
         style="stroke:#000000;stroke-opacity:1;stroke-width:0.37795276;stroke-miterlimit:4;stroke-dasharray:none" /><polygon
         fill="none"
         stroke="#FF0000"
         stroke-width="0.01"
         points="71.106339,184.64418 71.106339,187.478821     68.838631,187.478821 68.838631,196.266235 71.106339,196.266235 71.106339,212.707184 68.838631,212.707184     68.838631,221.494568 71.106339,221.494568 71.106339,224.329224 110.791374,224.329224 110.791374,221.494568     113.056267,221.494568 113.056267,212.707184 110.791374,212.707184 110.791374,196.266235 113.056267,196.266235     113.056267,187.478821 110.791374,187.478821 110.791374,184.64418   "
         id="polygon4487"
         style="stroke:#000000;stroke-opacity:1;stroke-width:0.37795276;stroke-miterlimit:4;stroke-dasharray:none" /><polygon
         fill="none"
         stroke="#FF0000"
         stroke-width="0.01"
         points="71.106339,238.645599 71.106339,241.480255     68.838631,241.480255 68.838631,250.267654 71.106339,250.267654 71.106339,266.708588 68.838631,266.708588     68.838631,275.496002 71.106339,275.496002 71.106339,278.330627 110.791374,278.330627 110.791374,275.496002     113.056267,275.496002 113.056267,266.708588 110.791374,266.708588 110.791374,250.267654 113.056267,250.267654     113.056267,241.480255 110.791374,241.480255 110.791374,238.645599   "
         id="polygon4489"
         style="stroke:#000000;stroke-opacity:1;stroke-width:0.37795276;stroke-miterlimit:4;stroke-dasharray:none" /><polygon
         fill="none"
         stroke="#FF0000"
         stroke-width="0.01"
         points="71.106339,292.644196 71.106339,295.478851     68.838631,295.478851 68.838631,304.266235 71.106339,304.266235 71.106339,320.707184 68.838631,320.707184     68.838631,329.494598 71.106339,329.494598 71.106339,332.329224 110.791374,332.329224 110.791374,329.494598     113.056267,329.494598 113.056267,320.707184 110.791374,320.707184 110.791374,304.266235 113.056267,304.266235     113.056267,295.478851 110.791374,295.478851 110.791374,292.644196   "
         id="polygon4491"
         style="stroke:#000000;stroke-opacity:1;stroke-width:0.37795276;stroke-miterlimit:4;stroke-dasharray:none" /><polygon
         fill="none"
         stroke="#FF0000"
         stroke-width="0.01"
         points="125.106171,130.642059 125.106171,133.4767     122.83847,133.4767 122.83847,142.264099 125.106171,142.264099 125.106171,158.705048 122.83847,158.705048     122.83847,167.492447 125.106171,167.492447 125.106171,170.327087 164.791214,170.327087 164.791214,167.492447     167.056107,167.492447 167.056107,158.705048 164.791214,158.705048 164.791214,142.264099 167.056107,142.264099     167.056107,133.4767 164.791214,133.4767 164.791214,130.642059   "
         id="polygon4493"
         style="stroke:#000000;stroke-opacity:1;stroke-width:0.37795276;stroke-miterlimit:4;stroke-dasharray:none" /><polygon
         fill="none"
         stroke="#FF0000"
         stroke-width="0.01"
         points="125.106171,184.643478 125.106171,187.478119     122.83847,187.478119 122.83847,196.265518 125.106171,196.265518 125.106171,212.706467 122.83847,212.706467     122.83847,221.493866 125.106171,221.493866 125.106171,224.328506 164.791214,224.328506 164.791214,221.493866     167.056107,221.493866 167.056107,212.706467 164.791214,212.706467 164.791214,196.265518 167.056107,196.265518     167.056107,187.478119 164.791214,187.478119 164.791214,184.643478   "
         id="polygon4495"
         style="stroke:#000000;stroke-opacity:1;stroke-width:0.37795276;stroke-miterlimit:4;stroke-dasharray:none" /><polygon
         fill="none"
         stroke="#FF0000"
         stroke-width="0.01"
         points="125.106171,238.644897 125.106171,241.479538     122.83847,241.479538 122.83847,250.266937 125.106171,250.266937 125.106171,266.707886 122.83847,266.707886     122.83847,275.4953 125.106171,275.4953 125.106171,278.329926 164.791214,278.329926 164.791214,275.4953 167.056107,275.4953     167.056107,266.707886 164.791214,266.707886 164.791214,250.266937 167.056107,250.266937 167.056107,241.479538     164.791214,241.479538 164.791214,238.644897   "
         id="polygon4497"
         style="stroke:#000000;stroke-opacity:1;stroke-width:0.37795276;stroke-miterlimit:4;stroke-dasharray:none" /><polygon
         fill="none"
         stroke="#FF0000"
         stroke-width="0.01"
         points="125.106171,292.643494 125.106171,295.478119     122.83847,295.478119 122.83847,304.265533 125.106171,304.265533 125.106171,320.706482 122.83847,320.706482     122.83847,329.493866 125.106171,329.493866 125.106171,332.328522 164.791214,332.328522 164.791214,329.493866     167.056107,329.493866 167.056107,320.706482 164.791214,320.706482 164.791214,304.265533 167.056107,304.265533     167.056107,295.478119 164.791214,295.478119 164.791214,292.643494   "
         id="polygon4499"
         style="stroke:#000000;stroke-opacity:1;stroke-width:0.37795276;stroke-miterlimit:4;stroke-dasharray:none" /><polygon
         fill="none"
         stroke="#FF0000"
         stroke-width="0.01"
         points="179.104752,130.636276 179.104752,133.470917     176.837051,133.470917 176.837051,142.258331 179.104752,142.258331 179.104752,158.699265 176.837051,158.699265     176.837051,167.486664 179.104752,167.486664 179.104752,170.32132 218.789795,170.32132 218.789795,167.486664     221.054688,167.486664 221.054688,158.699265 218.789795,158.699265 218.789795,142.258331 221.054688,142.258331     221.054688,133.470917 218.789795,133.470917 218.789795,130.636276   "
         id="polygon4501"
         style="stroke:#000000;stroke-opacity:1;stroke-width:0.37795276;stroke-miterlimit:4;stroke-dasharray:none" /><polygon
         fill="none"
         stroke="#FF0000"
         stroke-width="0.01"
         points="179.104752,184.637695 179.104752,187.472336     176.837051,187.472336 176.837051,196.25975 179.104752,196.25975 179.104752,212.700699 176.837051,212.700699     176.837051,221.488083 179.104752,221.488083 179.104752,224.322739 218.789795,224.322739 218.789795,221.488083     221.054688,221.488083 221.054688,212.700699 218.789795,212.700699 218.789795,196.25975 221.054688,196.25975     221.054688,187.472336 218.789795,187.472336 218.789795,184.637695   "
         id="polygon4503"
         style="stroke:#000000;stroke-opacity:1;stroke-width:0.37795276;stroke-miterlimit:4;stroke-dasharray:none" /><polygon
         fill="none"
         stroke="#FF0000"
         stroke-width="0.01"
         points="179.104752,238.639114 179.104752,241.47377     176.837051,241.47377 176.837051,250.261169 179.104752,250.261169 179.104752,266.702118 176.837051,266.702118     176.837051,275.489502 179.104752,275.489502 179.104752,278.324158 218.789795,278.324158 218.789795,275.489502     221.054688,275.489502 221.054688,266.702118 218.789795,266.702118 218.789795,250.261169 221.054688,250.261169     221.054688,241.47377 218.789795,241.47377 218.789795,238.639114   "
         id="polygon4505"
         style="stroke:#000000;stroke-opacity:1;stroke-width:0.37795276;stroke-miterlimit:4;stroke-dasharray:none" /><polygon
         fill="none"
         stroke="#FF0000"
         stroke-width="0.01"
         points="179.104752,292.637695 179.104752,295.472351     176.837051,295.472351 176.837051,304.259766 179.104752,304.259766 179.104752,320.700714 176.837051,320.700714     176.837051,329.488098 179.104752,329.488098 179.104752,332.322754 218.789795,332.322754 218.789795,329.488098     221.054688,329.488098 221.054688,320.700714 218.789795,320.700714 218.789795,304.259766 221.054688,304.259766     221.054688,295.472351 218.789795,295.472351 218.789795,292.637695   "
         id="polygon4507"
         style="stroke:#000000;stroke-opacity:1;stroke-width:0.37795276;stroke-miterlimit:4;stroke-dasharray:none" /><polygon
         fill="none"
         stroke="#FF0000"
         stroke-width="0.01"
         points="233.104584,130.635574 233.104584,133.470215     230.836884,133.470215 230.836884,142.257614 233.104584,142.257614 233.104584,158.698563 230.836884,158.698563     230.836884,167.485962 233.104584,167.485962 233.104584,170.320602 272.789612,170.320602 272.789612,167.485962     275.054504,167.485962 275.054504,158.698563 272.789612,158.698563 272.789612,142.257614 275.054504,142.257614     275.054504,133.470215 272.789612,133.470215 272.789612,130.635574   "
         id="polygon4509"
         style="stroke:#000000;stroke-opacity:1;stroke-width:0.37795276;stroke-miterlimit:4;stroke-dasharray:none" /><polygon
         fill="none"
         stroke="#FF0000"
         stroke-width="0.01"
         points="233.104584,184.636993 233.104584,187.471634     230.836884,187.471634 230.836884,196.259033 233.104584,196.259033 233.104584,212.699982 230.836884,212.699982     230.836884,221.487381 233.104584,221.487381 233.104584,224.322021 272.789612,224.322021 272.789612,221.487381     275.054504,221.487381 275.054504,212.699982 272.789612,212.699982 272.789612,196.259033 275.054504,196.259033     275.054504,187.471634 272.789612,187.471634 272.789612,184.636993   "
         id="polygon4511"
         style="stroke:#000000;stroke-opacity:1;stroke-width:0.37795276;stroke-miterlimit:4;stroke-dasharray:none" /><polygon
         fill="none"
         stroke="#FF0000"
         stroke-width="0.01"
         points="233.104584,238.638412 233.104584,241.473053     230.836884,241.473053 230.836884,250.260452 233.104584,250.260452 233.104584,266.701416 230.836884,266.701416     230.836884,275.4888 233.104584,275.4888 233.104584,278.323456 272.789612,278.323456 272.789612,275.4888 275.054504,275.4888     275.054504,266.701416 272.789612,266.701416 272.789612,250.260452 275.054504,250.260452 275.054504,241.473053     272.789612,241.473053 272.789612,238.638412   "
         id="polygon4513"
         style="stroke:#000000;stroke-opacity:1;stroke-width:0.37795276;stroke-miterlimit:4;stroke-dasharray:none" /><polygon
         fill="none"
         stroke="#FF0000"
         stroke-width="0.01"
         points="233.104584,292.636993 233.104584,295.471649     230.836884,295.471649 230.836884,304.259033 233.104584,304.259033 233.104584,320.699982 230.836884,320.699982     230.836884,329.487396 233.104584,329.487396 233.104584,332.322021 272.789612,332.322021 272.789612,329.487396     275.054504,329.487396 275.054504,320.699982 272.789612,320.699982 272.789612,304.259033 275.054504,304.259033     275.054504,295.471649 272.789612,295.471649 272.789612,292.636993   "
         id="polygon4515"
         style="stroke:#000000;stroke-opacity:1;stroke-width:0.37795276;stroke-miterlimit:4;stroke-dasharray:none" /><polygon
         fill="none"
         stroke="#FF0000"
         stroke-width="0.01"
         points="287.10556,130.645294 287.10556,133.479935     284.83786,133.479935 284.83786,142.267349 287.10556,142.267349 287.10556,158.708298 284.83786,158.708298     284.83786,167.495682 287.10556,167.495682 287.10556,170.330338 326.790588,170.330338 326.790588,167.495682     329.055481,167.495682 329.055481,158.708298 326.790588,158.708298 326.790588,142.267349 329.055481,142.267349     329.055481,133.479935 326.790588,133.479935 326.790588,130.645294   "
         id="polygon4517"
         style="stroke:#000000;stroke-opacity:1;stroke-width:0.37795276;stroke-miterlimit:4;stroke-dasharray:none" /><polygon
         fill="none"
         stroke="#FF0000"
         stroke-width="0.01"
         points="287.10556,184.646713 287.10556,187.481369     284.83786,187.481369 284.83786,196.268768 287.10556,196.268768 287.10556,212.709717 284.83786,212.709717     284.83786,221.497101 287.10556,221.497101 287.10556,224.331757 326.790588,224.331757 326.790588,221.497101     329.055481,221.497101 329.055481,212.709717 326.790588,212.709717 326.790588,196.268768 329.055481,196.268768     329.055481,187.481369 326.790588,187.481369 326.790588,184.646713   "
         id="polygon4519"
         style="stroke:#000000;stroke-opacity:1;stroke-width:0.37795276;stroke-miterlimit:4;stroke-dasharray:none" /><polygon
         fill="none"
         stroke="#FF0000"
         stroke-width="0.01"
         points="287.10556,238.648132 287.10556,241.482788     284.83786,241.482788 284.83786,250.270187 287.10556,250.270187 287.10556,266.711121 284.83786,266.711121     284.83786,275.498535 287.10556,275.498535 287.10556,278.33316 326.790588,278.33316 326.790588,275.498535     329.055481,275.498535 329.055481,266.711121 326.790588,266.711121 326.790588,250.270187 329.055481,250.270187     329.055481,241.482788 326.790588,241.482788 326.790588,238.648132   "
         id="polygon4521"
         style="stroke:#000000;stroke-opacity:1;stroke-width:0.37795276;stroke-miterlimit:4;stroke-dasharray:none" /><polygon
         fill="none"
         stroke="#FF0000"
         stroke-width="0.01"
         points="287.10556,292.646729 287.10556,295.481384     284.83786,295.481384 284.83786,304.268768 287.10556,304.268768 287.10556,320.709717 284.83786,320.709717     284.83786,329.497131 287.10556,329.497131 287.10556,332.331757 326.790588,332.331757 326.790588,329.497131     329.055481,329.497131 329.055481,320.709717 326.790588,320.709717 326.790588,304.268768 329.055481,304.268768     329.055481,295.481384 326.790588,295.481384 326.790588,292.646729   "
         id="polygon4523"
         style="stroke:#000000;stroke-opacity:1;stroke-width:0.37795276;stroke-miterlimit:4;stroke-dasharray:none" /><polygon
         fill="none"
         stroke="#FF0000"
         stroke-width="0.01"
         points="341.104126,130.639511 341.104126,133.474167     338.836426,133.474167 338.836426,142.261566 341.104126,142.261566 341.104126,158.702515 338.836426,158.702515     338.836426,167.489914 341.104126,167.489914 341.104126,170.324554 380.789185,170.324554 380.789185,167.489914     383.054077,167.489914 383.054077,158.702515 380.789185,158.702515 380.789185,142.261566 383.054077,142.261566     383.054077,133.474167 380.789185,133.474167 380.789185,130.639511   "
         id="polygon4525"
         style="stroke:#000000;stroke-opacity:1;stroke-width:0.37795276;stroke-miterlimit:4;stroke-dasharray:none" /><polygon
         fill="none"
         stroke="#FF0000"
         stroke-width="0.01"
         points="341.104126,184.640945 341.104126,187.475586     338.836426,187.475586 338.836426,196.262985 341.104126,196.262985 341.104126,212.703934 338.836426,212.703934     338.836426,221.491333 341.104126,221.491333 341.104126,224.325974 380.789185,224.325974 380.789185,221.491333     383.054077,221.491333 383.054077,212.703934 380.789185,212.703934 380.789185,196.262985 383.054077,196.262985     383.054077,187.475586 380.789185,187.475586 380.789185,184.640945   "
         id="polygon4527"
         style="stroke:#000000;stroke-opacity:1;stroke-width:0.37795276;stroke-miterlimit:4;stroke-dasharray:none" /><polygon
         fill="none"
         stroke="#FF0000"
         stroke-width="0.01"
         points="341.104126,238.642365 341.104126,241.477005     338.836426,241.477005 338.836426,250.264404 341.104126,250.264404 341.104126,266.705353 338.836426,266.705353     338.836426,275.492767 341.104126,275.492767 341.104126,278.327393 380.789185,278.327393 380.789185,275.492767     383.054077,275.492767 383.054077,266.705353 380.789185,266.705353 380.789185,250.264404 383.054077,250.264404     383.054077,241.477005 380.789185,241.477005 380.789185,238.642365   "
         id="polygon4529"
         style="stroke:#000000;stroke-opacity:1;stroke-width:0.37795276;stroke-miterlimit:4;stroke-dasharray:none" /><polygon
         fill="none"
         stroke="#FF0000"
         stroke-width="0.01"
         points="341.104126,292.640961 341.104126,295.475586     338.836426,295.475586 338.836426,304.263 341.104126,304.263 341.104126,320.703949 338.836426,320.703949     338.836426,329.491333 341.104126,329.491333 341.104126,332.325989 380.789185,332.325989 380.789185,329.491333     383.054077,329.491333 383.054077,320.703949 380.789185,320.703949 380.789185,304.263 383.054077,304.263     383.054077,295.475586 380.789185,295.475586 380.789185,292.640961   "
         id="polygon4531"
         style="stroke:#000000;stroke-opacity:1;stroke-width:0.37795276;stroke-miterlimit:4;stroke-dasharray:none" /><polygon
         fill="none"
         stroke="#FF0000"
         stroke-width="0.01"
         points="395.103973,130.638809 395.103973,133.47345     392.836273,133.47345 392.836273,142.260864 395.103973,142.260864 395.103973,158.701813 392.836273,158.701813     392.836273,167.489197 395.103973,167.489197 395.103973,170.323853 434.789001,170.323853 434.789001,167.489197     437.053894,167.489197 437.053894,158.701813 434.789001,158.701813 434.789001,142.260864 437.053894,142.260864     437.053894,133.47345 434.789001,133.47345 434.789001,130.638809   "
         id="polygon4533"
         style="stroke:#000000;stroke-opacity:1;stroke-width:0.37795276;stroke-miterlimit:4;stroke-dasharray:none" /><polygon
         fill="none"
         stroke="#FF0000"
         stroke-width="0.01"
         points="395.103973,184.640228 395.103973,187.474884     392.836273,187.474884 392.836273,196.262283 395.103973,196.262283 395.103973,212.703232 392.836273,212.703232     392.836273,221.490616 395.103973,221.490616 395.103973,224.325272 434.789001,224.325272 434.789001,221.490616     437.053894,221.490616 437.053894,212.703232 434.789001,212.703232 434.789001,196.262283 437.053894,196.262283     437.053894,187.474884 434.789001,187.474884 434.789001,184.640228   "
         id="polygon4535"
         style="stroke:#000000;stroke-opacity:1;stroke-width:0.37795276;stroke-miterlimit:4;stroke-dasharray:none" /><polygon
         fill="none"
         stroke="#FF0000"
         stroke-width="0.01"
         points="395.103973,238.641647 395.103973,241.476303     392.836273,241.476303 392.836273,250.263702 395.103973,250.263702 395.103973,266.704651 392.836273,266.704651     392.836273,275.492035 395.103973,275.492035 395.103973,278.326691 434.789001,278.326691 434.789001,275.492035     437.053894,275.492035 437.053894,266.704651 434.789001,266.704651 434.789001,250.263702 437.053894,250.263702     437.053894,241.476303 434.789001,241.476303 434.789001,238.641647   "
         id="polygon4537"
         style="stroke:#000000;stroke-opacity:1;stroke-width:0.37795276;stroke-miterlimit:4;stroke-dasharray:none" /><polygon
         fill="none"
         stroke="#FF0000"
         stroke-width="0.01"
         points="395.103973,292.640228 395.103973,295.474884     392.836273,295.474884 392.836273,304.262299 395.103973,304.262299 395.103973,320.703247 392.836273,320.703247     392.836273,329.490631 395.103973,329.490631 395.103973,332.325287 434.789001,332.325287 434.789001,329.490631     437.053894,329.490631 437.053894,320.703247 434.789001,320.703247 434.789001,304.262299 437.053894,304.262299     437.053894,295.474884 434.789001,295.474884 434.789001,292.640228   "
         id="polygon4539"
         style="stroke:#000000;stroke-opacity:1;stroke-width:0.37795276;stroke-miterlimit:4;stroke-dasharray:none" /></g><g
       id="g4549"
       style="stroke:#000000;stroke-opacity:1;stroke-width:0.37795276;stroke-miterlimit:4;stroke-dasharray:none"><g
         id="g21"
         transform="matrix(0.8,0,0,0.8,720.85468,-63.842318)"
         inkscape:label="0"
         style="stroke:#000000;stroke-opacity:1;stroke-width:0.47244095;stroke-miterlimit:4;stroke-dasharray:none"><path
           id="path23"
           inkscape:connector-curvature="0"
           fill="none"
           stroke="#FF0000"
           stroke-width="0.01"
           stroke-linecap="round"
           d="     M-749.315369,301.62561c0-2.296204-1.86145-4.157654-4.157654-4.157654s-4.157654,1.86145-4.157654,4.157654     c0,2.296234,1.86145,4.157684,4.157654,4.157684S-749.315369,303.921844-749.315369,301.62561z"
           style="stroke:#000000;stroke-opacity:1;stroke-width:0.47244095;stroke-miterlimit:4;stroke-dasharray:none" /><path
           id="path25"
           inkscape:connector-curvature="0"
           fill="none"
           stroke="#FF0000"
           stroke-width="0.01"
           stroke-linecap="round"
           d="     M-749.375061,436.693298c0-2.296722-1.861877-4.1586-4.158569-4.1586c-2.296753,0-4.15863,1.861877-4.15863,4.1586l0,0     c0,2.296753,1.861877,4.15863,4.15863,4.15863C-751.236938,440.851929-749.375061,438.990051-749.375061,436.693298z"
           style="stroke:#000000;stroke-opacity:1;stroke-width:0.47244095;stroke-miterlimit:4;stroke-dasharray:none" /><path
           id="path27"
           inkscape:connector-curvature="0"
           fill="none"
           stroke="#FF0000"
           stroke-width="0.01"
           stroke-linecap="round"
           d="     M-411.878357,436.693298c0-2.295074-1.860565-4.155609-4.155609-4.155609c-2.295105,0-4.15564,1.860535-4.15564,4.155609l0,0     c0,2.295105,1.860535,4.15564,4.15564,4.15564C-413.738922,440.848938-411.878357,438.988403-411.878357,436.693298z"
           style="stroke:#000000;stroke-opacity:1;stroke-width:0.47244095;stroke-miterlimit:4;stroke-dasharray:none" /><path
           id="path29"
           inkscape:connector-curvature="0"
           fill="none"
           stroke="#FF0000"
           stroke-width="0.01"
           stroke-linecap="round"
           d="     M-411.857574,301.693451c0-2.304108-1.867828-4.171936-4.171936-4.171936c-2.304077,0-4.171906,1.867828-4.171906,4.171936l0,0     c0,2.304077,1.867828,4.171936,4.171906,4.171936C-413.725403,305.865387-411.857574,303.997528-411.857574,301.693451z"
           style="stroke:#000000;stroke-opacity:1;stroke-width:0.47244095;stroke-miterlimit:4;stroke-dasharray:none" /><path
           id="path25_3_"
           inkscape:connector-curvature="0"
           fill="none"
           stroke="#FF0000"
           stroke-width="0.01"
           stroke-linecap="round"
           d="     M-614.367371,369.151855c0-2.298584-1.863342-4.161926-4.161865-4.161926c-2.298645,0-4.161987,1.863342-4.161987,4.161926l0,0     c0,2.298553,1.863342,4.161926,4.161987,4.161926C-616.230713,373.313782-614.367371,371.450409-614.367371,369.151855z"
           style="stroke:#000000;stroke-opacity:1;stroke-width:0.47244095;stroke-miterlimit:4;stroke-dasharray:none" /></g></g><path
       fill="none"
       stroke="#FF0000"
       stroke-width="0.01"
       stroke-linecap="round"
       d="M441.842041,346.648621H64.03772   c-4.004498,0-7.250786-3.246277-7.250786-7.250763V123.574142c0-4.004501,3.246288-7.250786,7.250786-7.250786h377.804321   c4.004486,0,7.250763,3.246284,7.250763,7.250786v215.823715C449.092804,343.402344,445.846527,346.648621,441.842041,346.648621z"
       id="path4551"
       style="stroke:#000000;stroke-opacity:1;stroke-width:0.37795276;stroke-miterlimit:4;stroke-dasharray:none" /></g><g
     id="g4564"
     style="stroke:#000000;stroke-opacity:1;stroke-width:0.37795276;stroke-miterlimit:4;stroke-dasharray:none"><g
       id="g4560"
       style="stroke:#000000;stroke-opacity:1;stroke-width:0.37795276;stroke-miterlimit:4;stroke-dasharray:none"><path
         id="path29_1_"
         inkscape:connector-curvature="0"
         fill="none"
         stroke="#FF0000"
         stroke-width="0.01"
         stroke-linecap="round"
         d="    M442.658539,106.707794c0-1.83773-1.489777-3.327507-3.327515-3.327507c-1.837708,0-3.327484,1.489777-3.327484,3.327507l0,0    c0,1.83773,1.489777,3.327499,3.327484,3.327499C441.168762,110.035294,442.658539,108.545525,442.658539,106.707794z"
         style="stroke:#000000;stroke-opacity:1;stroke-width:0.37795276;stroke-miterlimit:4;stroke-dasharray:none" /><path
         id="path29_2_"
         inkscape:connector-curvature="0"
         fill="none"
         stroke="#FF0000"
         stroke-width="0.01"
         stroke-linecap="round"
         d="    M442.658539,58.70779c0-1.837727-1.489777-3.327499-3.327515-3.327499c-1.837708,0-3.327484,1.489773-3.327484,3.327499l0,0    c0,1.83773,1.489777,3.327503,3.327484,3.327503C441.168762,62.035294,442.658539,60.545521,442.658539,58.70779z"
         style="stroke:#000000;stroke-opacity:1;stroke-width:0.37795276;stroke-miterlimit:4;stroke-dasharray:none" /><path
         id="path29_4_"
         inkscape:connector-curvature="0"
         fill="none"
         stroke="#FF0000"
         stroke-width="0.01"
         stroke-linecap="round"
         d="    M241.658539,106.707794c0-1.83773-1.489777-3.327507-3.32753-3.327507c-1.837708,0-3.327484,1.489777-3.327484,3.327507l0,0    c0,1.83773,1.489777,3.327499,3.327484,3.327499C240.168762,110.035294,241.658539,108.545525,241.658539,106.707794z"
         style="stroke:#000000;stroke-opacity:1;stroke-width:0.37795276;stroke-miterlimit:4;stroke-dasharray:none" /><path
         id="path29_3_"
         inkscape:connector-curvature="0"
         fill="none"
         stroke="#FF0000"
         stroke-width="0.01"
         stroke-linecap="round"
         d="    M290.658539,58.70779c0-1.837727-1.489777-3.327499-3.327515-3.327499c-1.837708,0-3.327484,1.489773-3.327484,3.327499l0,0    c0,1.83773,1.489777,3.327503,3.327484,3.327503C289.168762,62.035294,290.658539,60.545521,290.658539,58.70779z"
         style="stroke:#000000;stroke-opacity:1;stroke-width:0.37795276;stroke-miterlimit:4;stroke-dasharray:none" /><path
         id="path29_10_"
         inkscape:connector-curvature="0"
         fill="none"
         stroke="#FF0000"
         stroke-width="0.01"
         stroke-linecap="round"
         d="    M411.14801,105.491386c0-1.83773-1.489777-3.327499-3.327515-3.327499c-1.837708,0-3.327484,1.489769-3.327484,3.327499l0,0    c0,1.83773,1.489777,3.327507,3.327484,3.327507C409.658234,108.818893,411.14801,107.329117,411.14801,105.491386z"
         style="stroke:#000000;stroke-opacity:1;stroke-width:0.37795276;stroke-miterlimit:4;stroke-dasharray:none" /></g><path
       fill="none"
       stroke="#FF0000"
       stroke-width="0.01"
       stroke-linecap="round"
       d="M441.963074,116.3125l-205.959549,0.010857   c-8.500961,0-11.691025-9.615562-4.772293-16.514137l46.737518-45.428928C281.108826,51.25,283,49.5,289.263,49.5h152.700073   c3.937653,0,7.12973,3.192093,7.12973,7.129742v52.553013C449.092804,113.120407,445.900726,116.3125,441.963074,116.3125z"
       id="path4562"
       style="stroke:#000000;stroke-opacity:1;stroke-width:0.37795276;stroke-miterlimit:4;stroke-dasharray:none" /></g><g
     id="g4574"
     style="stroke:#000000;stroke-opacity:1;stroke-width:0.37795276;stroke-miterlimit:4;stroke-dasharray:none"><g
       id="g4572"
       style="stroke:#000000;stroke-opacity:1;stroke-width:0.37795276;stroke-miterlimit:4;stroke-dasharray:none"><g
         id="g21_1_"
         transform="matrix(0.8,0,0,0.8,720.85468,-63.842318)"
         inkscape:label="0"
         style="stroke:#000000;stroke-opacity:1;stroke-width:0.47244095;stroke-miterlimit:4;stroke-dasharray:none"><path
           id="path23_1_"
           inkscape:connector-curvature="0"
           fill="none"
           stroke="#FF0000"
           stroke-width="0.01"
           stroke-linecap="round"
           d="     M-749.320679,724.842896c0-2.296204-1.86145-4.157654-4.157654-4.157654s-4.157654,1.86145-4.157654,4.157654     s1.86145,4.157654,4.157654,4.157654S-749.320679,727.139099-749.320679,724.842896z"
           style="stroke:#000000;stroke-opacity:1;stroke-width:0.47244095;stroke-miterlimit:4;stroke-dasharray:none" /><path
           id="path25_2_"
           inkscape:connector-curvature="0"
           fill="none"
           stroke="#FF0000"
           stroke-width="0.01"
           stroke-linecap="round"
           d="     M-749.380371,859.910583c0-2.296692-1.861877-4.158569-4.158569-4.158569c-2.296753,0-4.15863,1.861877-4.15863,4.158569l0,0     c0,2.296753,1.861877,4.15863,4.15863,4.15863C-751.242249,864.069214-749.380371,862.207336-749.380371,859.910583z"
           style="stroke:#000000;stroke-opacity:1;stroke-width:0.47244095;stroke-miterlimit:4;stroke-dasharray:none" /><path
           id="path27_1_"
           inkscape:connector-curvature="0"
           fill="none"
           stroke="#FF0000"
           stroke-width="0.01"
           stroke-linecap="round"
           d="     M-411.883698,859.910583c0-2.295044-1.860535-4.15564-4.155579-4.15564c-2.295105,0-4.15564,1.860596-4.15564,4.15564l0,0     c0,2.295105,1.860535,4.15564,4.15564,4.15564C-413.744232,864.066223-411.883698,862.205688-411.883698,859.910583z"
           style="stroke:#000000;stroke-opacity:1;stroke-width:0.47244095;stroke-miterlimit:4;stroke-dasharray:none" /><path
           id="path29_9_"
           inkscape:connector-curvature="0"
           fill="none"
           stroke="#FF0000"
           stroke-width="0.01"
           stroke-linecap="round"
           d="     M-411.862885,724.910706c0-2.304077-1.867828-4.171936-4.171936-4.171936c-2.304077,0-4.171906,1.867859-4.171906,4.171936l0,0     c0,2.304138,1.867828,4.171936,4.171906,4.171936C-413.730713,729.082642-411.862885,727.214844-411.862885,724.910706z"
           style="stroke:#000000;stroke-opacity:1;stroke-width:0.47244095;stroke-miterlimit:4;stroke-dasharray:none" /><path
           id="path25_1_"
           inkscape:connector-curvature="0"
           fill="none"
           stroke="#FF0000"
           stroke-width="0.01"
           stroke-linecap="round"
           d="     M-614.372681,792.369141c0-2.298584-1.863342-4.161926-4.161926-4.161926s-4.161926,1.863342-4.161926,4.161926l0,0     c0,2.298523,1.863342,4.161926,4.161926,4.161926S-614.372681,794.667664-614.372681,792.369141z"
           style="stroke:#000000;stroke-opacity:1;stroke-width:0.47244095;stroke-miterlimit:4;stroke-dasharray:none" /></g></g></g><g
     id="g4584"
     style="stroke:#000000;stroke-opacity:1;stroke-width:0.37795276;stroke-miterlimit:4;stroke-dasharray:none"><g
       id="g4580"
       style="stroke:#000000;stroke-opacity:1;stroke-width:0.37795276;stroke-miterlimit:4;stroke-dasharray:none"><path
         id="path29_8_"
         inkscape:connector-curvature="0"
         fill="none"
         stroke="#FF0000"
         stroke-width="0.01"
         stroke-linecap="round"
         d="    M442.654297,445.281616c0-1.837738-1.489777-3.327515-3.327545-3.327515c-1.837708,0-3.327484,1.489777-3.327484,3.327515l0,0    c0,1.837738,1.489777,3.327515,3.327484,3.327515C441.16452,448.609131,442.654297,447.119354,442.654297,445.281616z"
         style="stroke:#000000;stroke-opacity:1;stroke-width:0.37795276;stroke-miterlimit:4;stroke-dasharray:none" /><path
         id="path29_7_"
         inkscape:connector-curvature="0"
         fill="none"
         stroke="#FF0000"
         stroke-width="0.01"
         stroke-linecap="round"
         d="    M442.654297,397.281616c0-1.837738-1.489777-3.327515-3.327545-3.327515c-1.837708,0-3.327484,1.489777-3.327484,3.327515l0,0    c0,1.837738,1.489777,3.327515,3.327484,3.327515C441.16452,400.609131,442.654297,399.119354,442.654297,397.281616z"
         style="stroke:#000000;stroke-opacity:1;stroke-width:0.37795276;stroke-miterlimit:4;stroke-dasharray:none" /><path
         id="path29_6_"
         inkscape:connector-curvature="0"
         fill="none"
         stroke="#FF0000"
         stroke-width="0.01"
         stroke-linecap="round"
         d="    M241.654282,445.281616c0-1.837738-1.489777-3.327515-3.327515-3.327515c-1.837708,0-3.327484,1.489777-3.327484,3.327515l0,0    c0,1.837738,1.489777,3.327515,3.327484,3.327515C240.164505,448.609131,241.654282,447.119354,241.654282,445.281616z"
         style="stroke:#000000;stroke-opacity:1;stroke-width:0.37795276;stroke-miterlimit:4;stroke-dasharray:none" /><path
         id="path29_5_"
         inkscape:connector-curvature="0"
         fill="none"
         stroke="#FF0000"
         stroke-width="0.01"
         stroke-linecap="round"
         d="    M290.654297,397.281616c0-1.837738-1.489777-3.327515-3.327545-3.327515c-1.837708,0-3.327484,1.489777-3.327484,3.327515l0,0    c0,1.837738,1.489777,3.327515,3.327484,3.327515C289.16452,400.609131,290.654297,399.119354,290.654297,397.281616z"
         style="stroke:#000000;stroke-opacity:1;stroke-width:0.37795276;stroke-miterlimit:4;stroke-dasharray:none" /></g><path
       fill="none"
       stroke="#FF0000"
       stroke-width="0.01"
       stroke-linecap="round"
       d="M218.958328,450.291656l59.00618-57.337555   c3.140045-3.13028,5.03125-4.88028,11.29425-4.88028h152.700073c3.937653,0,7.12973,3.192108,7.12973,7.12973V677.97168   c0,4.004517-3.246277,7.250793-7.250763,7.250793H64.033463c-4.004494,0-7.250778-3.246277-7.250778-7.250793v-215.82373   c0-4.004486,3.246284-7.250763,7.250778-7.250763h142.299866C212.083328,454.916656,214.541672,454.125,218.958328,450.291656z"
       id="path4582"
       style="stroke:#000000;stroke-opacity:1;stroke-width:0.37795276;stroke-miterlimit:4;stroke-dasharray:none" /></g></svg>