M48
;DRILL file {KiCad 4.0.7-e2-6376~58~ubuntu16.04.1} date Mon Jan 29 00:51:18 2018
;FORMAT={3:3/ absolute / metric / suppress leading zeros}
FMAT,2
METRIC,TZ
T1C0.400
T2C0.500
T3C0.762
T4C0.800
T5C1.000
T6C1.092
T7C1.100
T8C1.600
T9C0.991
T10C1.200
T11C1.702
T12C1.900
T13C3.988
T14C5.000
%
G90
G05
M71
T1
X93980Y-72030
X93980Y-75290
X93980Y-91080
X93980Y-94340
X93980Y-110130
X93980Y-113390
X93980Y-129180
X93980Y-132440
X113030Y-72030
X113030Y-75290
X113030Y-91080
X113030Y-94340
X113030Y-110130
X113030Y-113390
X113030Y-129180
X113030Y-132440
X132080Y-72030
X132080Y-75290
X132080Y-91080
X132080Y-94340
X132080Y-110130
X132080Y-113390
X132080Y-129180
X132080Y-132440
X151130Y-72030
X151130Y-75290
X151130Y-91080
X151130Y-94340
X151130Y-110130
X151130Y-113390
X151130Y-129180
X151130Y-132440
X167640Y-53340
X170180Y-66040
X170180Y-72030
X170180Y-75290
X170180Y-91080
X170180Y-94340
X170180Y-110130
X170180Y-113390
X170180Y-129180
X170180Y-132440
X172720Y-60960
X175895Y-54610
X179070Y-64135
X189230Y-72030
X189230Y-75290
X189230Y-91080
X189230Y-94340
X189230Y-110130
X189230Y-113390
X189230Y-129180
X189230Y-132440
X198120Y-64135
X207645Y-72030
X207645Y-75290
X207645Y-91080
X207645Y-94340
X207645Y-110130
X207645Y-113390
X207645Y-129180
X207645Y-132440
T2
X188230Y-64135
X190230Y-64135
T3
X193675Y-57785
X198755Y-57785
T4
X93980Y-68580
X93980Y-78740
X93980Y-87630
X93980Y-97790
X93980Y-106680
X93980Y-116840
X93980Y-125730
X93980Y-135890
X113030Y-68580
X113030Y-78740
X113030Y-87630
X113030Y-97790
X113030Y-106680
X113030Y-116840
X113030Y-125730
X113030Y-135890
X132080Y-68580
X132080Y-78740
X132080Y-87630
X132080Y-97790
X132080Y-106680
X132080Y-116840
X132080Y-125730
X132080Y-135890
X151130Y-68580
X151130Y-78740
X151130Y-87630
X151130Y-97790
X151130Y-106680
X151130Y-116840
X151130Y-125730
X151130Y-135890
X170180Y-68580
X170180Y-78740
X170180Y-87630
X170180Y-97790
X170180Y-106680
X170180Y-116840
X170180Y-125730
X170180Y-135890
X174625Y-64135
X184785Y-64135
X189230Y-68580
X189230Y-78740
X189230Y-87630
X189230Y-97790
X189230Y-106680
X189230Y-116840
X189230Y-125730
X189230Y-135890
X193675Y-64135
X203835Y-64135
X207645Y-68580
X207645Y-78740
X207645Y-87630
X207645Y-97790
X207645Y-106680
X207645Y-116840
X207645Y-125730
X207645Y-135890
T6
X192215Y-53075
X196215Y-44575
X196215Y-47575
X196215Y-51575
X200215Y-53075
T7
X160020Y-43180
X160020Y-58420
X162560Y-43180
X162560Y-58420
X165100Y-43180
X165100Y-58420
X167640Y-43180
X167640Y-58420
X170180Y-43180
X170180Y-58420
X172720Y-43180
X172720Y-58420
X175260Y-43180
X175260Y-58420
X177800Y-43180
X177800Y-58420
X180340Y-43180
X180340Y-58420
X182880Y-43180
X182880Y-58420
X185420Y-43180
X185420Y-58420
X187960Y-43180
X187960Y-58420
T8
X79455Y-77460
X79455Y-96510
X79455Y-115560
X79455Y-134610
X80645Y-71120
X80645Y-90170
X80645Y-109220
X80645Y-128270
X81915Y-68580
X81915Y-87630
X81915Y-106680
X81915Y-125730
X84455Y-79560
X84455Y-98610
X84455Y-117660
X84455Y-136710
X86995Y-68580
X86995Y-87630
X86995Y-106680
X86995Y-125730
X88265Y-71120
X88265Y-90170
X88265Y-109220
X88265Y-128270
X89455Y-77460
X89455Y-96510
X89455Y-115560
X89455Y-134610
X98505Y-77460
X98505Y-96510
X98505Y-115560
X98505Y-134610
X99695Y-71120
X99695Y-90170
X99695Y-109220
X99695Y-128270
X100965Y-68580
X100965Y-87630
X100965Y-106680
X100965Y-125730
X103505Y-79560
X103505Y-98610
X103505Y-117660
X103505Y-136710
X106045Y-68580
X106045Y-87630
X106045Y-106680
X106045Y-125730
X107315Y-71120
X107315Y-90170
X107315Y-109220
X107315Y-128270
X108505Y-77460
X108505Y-96510
X108505Y-115560
X108505Y-134610
X117555Y-77460
X117555Y-96510
X117555Y-115560
X117555Y-134610
X118745Y-71120
X118745Y-90170
X118745Y-109220
X118745Y-128270
X120015Y-68580
X120015Y-87630
X120015Y-106680
X120015Y-125730
X122555Y-79560
X122555Y-98610
X122555Y-117660
X122555Y-136710
X125095Y-68580
X125095Y-87630
X125095Y-106680
X125095Y-125730
X126365Y-71120
X126365Y-90170
X126365Y-109220
X126365Y-128270
X127555Y-77460
X127555Y-96510
X127555Y-115560
X127555Y-134610
X136605Y-77460
X136605Y-96510
X136605Y-115560
X136605Y-134610
X137795Y-71120
X137795Y-90170
X137795Y-109220
X137795Y-128270
X139065Y-68580
X139065Y-87630
X139065Y-106680
X139065Y-125730
X141605Y-79560
X141605Y-98610
X141605Y-117660
X141605Y-136710
X144145Y-68580
X144145Y-87630
X144145Y-106680
X144145Y-125730
X145415Y-71120
X145415Y-90170
X145415Y-109220
X145415Y-128270
X146605Y-77460
X146605Y-96510
X146605Y-115560
X146605Y-134610
X155655Y-77460
X155655Y-96510
X155655Y-115560
X155655Y-134610
X156845Y-71120
X156845Y-90170
X156845Y-109220
X156845Y-128270
X158115Y-68580
X158115Y-87630
X158115Y-106680
X158115Y-125730
X160655Y-79560
X160655Y-98610
X160655Y-117660
X160655Y-136710
X163195Y-68580
X163195Y-87630
X163195Y-106680
X163195Y-125730
X164465Y-71120
X164465Y-90170
X164465Y-109220
X164465Y-128270
X165655Y-77460
X165655Y-96510
X165655Y-115560
X165655Y-134610
X174705Y-77460
X174705Y-96510
X174705Y-115560
X174705Y-134610
X175895Y-71120
X175895Y-90170
X175895Y-109220
X175895Y-128270
X177165Y-68580
X177165Y-87630
X177165Y-106680
X177165Y-125730
X179705Y-79560
X179705Y-98610
X179705Y-117660
X179705Y-136710
X182245Y-68580
X182245Y-87630
X182245Y-106680
X182245Y-125730
X183515Y-71120
X183515Y-90170
X183515Y-109220
X183515Y-128270
X184705Y-77460
X184705Y-96510
X184705Y-115560
X184705Y-134610
X193755Y-77460
X193755Y-96510
X193755Y-115560
X193755Y-134610
X194945Y-71120
X194945Y-90170
X194945Y-109220
X194945Y-128270
X196215Y-68580
X196215Y-87630
X196215Y-106680
X196215Y-125730
X198755Y-79560
X198755Y-98610
X198755Y-117660
X198755Y-136710
X201295Y-68580
X201295Y-87630
X201295Y-106680
X201295Y-125730
X202565Y-71120
X202565Y-90170
X202565Y-109220
X202565Y-128270
X203755Y-77460
X203755Y-96510
X203755Y-115560
X203755Y-134610
T9
X194215Y-42775
X194215Y-49775
X198215Y-42775
X198215Y-49775
T10
X79235Y-69460
X79235Y-88510
X79235Y-107560
X79235Y-126610
X89675Y-69460
X89675Y-88510
X89675Y-107560
X89675Y-126610
X98285Y-69460
X98285Y-88510
X98285Y-107560
X98285Y-126610
X108725Y-69460
X108725Y-88510
X108725Y-107560
X108725Y-126610
X117335Y-69460
X117335Y-88510
X117335Y-107560
X117335Y-126610
X127775Y-69460
X127775Y-88510
X127775Y-107560
X127775Y-126610
X136385Y-69460
X136385Y-88510
X136385Y-107560
X136385Y-126610
X146825Y-69460
X146825Y-88510
X146825Y-107560
X146825Y-126610
X155435Y-69460
X155435Y-88510
X155435Y-107560
X155435Y-126610
X165875Y-69460
X165875Y-88510
X165875Y-107560
X165875Y-126610
X174485Y-69460
X174485Y-88510
X174485Y-107560
X174485Y-126610
X184925Y-69460
X184925Y-88510
X184925Y-107560
X184925Y-126610
X193535Y-69460
X193535Y-88510
X193535Y-107560
X193535Y-126610
X203975Y-69460
X203975Y-88510
X203975Y-107560
X203975Y-126610
T11
X79375Y-73660
X79375Y-92710
X79375Y-111760
X79375Y-130810
X89535Y-73660
X89535Y-92710
X89535Y-111760
X89535Y-130810
X98425Y-73660
X98425Y-92710
X98425Y-111760
X98425Y-130810
X108585Y-73660
X108585Y-92710
X108585Y-111760
X108585Y-130810
X117475Y-73660
X117475Y-92710
X117475Y-111760
X117475Y-130810
X127635Y-73660
X127635Y-92710
X127635Y-111760
X127635Y-130810
X136525Y-73660
X136525Y-92710
X136525Y-111760
X136525Y-130810
X146685Y-73660
X146685Y-92710
X146685Y-111760
X146685Y-130810
X155575Y-73660
X155575Y-92710
X155575Y-111760
X155575Y-130810
X165735Y-73660
X165735Y-92710
X165735Y-111760
X165735Y-130810
X174625Y-73660
X174625Y-92710
X174625Y-111760
X174625Y-130810
X184785Y-73660
X184785Y-92710
X184785Y-111760
X184785Y-130810
X193675Y-73660
X193675Y-92710
X193675Y-111760
X193675Y-130810
X203835Y-73660
X203835Y-92710
X203835Y-111760
X203835Y-130810
T12
X78955Y-73660
X78955Y-92710
X78955Y-111760
X78955Y-130810
X89955Y-73660
X89955Y-92710
X89955Y-111760
X89955Y-130810
X98005Y-73660
X98005Y-92710
X98005Y-111760
X98005Y-130810
X109005Y-73660
X109005Y-92710
X109005Y-111760
X109005Y-130810
X117055Y-73660
X117055Y-92710
X117055Y-111760
X117055Y-130810
X128055Y-73660
X128055Y-92710
X128055Y-111760
X128055Y-130810
X136105Y-73660
X136105Y-92710
X136105Y-111760
X136105Y-130810
X147105Y-73660
X147105Y-92710
X147105Y-111760
X147105Y-130810
X155155Y-73660
X155155Y-92710
X155155Y-111760
X155155Y-130810
X166155Y-73660
X166155Y-92710
X166155Y-111760
X166155Y-130810
X174205Y-73660
X174205Y-92710
X174205Y-111760
X174205Y-130810
X185205Y-73660
X185205Y-92710
X185205Y-111760
X185205Y-130810
X193255Y-73660
X193255Y-92710
X193255Y-111760
X193255Y-130810
X204255Y-73660
X204255Y-92710
X204255Y-111760
X204255Y-130810
T13
X84455Y-73660
X84455Y-92710
X84455Y-111760
X84455Y-130810
X103505Y-73660
X103505Y-92710
X103505Y-111760
X103505Y-130810
X122555Y-73660
X122555Y-92710
X122555Y-111760
X122555Y-130810
X141605Y-73660
X141605Y-92710
X141605Y-111760
X141605Y-130810
X160655Y-73660
X160655Y-92710
X160655Y-111760
X160655Y-130810
X179705Y-73660
X179705Y-92710
X179705Y-111760
X179705Y-130810
X198755Y-73660
X198755Y-92710
X198755Y-111760
X198755Y-130810
T14
X93980Y-83185
X93980Y-121285
X132080Y-102235
X189230Y-83185
X189230Y-121285
T5
X81718Y-68951G85X80842Y-70749
G05
X81718Y-88001G85X80842Y-89799
G05
X81718Y-107051G85X80842Y-108849
G05
X81718Y-126101G85X80842Y-127899
G05
X87192Y-68951G85X88068Y-70749
G05
X87192Y-88001G85X88068Y-89799
G05
X87192Y-107051G85X88068Y-108849
G05
X87192Y-126101G85X88068Y-127899
G05
X100768Y-68951G85X99892Y-70749
G05
X100768Y-88001G85X99892Y-89799
G05
X100768Y-107051G85X99892Y-108849
G05
X100768Y-126101G85X99892Y-127899
G05
X106242Y-68951G85X107118Y-70749
G05
X106242Y-88001G85X107118Y-89799
G05
X106242Y-107051G85X107118Y-108849
G05
X106242Y-126101G85X107118Y-127899
G05
X119818Y-68951G85X118942Y-70749
G05
X119818Y-88001G85X118942Y-89799
G05
X119818Y-107051G85X118942Y-108849
G05
X119818Y-126101G85X118942Y-127899
G05
X125292Y-68951G85X126168Y-70749
G05
X125292Y-88001G85X126168Y-89799
G05
X125292Y-107051G85X126168Y-108849
G05
X125292Y-126101G85X126168Y-127899
G05
X138868Y-68951G85X137992Y-70749
G05
X138868Y-88001G85X137992Y-89799
G05
X138868Y-107051G85X137992Y-108849
G05
X138868Y-126101G85X137992Y-127899
G05
X144342Y-68951G85X145218Y-70749
G05
X144342Y-88001G85X145218Y-89799
G05
X144342Y-107051G85X145218Y-108849
G05
X144342Y-126101G85X145218Y-127899
G05
X157918Y-68951G85X157042Y-70749
G05
X157918Y-88001G85X157042Y-89799
G05
X157918Y-107051G85X157042Y-108849
G05
X157918Y-126101G85X157042Y-127899
G05
X163392Y-68951G85X164268Y-70749
G05
X163392Y-88001G85X164268Y-89799
G05
X163392Y-107051G85X164268Y-108849
G05
X163392Y-126101G85X164268Y-127899
G05
X176968Y-68951G85X176092Y-70749
G05
X176968Y-88001G85X176092Y-89799
G05
X176968Y-107051G85X176092Y-108849
G05
X176968Y-126101G85X176092Y-127899
G05
X182442Y-68951G85X183318Y-70749
G05
X182442Y-88001G85X183318Y-89799
G05
X182442Y-107051G85X183318Y-108849
G05
X182442Y-126101G85X183318Y-127899
G05
X196018Y-68951G85X195142Y-70749
G05
X196018Y-88001G85X195142Y-89799
G05
X196018Y-107051G85X195142Y-108849
G05
X196018Y-126101G85X195142Y-127899
G05
X201492Y-68951G85X202368Y-70749
G05
X201492Y-88001G85X202368Y-89799
G05
X201492Y-107051G85X202368Y-108849
G05
X201492Y-126101G85X202368Y-127899
G05
T0
M30
