M48
;DRILL file {KiCad 4.0.7-e2-6376~58~ubuntu16.04.1} date Sun Nov 12 02:54:05 2017
;FORMAT={3:3/ absolute / metric / suppress leading zeros}
FMAT,2
METRIC,TZ
T1C0.400
T2C0.500
T3C0.800
T4C1.092
T5C1.100
T6C1.500
T7C8.000
%
G90
G05
M71
T1
X94615Y-90805
X101600Y-69215
T2
X134255Y-50165
X136255Y-50165
T3
X78105Y-52070
X78105Y-62230
X78105Y-73660
X78105Y-83820
X78105Y-90170
X78105Y-100330
X78105Y-111760
X78105Y-121920
X82550Y-86995
X83820Y-67945
X92710Y-86995
X93980Y-67945
X97155Y-91440
X97155Y-101600
X97155Y-110490
X97155Y-120650
X100330Y-86995
X110490Y-86995
X116205Y-92710
X116205Y-102870
X116205Y-110490
X116205Y-120650
X120650Y-50165
X120650Y-67945
X130810Y-50165
X130810Y-67945
X135255Y-53340
X135255Y-63500
X135255Y-72390
X135255Y-82550
X135255Y-91440
X135255Y-101600
X135255Y-110490
X135255Y-120650
X139700Y-50165
X149860Y-50165
X154305Y-53340
X154305Y-63500
X154305Y-72390
X154305Y-82550
X154305Y-91440
X154305Y-101600
X154305Y-110490
X154305Y-120650
X157480Y-67945
X167640Y-67945
X173355Y-73660
X173355Y-83820
X173355Y-90170
X173355Y-100330
X173355Y-111760
X173355Y-121920
X179070Y-67945
X179070Y-86995
X179070Y-106045
X179070Y-125095
X189230Y-67945
X189230Y-86995
X189230Y-106045
X189230Y-125095
T4
X169355Y-60695
X173355Y-52195
X173355Y-55195
X173355Y-59195
X177355Y-60695
T5
X99060Y-50165
X99060Y-52705
X99060Y-55245
X99060Y-57785
X99060Y-60325
X99060Y-62865
X99060Y-65405
X99060Y-67945
X99060Y-70485
X99060Y-73025
X99060Y-75565
X99060Y-78105
X114300Y-50165
X114300Y-52705
X114300Y-55245
X114300Y-57785
X114300Y-60325
X114300Y-62865
X114300Y-65405
X114300Y-67945
X114300Y-70485
X114300Y-73025
X114300Y-75565
X114300Y-78105
T7
X78105Y-67945
X78105Y-106045
X116205Y-86995
X173355Y-67945
X173355Y-106045
T6
X65580Y-54420G85X64770Y-55880
G05
X65580Y-73470G85X64770Y-74930
G05
X65580Y-92520G85X64770Y-93980
G05
X65580Y-111570G85X64770Y-113030
G05
X66080Y-53341G85X66120Y-53919
G05
X66080Y-72391G85X66120Y-72969
G05
X66080Y-91441G85X66120Y-92019
G05
X66080Y-110491G85X66120Y-111069
G05
X71120Y-53341G85X71080Y-53919
G05
X71120Y-72391G85X71080Y-72969
G05
X71120Y-91441G85X71080Y-92019
G05
X71120Y-110491G85X71080Y-111069
G05
X71770Y-54420G85X72580Y-55880
G05
X71770Y-73470G85X72580Y-74930
G05
X71770Y-92520G85X72580Y-93980
G05
X71770Y-111570G85X72580Y-113030
G05
X84630Y-54420G85X83820Y-55880
G05
X84630Y-73470G85X83820Y-74930
G05
X84630Y-92520G85X83820Y-93980
G05
X84630Y-111570G85X83820Y-113030
G05
X85130Y-53341G85X85170Y-53919
G05
X85130Y-72391G85X85170Y-72969
G05
X85130Y-91441G85X85170Y-92019
G05
X85130Y-110491G85X85170Y-111069
G05
X90170Y-53341G85X90130Y-53919
G05
X90170Y-72391G85X90130Y-72969
G05
X90170Y-91441G85X90130Y-92019
G05
X90170Y-110491G85X90130Y-111069
G05
X90820Y-54420G85X91630Y-55880
G05
X90820Y-73470G85X91630Y-74930
G05
X90820Y-92520G85X91630Y-93980
G05
X90820Y-111570G85X91630Y-113030
G05
X103680Y-54420G85X102870Y-55880
G05
X103680Y-73470G85X102870Y-74930
G05
X103680Y-92520G85X102870Y-93980
G05
X103680Y-111570G85X102870Y-113030
G05
X104180Y-53341G85X104220Y-53919
G05
X104180Y-72391G85X104220Y-72969
G05
X104180Y-91441G85X104220Y-92019
G05
X104180Y-110491G85X104220Y-111069
G05
X109220Y-53341G85X109180Y-53919
G05
X109220Y-72391G85X109180Y-72969
G05
X109220Y-91441G85X109180Y-92019
G05
X109220Y-110491G85X109180Y-111069
G05
X109870Y-54420G85X110680Y-55880
G05
X109870Y-73470G85X110680Y-74930
G05
X109870Y-92520G85X110680Y-93980
G05
X109870Y-111570G85X110680Y-113030
G05
X122730Y-54420G85X121920Y-55880
G05
X122730Y-73470G85X121920Y-74930
G05
X122730Y-92520G85X121920Y-93980
G05
X122730Y-111570G85X121920Y-113030
G05
X123230Y-53341G85X123270Y-53919
G05
X123230Y-72391G85X123270Y-72969
G05
X123230Y-91441G85X123270Y-92019
G05
X123230Y-110491G85X123270Y-111069
G05
X128270Y-53341G85X128230Y-53919
G05
X128270Y-72391G85X128230Y-72969
G05
X128270Y-91441G85X128230Y-92019
G05
X128270Y-110491G85X128230Y-111069
G05
X128920Y-54420G85X129730Y-55880
G05
X128920Y-73470G85X129730Y-74930
G05
X128920Y-92520G85X129730Y-93980
G05
X128920Y-111570G85X129730Y-113030
G05
X141780Y-54420G85X140970Y-55880
G05
X141780Y-73470G85X140970Y-74930
G05
X141780Y-92520G85X140970Y-93980
G05
X141780Y-111570G85X140970Y-113030
G05
X142280Y-53341G85X142320Y-53919
G05
X142280Y-72391G85X142320Y-72969
G05
X142280Y-91441G85X142320Y-92019
G05
X142280Y-110491G85X142320Y-111069
G05
X147320Y-53341G85X147280Y-53919
G05
X147320Y-72391G85X147280Y-72969
G05
X147320Y-91441G85X147280Y-92019
G05
X147320Y-110491G85X147280Y-111069
G05
X147970Y-54420G85X148780Y-55880
G05
X147970Y-73470G85X148780Y-74930
G05
X147970Y-92520G85X148780Y-93980
G05
X147970Y-111570G85X148780Y-113030
G05
X160830Y-54420G85X160020Y-55880
G05
X160830Y-73470G85X160020Y-74930
G05
X160830Y-92520G85X160020Y-93980
G05
X160830Y-111570G85X160020Y-113030
G05
X161330Y-53341G85X161370Y-53919
G05
X161330Y-72391G85X161370Y-72969
G05
X161330Y-91441G85X161370Y-92019
G05
X161330Y-110491G85X161370Y-111069
G05
X166370Y-53341G85X166330Y-53919
G05
X166370Y-72391G85X166330Y-72969
G05
X166370Y-91441G85X166330Y-92019
G05
X166370Y-110491G85X166330Y-111069
G05
X167020Y-54420G85X167830Y-55880
G05
X167020Y-73470G85X167830Y-74930
G05
X167020Y-92520G85X167830Y-93980
G05
X167020Y-111570G85X167830Y-113030
G05
X179880Y-54420G85X179070Y-55880
G05
X179880Y-73470G85X179070Y-74930
G05
X179880Y-92520G85X179070Y-93980
G05
X179880Y-111570G85X179070Y-113030
G05
X180380Y-53341G85X180420Y-53919
G05
X180380Y-72391G85X180420Y-72969
G05
X180380Y-91441G85X180420Y-92019
G05
X180380Y-110491G85X180420Y-111069
G05
X185420Y-53341G85X185380Y-53919
G05
X185420Y-72391G85X185380Y-72969
G05
X185420Y-91441G85X185380Y-92019
G05
X185420Y-110491G85X185380Y-111069
G05
X186070Y-54420G85X186880Y-55880
G05
X186070Y-73470G85X186880Y-74930
G05
X186070Y-92520G85X186880Y-93980
G05
X186070Y-111570G85X186880Y-113030
G05
T0
M30
