M48
;DRILL file {KiCad 5.0.0-fee4fd1~66~ubuntu18.04.1} date Sun Sep 16 21:31:31 2018
;FORMAT={3:3/ absolute / metric / suppress leading zeros}
FMAT,2
METRIC,TZ
T1C0.400
T2C0.500
T3C0.762
T4C0.800
T5C0.820
T6C1.000
T7C1.092
T8C1.600
T9C1.200
T10C1.702
T11C1.900
T12C3.988
T13C5.000
%
G90
G05
M71
T1
X159385Y-54610
X161925Y-54610
X164465Y-54610
X167005Y-54610
X169545Y-54610
X172085Y-54610
X174625Y-54610
X177165Y-54610
X179705Y-54610
X182245Y-54610
X184785Y-54610
X187325Y-54610
X198120Y-64135
X207645Y-91080
X207645Y-94340
X113030Y-72030
X113030Y-75290
X132080Y-110130
X132080Y-113390
X113030Y-110130
X113030Y-113390
X132080Y-72030
X132080Y-75290
X207645Y-110130
X207645Y-113390
X207645Y-129180
X207645Y-132440
X170180Y-110130
X170180Y-113390
X170180Y-129180
X170180Y-132440
X132080Y-129180
X132080Y-132440
X151130Y-129180
X151130Y-132440
X151130Y-72030
X151130Y-75290
X189230Y-72030
X189230Y-75290
X93980Y-110130
X93980Y-113390
X93980Y-72030
X93980Y-75290
X189230Y-129180
X189230Y-132440
X189230Y-91080
X189230Y-94340
X113030Y-91080
X113030Y-94340
X93980Y-91080
X93980Y-94340
X113030Y-129180
X113030Y-132440
X151130Y-91080
X151130Y-94340
X170180Y-91080
X170180Y-94340
X189230Y-110130
X189230Y-113390
X151130Y-110130
X151130Y-113390
X170180Y-72030
X170180Y-75290
X93980Y-129180
X93980Y-132440
X132080Y-91080
X132080Y-94340
X207645Y-72030
X207645Y-75290
T2
X188230Y-64135
X190230Y-64135
T3
X193675Y-57785
X198755Y-57785
T4
X207645Y-87630
X207645Y-97790
X113030Y-68580
X113030Y-78740
X132080Y-106680
X132080Y-116840
X113030Y-106680
X113030Y-116840
X132080Y-68580
X132080Y-78740
X207645Y-106680
X207645Y-116840
X207645Y-125730
X207645Y-135890
X170180Y-106680
X170180Y-116840
X170180Y-125730
X170180Y-135890
X132080Y-125730
X132080Y-135890
X151130Y-125730
X151130Y-135890
X193675Y-64135
X203835Y-64135
X151130Y-68580
X151130Y-78740
X189230Y-68580
X189230Y-78740
X93980Y-106680
X93980Y-116840
X93980Y-68580
X93980Y-78740
X189230Y-125730
X189230Y-135890
X174625Y-64135
X184785Y-64135
X189230Y-87630
X189230Y-97790
X113030Y-87630
X113030Y-97790
X93980Y-87630
X93980Y-97790
X113030Y-125730
X113030Y-135890
X151130Y-87630
X151130Y-97790
X170180Y-87630
X170180Y-97790
X189230Y-106680
X189230Y-116840
X151130Y-106680
X151130Y-116840
X170180Y-68580
X170180Y-78740
X93980Y-125730
X93980Y-135890
X132080Y-87630
X132080Y-97790
X207645Y-68580
X207645Y-78740
T5
X159385Y-43180
X159385Y-58420
X160655Y-41910
X160655Y-57150
X161925Y-43180
X161925Y-58420
X163195Y-41910
X163195Y-57150
X164465Y-43180
X164465Y-58420
X165735Y-41910
X165735Y-57150
X167005Y-43180
X167005Y-58420
X168275Y-41910
X168275Y-57150
X169545Y-43180
X169545Y-58420
X170815Y-41910
X170815Y-57150
X172085Y-43180
X172085Y-58420
X173355Y-41910
X173355Y-57150
X174625Y-43180
X174625Y-58420
X175895Y-41910
X175895Y-57150
X177165Y-43180
X177165Y-58420
X178435Y-41910
X178435Y-57150
X179705Y-43180
X179705Y-58420
X180975Y-41910
X180975Y-57150
X182245Y-43180
X182245Y-58420
X183515Y-41910
X183515Y-57150
X184785Y-43180
X184785Y-58420
X186055Y-41910
X186055Y-57150
X187325Y-43180
X187325Y-58420
X188595Y-41910
X188595Y-57150
T7
X192215Y-51805
X196215Y-43305
X196215Y-46305
X196215Y-50305
X200215Y-51805
T8
X174705Y-134610
X175895Y-128270
X177165Y-125730
X179705Y-136710
X182245Y-125730
X183515Y-128270
X184705Y-134610
X117555Y-115560
X118745Y-109220
X120015Y-106680
X122555Y-117660
X125095Y-106680
X126365Y-109220
X127555Y-115560
X193755Y-96510
X194945Y-90170
X196215Y-87630
X198755Y-98610
X201295Y-87630
X202565Y-90170
X203755Y-96510
X193755Y-115560
X194945Y-109220
X196215Y-106680
X198755Y-117660
X201295Y-106680
X202565Y-109220
X203755Y-115560
X117555Y-96510
X118745Y-90170
X120015Y-87630
X122555Y-98610
X125095Y-87630
X126365Y-90170
X127555Y-96510
X79455Y-96510
X80645Y-90170
X81915Y-87630
X84455Y-98610
X86995Y-87630
X88265Y-90170
X89455Y-96510
X174705Y-77460
X175895Y-71120
X177165Y-68580
X179705Y-79560
X182245Y-68580
X183515Y-71120
X184705Y-77460
X117555Y-134610
X118745Y-128270
X120015Y-125730
X122555Y-136710
X125095Y-125730
X126365Y-128270
X127555Y-134610
X155655Y-96510
X156845Y-90170
X158115Y-87630
X160655Y-98610
X163195Y-87630
X164465Y-90170
X165655Y-96510
X136605Y-134610
X137795Y-128270
X139065Y-125730
X141605Y-136710
X144145Y-125730
X145415Y-128270
X146605Y-134610
X98505Y-77460
X99695Y-71120
X100965Y-68580
X103505Y-79560
X106045Y-68580
X107315Y-71120
X108505Y-77460
X174705Y-115560
X175895Y-109220
X177165Y-106680
X179705Y-117660
X182245Y-106680
X183515Y-109220
X184705Y-115560
X174705Y-96510
X175895Y-90170
X177165Y-87630
X179705Y-98610
X182245Y-87630
X183515Y-90170
X184705Y-96510
X79455Y-77460
X80645Y-71120
X81915Y-68580
X84455Y-79560
X86995Y-68580
X88265Y-71120
X89455Y-77460
X79455Y-134610
X80645Y-128270
X81915Y-125730
X84455Y-136710
X86995Y-125730
X88265Y-128270
X89455Y-134610
X155655Y-115560
X156845Y-109220
X158115Y-106680
X160655Y-117660
X163195Y-106680
X164465Y-109220
X165655Y-115560
X136605Y-77460
X137795Y-71120
X139065Y-68580
X141605Y-79560
X144145Y-68580
X145415Y-71120
X146605Y-77460
X98505Y-96510
X99695Y-90170
X100965Y-87630
X103505Y-98610
X106045Y-87630
X107315Y-90170
X108505Y-96510
X193755Y-77460
X194945Y-71120
X196215Y-68580
X198755Y-79560
X201295Y-68580
X202565Y-71120
X203755Y-77460
X98505Y-115560
X99695Y-109220
X100965Y-106680
X103505Y-117660
X106045Y-106680
X107315Y-109220
X108505Y-115560
X155655Y-134610
X156845Y-128270
X158115Y-125730
X160655Y-136710
X163195Y-125730
X164465Y-128270
X165655Y-134610
X155655Y-77460
X156845Y-71120
X158115Y-68580
X160655Y-79560
X163195Y-68580
X164465Y-71120
X165655Y-77460
X117555Y-77460
X118745Y-71120
X120015Y-68580
X122555Y-79560
X125095Y-68580
X126365Y-71120
X127555Y-77460
X98505Y-134610
X99695Y-128270
X100965Y-125730
X103505Y-136710
X106045Y-125730
X107315Y-128270
X108505Y-134610
X136605Y-115560
X137795Y-109220
X139065Y-106680
X141605Y-117660
X144145Y-106680
X145415Y-109220
X146605Y-115560
X136605Y-96510
X137795Y-90170
X139065Y-87630
X141605Y-98610
X144145Y-87630
X145415Y-90170
X146605Y-96510
X79455Y-115560
X80645Y-109220
X81915Y-106680
X84455Y-117660
X86995Y-106680
X88265Y-109220
X89455Y-115560
X193755Y-134610
X194945Y-128270
X196215Y-125730
X198755Y-136710
X201295Y-125730
X202565Y-128270
X203755Y-134610
T9
X98285Y-107560
X108725Y-107560
X155435Y-126610
X165875Y-126610
X155435Y-69460
X165875Y-69460
X117335Y-69460
X127775Y-69460
X98285Y-126610
X108725Y-126610
X136385Y-107560
X146825Y-107560
X136385Y-88510
X146825Y-88510
X79235Y-107560
X89675Y-107560
X193535Y-126610
X203975Y-126610
X174485Y-126610
X184925Y-126610
X117335Y-107560
X127775Y-107560
X193535Y-88510
X203975Y-88510
X193535Y-107560
X203975Y-107560
X194215Y-41505
X194215Y-48505
X198215Y-41505
X198215Y-48505
X117335Y-88510
X127775Y-88510
X79235Y-88510
X89675Y-88510
X174485Y-69460
X184925Y-69460
X117335Y-126610
X127775Y-126610
X155435Y-88510
X165875Y-88510
X136385Y-126610
X146825Y-126610
X98285Y-69460
X108725Y-69460
X174485Y-107560
X184925Y-107560
X174485Y-88510
X184925Y-88510
X79235Y-69460
X89675Y-69460
X79235Y-126610
X89675Y-126610
X155435Y-107560
X165875Y-107560
X136385Y-69460
X146825Y-69460
X98285Y-88510
X108725Y-88510
X193535Y-69460
X203975Y-69460
T10
X174625Y-130810
X184785Y-130810
X117475Y-111760
X127635Y-111760
X193675Y-92710
X203835Y-92710
X193675Y-111760
X203835Y-111760
X117475Y-92710
X127635Y-92710
X79375Y-92710
X89535Y-92710
X174625Y-73660
X184785Y-73660
X117475Y-130810
X127635Y-130810
X155575Y-92710
X165735Y-92710
X136525Y-130810
X146685Y-130810
X98425Y-73660
X108585Y-73660
X174625Y-111760
X184785Y-111760
X174625Y-92710
X184785Y-92710
X79375Y-73660
X89535Y-73660
X79375Y-130810
X89535Y-130810
X155575Y-111760
X165735Y-111760
X136525Y-73660
X146685Y-73660
X98425Y-92710
X108585Y-92710
X193675Y-73660
X203835Y-73660
X98425Y-111760
X108585Y-111760
X155575Y-130810
X165735Y-130810
X155575Y-73660
X165735Y-73660
X117475Y-73660
X127635Y-73660
X98425Y-130810
X108585Y-130810
X136525Y-111760
X146685Y-111760
X136525Y-92710
X146685Y-92710
X79375Y-111760
X89535Y-111760
X193675Y-130810
X203835Y-130810
T11
X136105Y-130810
X147105Y-130810
X98005Y-73660
X109005Y-73660
X174205Y-111760
X185205Y-111760
X174205Y-92710
X185205Y-92710
X78955Y-73660
X89955Y-73660
X78955Y-130810
X89955Y-130810
X155155Y-111760
X166155Y-111760
X136105Y-73660
X147105Y-73660
X98005Y-92710
X109005Y-92710
X193255Y-73660
X204255Y-73660
X98005Y-111760
X109005Y-111760
X155155Y-130810
X166155Y-130810
X155155Y-73660
X166155Y-73660
X117055Y-73660
X128055Y-73660
X98005Y-130810
X109005Y-130810
X136105Y-111760
X147105Y-111760
X136105Y-92710
X147105Y-92710
X78955Y-111760
X89955Y-111760
X193255Y-130810
X204255Y-130810
X174205Y-130810
X185205Y-130810
X117055Y-111760
X128055Y-111760
X193255Y-92710
X204255Y-92710
X193255Y-111760
X204255Y-111760
X117055Y-92710
X128055Y-92710
X78955Y-92710
X89955Y-92710
X174205Y-73660
X185205Y-73660
X117055Y-130810
X128055Y-130810
X155155Y-92710
X166155Y-92710
T12
X84455Y-92710
X179705Y-73660
X122555Y-130810
X160655Y-92710
X141605Y-130810
X103505Y-73660
X179705Y-111760
X179705Y-92710
X84455Y-73660
X84455Y-130810
X160655Y-111760
X141605Y-73660
X103505Y-92710
X198755Y-73660
X103505Y-111760
X160655Y-130810
X160655Y-73660
X122555Y-73660
X103505Y-130810
X141605Y-111760
X141605Y-92710
X84455Y-111760
X198755Y-130810
X179705Y-130810
X122555Y-111760
X198755Y-92710
X198755Y-111760
X122555Y-92710
T13
X93980Y-121285
X189230Y-121285
X189230Y-83185
X132080Y-102235
X93980Y-83185
T6
X81718Y-107051G85X80842Y-108849
G05
X87192Y-107051G85X88068Y-108849
G05
X196018Y-126101G85X195142Y-127899
G05
X201492Y-126101G85X202368Y-127899
G05
X176968Y-126101G85X176092Y-127899
G05
X182442Y-126101G85X183318Y-127899
G05
X119818Y-107051G85X118942Y-108849
G05
X125292Y-107051G85X126168Y-108849
G05
X196018Y-88001G85X195142Y-89799
G05
X201492Y-88001G85X202368Y-89799
G05
X196018Y-107051G85X195142Y-108849
G05
X201492Y-107051G85X202368Y-108849
G05
X119818Y-88001G85X118942Y-89799
G05
X125292Y-88001G85X126168Y-89799
G05
X81718Y-88001G85X80842Y-89799
G05
X87192Y-88001G85X88068Y-89799
G05
X176968Y-68951G85X176092Y-70749
G05
X182442Y-68951G85X183318Y-70749
G05
X119818Y-126101G85X118942Y-127899
G05
X125292Y-126101G85X126168Y-127899
G05
X157918Y-88001G85X157042Y-89799
G05
X163392Y-88001G85X164268Y-89799
G05
X138868Y-126101G85X137992Y-127899
G05
X144342Y-126101G85X145218Y-127899
G05
X100768Y-68951G85X99892Y-70749
G05
X106242Y-68951G85X107118Y-70749
G05
X176968Y-107051G85X176092Y-108849
G05
X182442Y-107051G85X183318Y-108849
G05
X176968Y-88001G85X176092Y-89799
G05
X182442Y-88001G85X183318Y-89799
G05
X81718Y-68951G85X80842Y-70749
G05
X87192Y-68951G85X88068Y-70749
G05
X81718Y-126101G85X80842Y-127899
G05
X87192Y-126101G85X88068Y-127899
G05
X157918Y-107051G85X157042Y-108849
G05
X163392Y-107051G85X164268Y-108849
G05
X138868Y-68951G85X137992Y-70749
G05
X144342Y-68951G85X145218Y-70749
G05
X100768Y-88001G85X99892Y-89799
G05
X106242Y-88001G85X107118Y-89799
G05
X196018Y-68951G85X195142Y-70749
G05
X201492Y-68951G85X202368Y-70749
G05
X100768Y-107051G85X99892Y-108849
G05
X106242Y-107051G85X107118Y-108849
G05
X157918Y-126101G85X157042Y-127899
G05
X163392Y-126101G85X164268Y-127899
G05
X157918Y-68951G85X157042Y-70749
G05
X163392Y-68951G85X164268Y-70749
G05
X119818Y-68951G85X118942Y-70749
G05
X125292Y-68951G85X126168Y-70749
G05
X100768Y-126101G85X99892Y-127899
G05
X106242Y-126101G85X107118Y-127899
G05
X138868Y-107051G85X137992Y-108849
G05
X144342Y-107051G85X145218Y-108849
G05
X138868Y-88001G85X137992Y-89799
G05
X144342Y-88001G85X145218Y-89799
G05
T0
M30
