M48
;DRILL file {KiCad 5.0.2-bee76a0~70~ubuntu18.04.1} date 2018年12月29日 23時15分31秒
;FORMAT={-:-/ absolute / metric / decimal}
FMAT,2
METRIC,TZ
T1C0.400
T2C0.500
T3C0.762
T4C0.800
T5C0.820
T6C1.000
T7C1.092
T8C1.600
T9C1.200
T10C1.702
T11C1.900
T12C3.988
T13C5.000
%
G90
G05
T1
X159.385Y-54.61
X161.925Y-54.61
X164.465Y-54.61
X167.005Y-54.61
X169.545Y-54.61
X172.085Y-54.61
X174.625Y-54.61
X177.165Y-54.61
X179.705Y-54.61
X182.245Y-54.61
X184.785Y-54.61
X187.325Y-54.61
X198.12Y-64.135
X189.23Y-72.03
X189.23Y-75.29
X170.18Y-110.13
X170.18Y-113.39
X132.08Y-129.18
X132.08Y-132.44
X93.98Y-91.08
X93.98Y-94.34
X170.18Y-129.18
X170.18Y-132.44
X207.645Y-110.13
X207.645Y-113.39
X93.98Y-110.13
X93.98Y-113.39
X113.03Y-72.03
X113.03Y-75.29
X207.645Y-91.08
X207.645Y-94.34
X132.08Y-72.03
X132.08Y-75.29
X93.98Y-129.18
X93.98Y-132.44
X132.08Y-91.08
X132.08Y-94.34
X207.645Y-72.03
X207.645Y-75.29
X151.13Y-129.18
X151.13Y-132.44
X207.645Y-129.18
X207.645Y-132.44
X132.08Y-110.13
X132.08Y-113.39
X113.03Y-91.08
X113.03Y-94.34
X189.23Y-91.08
X189.23Y-94.34
X93.98Y-72.03
X93.98Y-75.29
X151.13Y-110.13
X151.13Y-113.39
X170.18Y-91.08
X170.18Y-94.34
X170.18Y-72.03
X170.18Y-75.29
X189.23Y-110.13
X189.23Y-113.39
X113.03Y-110.13
X113.03Y-113.39
X151.13Y-91.08
X151.13Y-94.34
X151.13Y-72.03
X151.13Y-75.29
X113.03Y-129.18
X113.03Y-132.44
X189.23Y-129.18
X189.23Y-132.44
T2
X188.23Y-64.135
X190.23Y-64.135
T3
X193.675Y-57.785
X198.755Y-57.785
T4
X189.23Y-125.73
X189.23Y-135.89
X189.23Y-68.58
X189.23Y-78.74
X170.18Y-106.68
X170.18Y-116.84
X132.08Y-125.73
X132.08Y-135.89
X93.98Y-87.63
X93.98Y-97.79
X170.18Y-125.73
X170.18Y-135.89
X207.645Y-106.68
X207.645Y-116.84
X93.98Y-106.68
X93.98Y-116.84
X113.03Y-68.58
X113.03Y-78.74
X207.645Y-87.63
X207.645Y-97.79
X193.675Y-64.135
X203.835Y-64.135
X132.08Y-68.58
X132.08Y-78.74
X93.98Y-125.73
X93.98Y-135.89
X132.08Y-87.63
X132.08Y-97.79
X207.645Y-68.58
X207.645Y-78.74
X151.13Y-125.73
X151.13Y-135.89
X207.645Y-125.73
X207.645Y-135.89
X174.625Y-64.135
X184.785Y-64.135
X132.08Y-106.68
X132.08Y-116.84
X113.03Y-87.63
X113.03Y-97.79
X189.23Y-87.63
X189.23Y-97.79
X93.98Y-68.58
X93.98Y-78.74
X151.13Y-106.68
X151.13Y-116.84
X170.18Y-87.63
X170.18Y-97.79
X170.18Y-68.58
X170.18Y-78.74
X189.23Y-106.68
X189.23Y-116.84
X113.03Y-106.68
X113.03Y-116.84
X151.13Y-87.63
X151.13Y-97.79
X151.13Y-68.58
X151.13Y-78.74
X113.03Y-125.73
X113.03Y-135.89
T5
X159.385Y-43.18
X159.385Y-58.42
X160.655Y-41.91
X160.655Y-57.15
X161.925Y-43.18
X161.925Y-58.42
X163.195Y-41.91
X163.195Y-57.15
X164.465Y-43.18
X164.465Y-58.42
X165.735Y-41.91
X165.735Y-57.15
X167.005Y-43.18
X167.005Y-58.42
X168.275Y-41.91
X168.275Y-57.15
X169.545Y-43.18
X169.545Y-58.42
X170.815Y-41.91
X170.815Y-57.15
X172.085Y-43.18
X172.085Y-58.42
X173.355Y-41.91
X173.355Y-57.15
X174.625Y-43.18
X174.625Y-58.42
X175.895Y-41.91
X175.895Y-57.15
X177.165Y-43.18
X177.165Y-58.42
X178.435Y-41.91
X178.435Y-57.15
X179.705Y-43.18
X179.705Y-58.42
X180.975Y-41.91
X180.975Y-57.15
X182.245Y-43.18
X182.245Y-58.42
X183.515Y-41.91
X183.515Y-57.15
X184.785Y-43.18
X184.785Y-58.42
X186.055Y-41.91
X186.055Y-57.15
X187.325Y-43.18
X187.325Y-58.42
X188.595Y-41.91
X188.595Y-57.15
T7
X192.215Y-51.805
X196.215Y-43.305
X196.215Y-46.305
X196.215Y-50.305
X200.215Y-51.805
T8
X174.705Y-134.61
X175.895Y-128.27
X177.165Y-125.73
X179.705Y-136.71
X182.245Y-125.73
X183.515Y-128.27
X184.705Y-134.61
X79.455Y-134.61
X80.645Y-128.27
X81.915Y-125.73
X84.455Y-136.71
X86.995Y-125.73
X88.265Y-128.27
X89.455Y-134.61
X98.505Y-115.56
X99.695Y-109.22
X100.965Y-106.68
X103.505Y-117.66
X106.045Y-106.68
X107.315Y-109.22
X108.505Y-115.56
X174.705Y-96.51
X175.895Y-90.17
X177.165Y-87.63
X179.705Y-98.61
X182.245Y-87.63
X183.515Y-90.17
X184.705Y-96.51
X193.755Y-77.46
X194.945Y-71.12
X196.215Y-68.58
X198.755Y-79.56
X201.295Y-68.58
X202.565Y-71.12
X203.755Y-77.46
X98.505Y-96.51
X99.695Y-90.17
X100.965Y-87.63
X103.505Y-98.61
X106.045Y-87.63
X107.315Y-90.17
X108.505Y-96.51
X98.505Y-77.46
X99.695Y-71.12
X100.965Y-68.58
X103.505Y-79.56
X106.045Y-68.58
X107.315Y-71.12
X108.505Y-77.46
X79.455Y-115.56
X80.645Y-109.22
X81.915Y-106.68
X84.455Y-117.66
X86.995Y-106.68
X88.265Y-109.22
X89.455Y-115.56
X155.655Y-115.56
X156.845Y-109.22
X158.115Y-106.68
X160.655Y-117.66
X163.195Y-106.68
X164.465Y-109.22
X165.655Y-115.56
X117.555Y-134.61
X118.745Y-128.27
X120.015Y-125.73
X122.555Y-136.71
X125.095Y-125.73
X126.365Y-128.27
X127.555Y-134.61
X117.555Y-96.51
X118.745Y-90.17
X120.015Y-87.63
X122.555Y-98.61
X125.095Y-87.63
X126.365Y-90.17
X127.555Y-96.51
X155.655Y-96.51
X156.845Y-90.17
X158.115Y-87.63
X160.655Y-98.61
X163.195Y-87.63
X164.465Y-90.17
X165.655Y-96.51
X136.605Y-96.51
X137.795Y-90.17
X139.065Y-87.63
X141.605Y-98.61
X144.145Y-87.63
X145.415Y-90.17
X146.605Y-96.51
X79.455Y-96.51
X80.645Y-90.17
X81.915Y-87.63
X84.455Y-98.61
X86.995Y-87.63
X88.265Y-90.17
X89.455Y-96.51
X193.755Y-115.56
X194.945Y-109.22
X196.215Y-106.68
X198.755Y-117.66
X201.295Y-106.68
X202.565Y-109.22
X203.755Y-115.56
X98.505Y-134.61
X99.695Y-128.27
X100.965Y-125.73
X103.505Y-136.71
X106.045Y-125.73
X107.315Y-128.27
X108.505Y-134.61
X155.655Y-134.61
X156.845Y-128.27
X158.115Y-125.73
X160.655Y-136.71
X163.195Y-125.73
X164.465Y-128.27
X165.655Y-134.61
X174.705Y-115.56
X175.895Y-109.22
X177.165Y-106.68
X179.705Y-117.66
X182.245Y-106.68
X183.515Y-109.22
X184.705Y-115.56
X155.655Y-77.46
X156.845Y-71.12
X158.115Y-68.58
X160.655Y-79.56
X163.195Y-68.58
X164.465Y-71.12
X165.655Y-77.46
X193.755Y-134.61
X194.945Y-128.27
X196.215Y-125.73
X198.755Y-136.71
X201.295Y-125.73
X202.565Y-128.27
X203.755Y-134.61
X136.605Y-115.56
X137.795Y-109.22
X139.065Y-106.68
X141.605Y-117.66
X144.145Y-106.68
X145.415Y-109.22
X146.605Y-115.56
X136.605Y-77.46
X137.795Y-71.12
X139.065Y-68.58
X141.605Y-79.56
X144.145Y-68.58
X145.415Y-71.12
X146.605Y-77.46
X136.605Y-134.61
X137.795Y-128.27
X139.065Y-125.73
X141.605Y-136.71
X144.145Y-125.73
X145.415Y-128.27
X146.605Y-134.61
X79.455Y-77.46
X80.645Y-71.12
X81.915Y-68.58
X84.455Y-79.56
X86.995Y-68.58
X88.265Y-71.12
X89.455Y-77.46
X117.555Y-77.46
X118.745Y-71.12
X120.015Y-68.58
X122.555Y-79.56
X125.095Y-68.58
X126.365Y-71.12
X127.555Y-77.46
X174.705Y-77.46
X175.895Y-71.12
X177.165Y-68.58
X179.705Y-79.56
X182.245Y-68.58
X183.515Y-71.12
X184.705Y-77.46
X117.555Y-115.56
X118.745Y-109.22
X120.015Y-106.68
X122.555Y-117.66
X125.095Y-106.68
X126.365Y-109.22
X127.555Y-115.56
X193.755Y-96.51
X194.945Y-90.17
X196.215Y-87.63
X198.755Y-98.61
X201.295Y-87.63
X202.565Y-90.17
X203.755Y-96.51
T9
X117.335Y-69.46
X127.775Y-69.46
X174.485Y-69.46
X184.925Y-69.46
X117.335Y-107.56
X127.775Y-107.56
X193.535Y-88.51
X203.975Y-88.51
X174.485Y-126.61
X184.925Y-126.61
X79.235Y-126.61
X89.675Y-126.61
X98.285Y-107.56
X108.725Y-107.56
X174.485Y-88.51
X184.925Y-88.51
X193.535Y-69.46
X203.975Y-69.46
X98.285Y-88.51
X108.725Y-88.51
X98.285Y-69.46
X108.725Y-69.46
X79.235Y-107.56
X89.675Y-107.56
X155.435Y-107.56
X165.875Y-107.56
X117.335Y-126.61
X127.775Y-126.61
X117.335Y-88.51
X127.775Y-88.51
X194.215Y-41.505
X194.215Y-48.505
X198.215Y-41.505
X198.215Y-48.505
X155.435Y-88.51
X165.875Y-88.51
X136.385Y-88.51
X146.825Y-88.51
X79.235Y-88.51
X89.675Y-88.51
X193.535Y-107.56
X203.975Y-107.56
X98.285Y-126.61
X108.725Y-126.61
X155.435Y-126.61
X165.875Y-126.61
X174.485Y-107.56
X184.925Y-107.56
X155.435Y-69.46
X165.875Y-69.46
X193.535Y-126.61
X203.975Y-126.61
X136.385Y-107.56
X146.825Y-107.56
X136.385Y-69.46
X146.825Y-69.46
X136.385Y-126.61
X146.825Y-126.61
X79.235Y-69.46
X89.675Y-69.46
T10
X174.625Y-130.81
X184.785Y-130.81
X79.375Y-130.81
X89.535Y-130.81
X98.425Y-111.76
X108.585Y-111.76
X174.625Y-92.71
X184.785Y-92.71
X193.675Y-73.66
X203.835Y-73.66
X98.425Y-92.71
X108.585Y-92.71
X98.425Y-73.66
X108.585Y-73.66
X79.375Y-111.76
X89.535Y-111.76
X155.575Y-111.76
X165.735Y-111.76
X117.475Y-130.81
X127.635Y-130.81
X117.475Y-92.71
X127.635Y-92.71
X155.575Y-92.71
X165.735Y-92.71
X136.525Y-92.71
X146.685Y-92.71
X79.375Y-92.71
X89.535Y-92.71
X193.675Y-111.76
X203.835Y-111.76
X98.425Y-130.81
X108.585Y-130.81
X155.575Y-130.81
X165.735Y-130.81
X174.625Y-111.76
X184.785Y-111.76
X155.575Y-73.66
X165.735Y-73.66
X193.675Y-130.81
X203.835Y-130.81
X136.525Y-111.76
X146.685Y-111.76
X136.525Y-73.66
X146.685Y-73.66
X136.525Y-130.81
X146.685Y-130.81
X79.375Y-73.66
X89.535Y-73.66
X117.475Y-73.66
X127.635Y-73.66
X174.625Y-73.66
X184.785Y-73.66
X117.475Y-111.76
X127.635Y-111.76
X193.675Y-92.71
X203.835Y-92.71
T11
X117.055Y-92.71
X128.055Y-92.71
X155.155Y-92.71
X166.155Y-92.71
X136.105Y-92.71
X147.105Y-92.71
X78.955Y-92.71
X89.955Y-92.71
X193.255Y-111.76
X204.255Y-111.76
X98.005Y-130.81
X109.005Y-130.81
X155.155Y-130.81
X166.155Y-130.81
X174.205Y-111.76
X185.205Y-111.76
X155.155Y-73.66
X166.155Y-73.66
X193.255Y-130.81
X204.255Y-130.81
X136.105Y-111.76
X147.105Y-111.76
X136.105Y-73.66
X147.105Y-73.66
X136.105Y-130.81
X147.105Y-130.81
X78.955Y-73.66
X89.955Y-73.66
X117.055Y-73.66
X128.055Y-73.66
X174.205Y-73.66
X185.205Y-73.66
X117.055Y-111.76
X128.055Y-111.76
X193.255Y-92.71
X204.255Y-92.71
X174.205Y-130.81
X185.205Y-130.81
X78.955Y-130.81
X89.955Y-130.81
X98.005Y-111.76
X109.005Y-111.76
X174.205Y-92.71
X185.205Y-92.71
X193.255Y-73.66
X204.255Y-73.66
X98.005Y-92.71
X109.005Y-92.71
X98.005Y-73.66
X109.005Y-73.66
X78.955Y-111.76
X89.955Y-111.76
X155.155Y-111.76
X166.155Y-111.76
X117.055Y-130.81
X128.055Y-130.81
T12
X179.705Y-111.76
X160.655Y-73.66
X198.755Y-130.81
X141.605Y-111.76
X141.605Y-73.66
X141.605Y-130.81
X84.455Y-73.66
X122.555Y-73.66
X179.705Y-73.66
X122.555Y-111.76
X198.755Y-92.71
X179.705Y-130.81
X84.455Y-130.81
X103.505Y-111.76
X179.705Y-92.71
X198.755Y-73.66
X103.505Y-92.71
X103.505Y-73.66
X84.455Y-111.76
X160.655Y-111.76
X122.555Y-130.81
X122.555Y-92.71
X160.655Y-92.71
X141.605Y-92.71
X84.455Y-92.71
X198.755Y-111.76
X103.505Y-130.81
X160.655Y-130.81
T13
X132.08Y-102.235
X189.23Y-83.185
X93.98Y-121.285
X189.23Y-121.285
X93.98Y-83.185
T6
X176.968Y-126.101G85X176.092Y-127.899
G05
X182.442Y-126.101G85X183.318Y-127.899
G05
X81.718Y-126.101G85X80.842Y-127.899
G05
X87.192Y-126.101G85X88.068Y-127.899
G05
X100.768Y-107.051G85X99.892Y-108.849
G05
X106.242Y-107.051G85X107.118Y-108.849
G05
X176.968Y-88.001G85X176.092Y-89.799
G05
X182.442Y-88.001G85X183.318Y-89.799
G05
X196.018Y-68.951G85X195.142Y-70.749
G05
X201.492Y-68.951G85X202.368Y-70.749
G05
X100.768Y-88.001G85X99.892Y-89.799
G05
X106.242Y-88.001G85X107.118Y-89.799
G05
X100.768Y-68.951G85X99.892Y-70.749
G05
X106.242Y-68.951G85X107.118Y-70.749
G05
X81.718Y-107.051G85X80.842Y-108.849
G05
X87.192Y-107.051G85X88.068Y-108.849
G05
X157.918Y-107.051G85X157.042Y-108.849
G05
X163.392Y-107.051G85X164.268Y-108.849
G05
X119.818Y-126.101G85X118.942Y-127.899
G05
X125.292Y-126.101G85X126.168Y-127.899
G05
X119.818Y-88.001G85X118.942Y-89.799
G05
X125.292Y-88.001G85X126.168Y-89.799
G05
X157.918Y-88.001G85X157.042Y-89.799
G05
X163.392Y-88.001G85X164.268Y-89.799
G05
X138.868Y-88.001G85X137.992Y-89.799
G05
X144.342Y-88.001G85X145.218Y-89.799
G05
X81.718Y-88.001G85X80.842Y-89.799
G05
X87.192Y-88.001G85X88.068Y-89.799
G05
X196.018Y-107.051G85X195.142Y-108.849
G05
X201.492Y-107.051G85X202.368Y-108.849
G05
X100.768Y-126.101G85X99.892Y-127.899
G05
X106.242Y-126.101G85X107.118Y-127.899
G05
X157.918Y-126.101G85X157.042Y-127.899
G05
X163.392Y-126.101G85X164.268Y-127.899
G05
X176.968Y-107.051G85X176.092Y-108.849
G05
X182.442Y-107.051G85X183.318Y-108.849
G05
X157.918Y-68.951G85X157.042Y-70.749
G05
X163.392Y-68.951G85X164.268Y-70.749
G05
X196.018Y-126.101G85X195.142Y-127.899
G05
X201.492Y-126.101G85X202.368Y-127.899
G05
X138.868Y-107.051G85X137.992Y-108.849
G05
X144.342Y-107.051G85X145.218Y-108.849
G05
X138.868Y-68.951G85X137.992Y-70.749
G05
X144.342Y-68.951G85X145.218Y-70.749
G05
X138.868Y-126.101G85X137.992Y-127.899
G05
X144.342Y-126.101G85X145.218Y-127.899
G05
X81.718Y-68.951G85X80.842Y-70.749
G05
X87.192Y-68.951G85X88.068Y-70.749
G05
X119.818Y-68.951G85X118.942Y-70.749
G05
X125.292Y-68.951G85X126.168Y-70.749
G05
X176.968Y-68.951G85X176.092Y-70.749
G05
X182.442Y-68.951G85X183.318Y-70.749
G05
X119.818Y-107.051G85X118.942Y-108.849
G05
X125.292Y-107.051G85X126.168Y-108.849
G05
X196.018Y-88.001G85X195.142Y-89.799
G05
X201.492Y-88.001G85X202.368Y-89.799
G05
T0
M30
