G04 #@! TF.FileFunction,Legend,Bot*
%FSLAX46Y46*%
G04 Gerber Fmt 4.6, Leading zero omitted, Abs format (unit mm)*
G04 Created by KiCad (PCBNEW 4.0.7-e2-6376~58~ubuntu16.04.1) date Sun Nov 12 02:32:34 2017*
%MOMM*%
%LPD*%
G01*
G04 APERTURE LIST*
%ADD10C,0.100000*%
%ADD11C,0.150000*%
%ADD12R,2.000000X2.000000*%
%ADD13O,2.000000X2.000000*%
%ADD14C,2.000000*%
%ADD15C,2.900000*%
%ADD16C,4.387810*%
%ADD17C,2.101810*%
%ADD18C,8.400000*%
%ADD19C,1.390600*%
%ADD20C,2.152600*%
%ADD21R,1.924000X1.924000*%
G04 APERTURE END LIST*
D10*
D11*
X178435000Y-48895000D02*
X177165000Y-48895000D01*
X177165000Y-48895000D02*
X177165000Y-47625000D01*
X177165000Y-47625000D02*
X173355000Y-47625000D01*
X173355000Y-47625000D02*
X173355000Y-48895000D01*
X173355000Y-48895000D02*
X172085000Y-48895000D01*
X172085000Y-48895000D02*
X172085000Y-61595000D01*
X172085000Y-61595000D02*
X178435000Y-61595000D01*
X178435000Y-61595000D02*
X178435000Y-48895000D01*
X115570000Y-79375000D02*
X97790000Y-79375000D01*
X97790000Y-79375000D02*
X97790000Y-48895000D01*
X97790000Y-48895000D02*
X102870000Y-48895000D01*
X102870000Y-48895000D02*
X102870000Y-46355000D01*
X102870000Y-46355000D02*
X110490000Y-46355000D01*
X110490000Y-46355000D02*
X110490000Y-48895000D01*
X110490000Y-48895000D02*
X115570000Y-48895000D01*
X115570000Y-48895000D02*
X115570000Y-79375000D01*
%LPC*%
D12*
X78105000Y-62230000D03*
D13*
X78105000Y-52070000D03*
D12*
X78105000Y-83820000D03*
D13*
X78105000Y-73660000D03*
D12*
X78105000Y-100330000D03*
D13*
X78105000Y-90170000D03*
D12*
X78105000Y-121920000D03*
D13*
X78105000Y-111760000D03*
D12*
X83820000Y-67945000D03*
D13*
X93980000Y-67945000D03*
D12*
X82550000Y-86995000D03*
D13*
X92710000Y-86995000D03*
D12*
X97155000Y-101600000D03*
D13*
X97155000Y-91440000D03*
D12*
X97155000Y-120650000D03*
D13*
X97155000Y-110490000D03*
D12*
X130810000Y-67945000D03*
D13*
X120650000Y-67945000D03*
D12*
X100330000Y-86995000D03*
D13*
X110490000Y-86995000D03*
D12*
X116205000Y-102870000D03*
D13*
X116205000Y-92710000D03*
D12*
X116205000Y-120650000D03*
D13*
X116205000Y-110490000D03*
D12*
X135255000Y-63500000D03*
D13*
X135255000Y-53340000D03*
D12*
X135255000Y-82550000D03*
D13*
X135255000Y-72390000D03*
D12*
X135255000Y-101600000D03*
D13*
X135255000Y-91440000D03*
D12*
X135255000Y-120650000D03*
D13*
X135255000Y-110490000D03*
D12*
X154305000Y-63500000D03*
D13*
X154305000Y-53340000D03*
D12*
X154305000Y-82550000D03*
D13*
X154305000Y-72390000D03*
D12*
X154305000Y-101600000D03*
D13*
X154305000Y-91440000D03*
D12*
X154305000Y-120650000D03*
D13*
X154305000Y-110490000D03*
D12*
X157480000Y-67945000D03*
D13*
X167640000Y-67945000D03*
D12*
X173355000Y-83820000D03*
D13*
X173355000Y-73660000D03*
D12*
X173355000Y-100330000D03*
D13*
X173355000Y-90170000D03*
D12*
X173355000Y-121920000D03*
D13*
X173355000Y-111760000D03*
D12*
X179070000Y-67945000D03*
D13*
X189230000Y-67945000D03*
D12*
X179070000Y-86995000D03*
D13*
X189230000Y-86995000D03*
D12*
X179070000Y-106045000D03*
D13*
X189230000Y-106045000D03*
D12*
X179070000Y-125095000D03*
D13*
X189230000Y-125095000D03*
D14*
X120650000Y-50165000D03*
D13*
X130810000Y-50165000D03*
D14*
X139700000Y-50165000D03*
D13*
X149860000Y-50165000D03*
D15*
X66080276Y-53340672D02*
X66119724Y-53919328D01*
X71770184Y-54419693D02*
X72579816Y-55880307D01*
D16*
X68580000Y-58420000D03*
D17*
X63500000Y-58420000D03*
X73660000Y-58420000D03*
D15*
X65580453Y-54420046D02*
X64769547Y-55879954D01*
X71119724Y-53340672D02*
X71080276Y-53919328D01*
X66080276Y-72390672D02*
X66119724Y-72969328D01*
X71770184Y-73469693D02*
X72579816Y-74930307D01*
D16*
X68580000Y-77470000D03*
D17*
X63500000Y-77470000D03*
X73660000Y-77470000D03*
D15*
X65580453Y-73470046D02*
X64769547Y-74929954D01*
X71119724Y-72390672D02*
X71080276Y-72969328D01*
X66080276Y-91440672D02*
X66119724Y-92019328D01*
X71770184Y-92519693D02*
X72579816Y-93980307D01*
D16*
X68580000Y-96520000D03*
D17*
X63500000Y-96520000D03*
X73660000Y-96520000D03*
D15*
X65580453Y-92520046D02*
X64769547Y-93979954D01*
X71119724Y-91440672D02*
X71080276Y-92019328D01*
X66080276Y-110490672D02*
X66119724Y-111069328D01*
X71770184Y-111569693D02*
X72579816Y-113030307D01*
D16*
X68580000Y-115570000D03*
D17*
X63500000Y-115570000D03*
X73660000Y-115570000D03*
D15*
X65580453Y-111570046D02*
X64769547Y-113029954D01*
X71119724Y-110490672D02*
X71080276Y-111069328D01*
X85130276Y-53340672D02*
X85169724Y-53919328D01*
X90820184Y-54419693D02*
X91629816Y-55880307D01*
D16*
X87630000Y-58420000D03*
D17*
X82550000Y-58420000D03*
X92710000Y-58420000D03*
D15*
X84630453Y-54420046D02*
X83819547Y-55879954D01*
X90169724Y-53340672D02*
X90130276Y-53919328D01*
X85130276Y-72390672D02*
X85169724Y-72969328D01*
X90820184Y-73469693D02*
X91629816Y-74930307D01*
D16*
X87630000Y-77470000D03*
D17*
X82550000Y-77470000D03*
X92710000Y-77470000D03*
D15*
X84630453Y-73470046D02*
X83819547Y-74929954D01*
X90169724Y-72390672D02*
X90130276Y-72969328D01*
X85130276Y-91440672D02*
X85169724Y-92019328D01*
X90820184Y-92519693D02*
X91629816Y-93980307D01*
D16*
X87630000Y-96520000D03*
D17*
X82550000Y-96520000D03*
X92710000Y-96520000D03*
D15*
X84630453Y-92520046D02*
X83819547Y-93979954D01*
X90169724Y-91440672D02*
X90130276Y-92019328D01*
X85130276Y-110490672D02*
X85169724Y-111069328D01*
X90820184Y-111569693D02*
X91629816Y-113030307D01*
D16*
X87630000Y-115570000D03*
D17*
X82550000Y-115570000D03*
X92710000Y-115570000D03*
D15*
X84630453Y-111570046D02*
X83819547Y-113029954D01*
X90169724Y-110490672D02*
X90130276Y-111069328D01*
X104180276Y-53340672D02*
X104219724Y-53919328D01*
X109870184Y-54419693D02*
X110679816Y-55880307D01*
D16*
X106680000Y-58420000D03*
D17*
X101600000Y-58420000D03*
X111760000Y-58420000D03*
D15*
X103680453Y-54420046D02*
X102869547Y-55879954D01*
X109219724Y-53340672D02*
X109180276Y-53919328D01*
X104180276Y-72390672D02*
X104219724Y-72969328D01*
X109870184Y-73469693D02*
X110679816Y-74930307D01*
D16*
X106680000Y-77470000D03*
D17*
X101600000Y-77470000D03*
X111760000Y-77470000D03*
D15*
X103680453Y-73470046D02*
X102869547Y-74929954D01*
X109219724Y-72390672D02*
X109180276Y-72969328D01*
X104180276Y-91440672D02*
X104219724Y-92019328D01*
X109870184Y-92519693D02*
X110679816Y-93980307D01*
D16*
X106680000Y-96520000D03*
D17*
X101600000Y-96520000D03*
X111760000Y-96520000D03*
D15*
X103680453Y-92520046D02*
X102869547Y-93979954D01*
X109219724Y-91440672D02*
X109180276Y-92019328D01*
X104180276Y-110490672D02*
X104219724Y-111069328D01*
X109870184Y-111569693D02*
X110679816Y-113030307D01*
D16*
X106680000Y-115570000D03*
D17*
X101600000Y-115570000D03*
X111760000Y-115570000D03*
D15*
X103680453Y-111570046D02*
X102869547Y-113029954D01*
X109219724Y-110490672D02*
X109180276Y-111069328D01*
X123230276Y-53340672D02*
X123269724Y-53919328D01*
X128920184Y-54419693D02*
X129729816Y-55880307D01*
D16*
X125730000Y-58420000D03*
D17*
X120650000Y-58420000D03*
X130810000Y-58420000D03*
D15*
X122730453Y-54420046D02*
X121919547Y-55879954D01*
X128269724Y-53340672D02*
X128230276Y-53919328D01*
X123230276Y-72390672D02*
X123269724Y-72969328D01*
X128920184Y-73469693D02*
X129729816Y-74930307D01*
D16*
X125730000Y-77470000D03*
D17*
X120650000Y-77470000D03*
X130810000Y-77470000D03*
D15*
X122730453Y-73470046D02*
X121919547Y-74929954D01*
X128269724Y-72390672D02*
X128230276Y-72969328D01*
X123230276Y-91440672D02*
X123269724Y-92019328D01*
X128920184Y-92519693D02*
X129729816Y-93980307D01*
D16*
X125730000Y-96520000D03*
D17*
X120650000Y-96520000D03*
X130810000Y-96520000D03*
D15*
X122730453Y-92520046D02*
X121919547Y-93979954D01*
X128269724Y-91440672D02*
X128230276Y-92019328D01*
X123230276Y-110490672D02*
X123269724Y-111069328D01*
X128920184Y-111569693D02*
X129729816Y-113030307D01*
D16*
X125730000Y-115570000D03*
D17*
X120650000Y-115570000D03*
X130810000Y-115570000D03*
D15*
X122730453Y-111570046D02*
X121919547Y-113029954D01*
X128269724Y-110490672D02*
X128230276Y-111069328D01*
X142280276Y-53340672D02*
X142319724Y-53919328D01*
X147970184Y-54419693D02*
X148779816Y-55880307D01*
D16*
X144780000Y-58420000D03*
D17*
X139700000Y-58420000D03*
X149860000Y-58420000D03*
D15*
X141780453Y-54420046D02*
X140969547Y-55879954D01*
X147319724Y-53340672D02*
X147280276Y-53919328D01*
X142280276Y-72390672D02*
X142319724Y-72969328D01*
X147970184Y-73469693D02*
X148779816Y-74930307D01*
D16*
X144780000Y-77470000D03*
D17*
X139700000Y-77470000D03*
X149860000Y-77470000D03*
D15*
X141780453Y-73470046D02*
X140969547Y-74929954D01*
X147319724Y-72390672D02*
X147280276Y-72969328D01*
X142280276Y-91440672D02*
X142319724Y-92019328D01*
X147970184Y-92519693D02*
X148779816Y-93980307D01*
D16*
X144780000Y-96520000D03*
D17*
X139700000Y-96520000D03*
X149860000Y-96520000D03*
D15*
X141780453Y-92520046D02*
X140969547Y-93979954D01*
X147319724Y-91440672D02*
X147280276Y-92019328D01*
X142280276Y-110490672D02*
X142319724Y-111069328D01*
X147970184Y-111569693D02*
X148779816Y-113030307D01*
D16*
X144780000Y-115570000D03*
D17*
X139700000Y-115570000D03*
X149860000Y-115570000D03*
D15*
X141780453Y-111570046D02*
X140969547Y-113029954D01*
X147319724Y-110490672D02*
X147280276Y-111069328D01*
X161330276Y-53340672D02*
X161369724Y-53919328D01*
X167020184Y-54419693D02*
X167829816Y-55880307D01*
D16*
X163830000Y-58420000D03*
D17*
X158750000Y-58420000D03*
X168910000Y-58420000D03*
D15*
X160830453Y-54420046D02*
X160019547Y-55879954D01*
X166369724Y-53340672D02*
X166330276Y-53919328D01*
X161330276Y-72390672D02*
X161369724Y-72969328D01*
X167020184Y-73469693D02*
X167829816Y-74930307D01*
D16*
X163830000Y-77470000D03*
D17*
X158750000Y-77470000D03*
X168910000Y-77470000D03*
D15*
X160830453Y-73470046D02*
X160019547Y-74929954D01*
X166369724Y-72390672D02*
X166330276Y-72969328D01*
X161330276Y-91440672D02*
X161369724Y-92019328D01*
X167020184Y-92519693D02*
X167829816Y-93980307D01*
D16*
X163830000Y-96520000D03*
D17*
X158750000Y-96520000D03*
X168910000Y-96520000D03*
D15*
X160830453Y-92520046D02*
X160019547Y-93979954D01*
X166369724Y-91440672D02*
X166330276Y-92019328D01*
X161330276Y-110490672D02*
X161369724Y-111069328D01*
X167020184Y-111569693D02*
X167829816Y-113030307D01*
D16*
X163830000Y-115570000D03*
D17*
X158750000Y-115570000D03*
X168910000Y-115570000D03*
D15*
X160830453Y-111570046D02*
X160019547Y-113029954D01*
X166369724Y-110490672D02*
X166330276Y-111069328D01*
X180380276Y-53340672D02*
X180419724Y-53919328D01*
X186070184Y-54419693D02*
X186879816Y-55880307D01*
D16*
X182880000Y-58420000D03*
D17*
X177800000Y-58420000D03*
X187960000Y-58420000D03*
D15*
X179880453Y-54420046D02*
X179069547Y-55879954D01*
X185419724Y-53340672D02*
X185380276Y-53919328D01*
X180380276Y-72390672D02*
X180419724Y-72969328D01*
X186070184Y-73469693D02*
X186879816Y-74930307D01*
D16*
X182880000Y-77470000D03*
D17*
X177800000Y-77470000D03*
X187960000Y-77470000D03*
D15*
X179880453Y-73470046D02*
X179069547Y-74929954D01*
X185419724Y-72390672D02*
X185380276Y-72969328D01*
X180380276Y-91440672D02*
X180419724Y-92019328D01*
X186070184Y-92519693D02*
X186879816Y-93980307D01*
D16*
X182880000Y-96520000D03*
D17*
X177800000Y-96520000D03*
X187960000Y-96520000D03*
D15*
X179880453Y-92520046D02*
X179069547Y-93979954D01*
X185419724Y-91440672D02*
X185380276Y-92019328D01*
X180380276Y-110490672D02*
X180419724Y-111069328D01*
X186070184Y-111569693D02*
X186879816Y-113030307D01*
D16*
X182880000Y-115570000D03*
D17*
X177800000Y-115570000D03*
X187960000Y-115570000D03*
D15*
X179880453Y-111570046D02*
X179069547Y-113029954D01*
X185419724Y-110490672D02*
X185380276Y-111069328D01*
D18*
X78105000Y-67945000D03*
X173355000Y-106045000D03*
X173355000Y-67945000D03*
X116205000Y-86995000D03*
X78105000Y-106045000D03*
D19*
X175355000Y-50395000D03*
X171355000Y-50395000D03*
D20*
X173355000Y-55195000D03*
X169355000Y-60695000D03*
X173355000Y-59195000D03*
X177355000Y-60695000D03*
X173355000Y-52195000D03*
D19*
X171355000Y-57395000D03*
X175355000Y-57395000D03*
D12*
X99060000Y-50165000D03*
D14*
X99060000Y-52705000D03*
X99060000Y-55245000D03*
X99060000Y-57785000D03*
X99060000Y-60325000D03*
X99060000Y-62865000D03*
X99060000Y-65405000D03*
X99060000Y-67945000D03*
X99060000Y-70485000D03*
X99060000Y-73025000D03*
X99060000Y-75565000D03*
X99060000Y-78105000D03*
X114300000Y-78105000D03*
X114300000Y-75565000D03*
X114300000Y-73025000D03*
X114300000Y-70485000D03*
X114300000Y-67945000D03*
X114300000Y-65405000D03*
X114300000Y-62865000D03*
X114300000Y-60325000D03*
X114300000Y-57785000D03*
X114300000Y-55245000D03*
X114300000Y-52705000D03*
X114300000Y-50165000D03*
D21*
X134255000Y-50165000D03*
X136255000Y-50165000D03*
M02*
