G04 #@! TF.FileFunction,Legend,Top*
%FSLAX46Y46*%
G04 Gerber Fmt 4.6, Leading zero omitted, Abs format (unit mm)*
G04 Created by KiCad (PCBNEW 4.0.7-e2-6376~58~ubuntu16.04.1) date Mon Nov 13 00:30:39 2017*
%MOMM*%
%LPD*%
G01*
G04 APERTURE LIST*
%ADD10C,0.100000*%
%ADD11C,0.300000*%
%ADD12C,0.120000*%
%ADD13C,0.150000*%
%ADD14R,2.000000X2.000000*%
%ADD15O,2.000000X2.000000*%
%ADD16C,2.000000*%
%ADD17C,2.900000*%
%ADD18C,4.387810*%
%ADD19C,2.101810*%
%ADD20C,8.400000*%
%ADD21C,1.390600*%
%ADD22C,2.152600*%
%ADD23R,1.924000X1.924000*%
G04 APERTURE END LIST*
D10*
D11*
X61247144Y-50057857D02*
X61747144Y-50057857D01*
X61961430Y-50843571D02*
X61247144Y-50843571D01*
X61247144Y-49343571D01*
X61961430Y-49343571D01*
X62604287Y-50843571D02*
X62604287Y-49843571D01*
X62604287Y-50129286D02*
X62675715Y-49986429D01*
X62747144Y-49915000D01*
X62890001Y-49843571D01*
X63032858Y-49843571D01*
X64175715Y-49843571D02*
X64175715Y-51057857D01*
X64104286Y-51200714D01*
X64032858Y-51272143D01*
X63890001Y-51343571D01*
X63675715Y-51343571D01*
X63532858Y-51272143D01*
X64175715Y-50772143D02*
X64032858Y-50843571D01*
X63747144Y-50843571D01*
X63604286Y-50772143D01*
X63532858Y-50700714D01*
X63461429Y-50557857D01*
X63461429Y-50129286D01*
X63532858Y-49986429D01*
X63604286Y-49915000D01*
X63747144Y-49843571D01*
X64032858Y-49843571D01*
X64175715Y-49915000D01*
X65104287Y-50843571D02*
X64961429Y-50772143D01*
X64890001Y-50700714D01*
X64818572Y-50557857D01*
X64818572Y-50129286D01*
X64890001Y-49986429D01*
X64961429Y-49915000D01*
X65104287Y-49843571D01*
X65318572Y-49843571D01*
X65461429Y-49915000D01*
X65532858Y-49986429D01*
X65604287Y-50129286D01*
X65604287Y-50557857D01*
X65532858Y-50700714D01*
X65461429Y-50772143D01*
X65318572Y-50843571D01*
X65104287Y-50843571D01*
X66890001Y-49843571D02*
X66890001Y-50843571D01*
X66532858Y-49272143D02*
X66175715Y-50343571D01*
X67104287Y-50343571D01*
X67604286Y-49486429D02*
X67675715Y-49415000D01*
X67818572Y-49343571D01*
X68175715Y-49343571D01*
X68318572Y-49415000D01*
X68390001Y-49486429D01*
X68461429Y-49629286D01*
X68461429Y-49772143D01*
X68390001Y-49986429D01*
X67532858Y-50843571D01*
X68461429Y-50843571D01*
X70247143Y-50843571D02*
X70247143Y-49343571D01*
X70247143Y-49915000D02*
X70390000Y-49843571D01*
X70675714Y-49843571D01*
X70818571Y-49915000D01*
X70890000Y-49986429D01*
X70961429Y-50129286D01*
X70961429Y-50557857D01*
X70890000Y-50700714D01*
X70818571Y-50772143D01*
X70675714Y-50843571D01*
X70390000Y-50843571D01*
X70247143Y-50772143D01*
X71461429Y-49843571D02*
X71818572Y-50843571D01*
X72175714Y-49843571D02*
X71818572Y-50843571D01*
X71675714Y-51200714D01*
X71604286Y-51272143D01*
X71461429Y-51343571D01*
X74390000Y-50057857D02*
X74604286Y-50129286D01*
X74675714Y-50200714D01*
X74747143Y-50343571D01*
X74747143Y-50557857D01*
X74675714Y-50700714D01*
X74604286Y-50772143D01*
X74461428Y-50843571D01*
X73890000Y-50843571D01*
X73890000Y-49343571D01*
X74390000Y-49343571D01*
X74532857Y-49415000D01*
X74604286Y-49486429D01*
X74675714Y-49629286D01*
X74675714Y-49772143D01*
X74604286Y-49915000D01*
X74532857Y-49986429D01*
X74390000Y-50057857D01*
X73890000Y-50057857D01*
X75390000Y-50843571D02*
X75390000Y-49843571D01*
X75390000Y-49343571D02*
X75318571Y-49415000D01*
X75390000Y-49486429D01*
X75461428Y-49415000D01*
X75390000Y-49343571D01*
X75390000Y-49486429D01*
X76747143Y-50843571D02*
X76747143Y-50057857D01*
X76675714Y-49915000D01*
X76532857Y-49843571D01*
X76247143Y-49843571D01*
X76104286Y-49915000D01*
X76747143Y-50772143D02*
X76604286Y-50843571D01*
X76247143Y-50843571D01*
X76104286Y-50772143D01*
X76032857Y-50629286D01*
X76032857Y-50486429D01*
X76104286Y-50343571D01*
X76247143Y-50272143D01*
X76604286Y-50272143D01*
X76747143Y-50200714D01*
X78104286Y-50772143D02*
X77961429Y-50843571D01*
X77675715Y-50843571D01*
X77532857Y-50772143D01*
X77461429Y-50700714D01*
X77390000Y-50557857D01*
X77390000Y-50129286D01*
X77461429Y-49986429D01*
X77532857Y-49915000D01*
X77675715Y-49843571D01*
X77961429Y-49843571D01*
X78104286Y-49915000D01*
X79390000Y-50772143D02*
X79247143Y-50843571D01*
X78961429Y-50843571D01*
X78818571Y-50772143D01*
X78747143Y-50700714D01*
X78675714Y-50557857D01*
X78675714Y-50129286D01*
X78747143Y-49986429D01*
X78818571Y-49915000D01*
X78961429Y-49843571D01*
X79247143Y-49843571D01*
X79390000Y-49915000D01*
X80247143Y-50843571D02*
X80104285Y-50772143D01*
X80032857Y-50700714D01*
X79961428Y-50557857D01*
X79961428Y-50129286D01*
X80032857Y-49986429D01*
X80104285Y-49915000D01*
X80247143Y-49843571D01*
X80461428Y-49843571D01*
X80604285Y-49915000D01*
X80675714Y-49986429D01*
X80747143Y-50129286D01*
X80747143Y-50557857D01*
X80675714Y-50700714D01*
X80604285Y-50772143D01*
X80461428Y-50843571D01*
X80247143Y-50843571D01*
X82032857Y-49843571D02*
X82032857Y-50843571D01*
X81675714Y-49272143D02*
X81318571Y-50343571D01*
X82247143Y-50343571D01*
X82747142Y-49486429D02*
X82818571Y-49415000D01*
X82961428Y-49343571D01*
X83318571Y-49343571D01*
X83461428Y-49415000D01*
X83532857Y-49486429D01*
X83604285Y-49629286D01*
X83604285Y-49772143D01*
X83532857Y-49986429D01*
X82675714Y-50843571D01*
X83604285Y-50843571D01*
D12*
X77045000Y-59210000D02*
X79165000Y-59210000D01*
X79165000Y-59210000D02*
X79165000Y-55090000D01*
X79165000Y-55090000D02*
X77045000Y-55090000D01*
X77045000Y-55090000D02*
X77045000Y-59210000D01*
X78105000Y-61250000D02*
X78105000Y-59210000D01*
X78105000Y-53050000D02*
X78105000Y-55090000D01*
X77045000Y-58550000D02*
X79165000Y-58550000D01*
X77045000Y-80800000D02*
X79165000Y-80800000D01*
X79165000Y-80800000D02*
X79165000Y-76680000D01*
X79165000Y-76680000D02*
X77045000Y-76680000D01*
X77045000Y-76680000D02*
X77045000Y-80800000D01*
X78105000Y-82840000D02*
X78105000Y-80800000D01*
X78105000Y-74640000D02*
X78105000Y-76680000D01*
X77045000Y-80140000D02*
X79165000Y-80140000D01*
X77045000Y-97310000D02*
X79165000Y-97310000D01*
X79165000Y-97310000D02*
X79165000Y-93190000D01*
X79165000Y-93190000D02*
X77045000Y-93190000D01*
X77045000Y-93190000D02*
X77045000Y-97310000D01*
X78105000Y-99350000D02*
X78105000Y-97310000D01*
X78105000Y-91150000D02*
X78105000Y-93190000D01*
X77045000Y-96650000D02*
X79165000Y-96650000D01*
X77045000Y-118900000D02*
X79165000Y-118900000D01*
X79165000Y-118900000D02*
X79165000Y-114780000D01*
X79165000Y-114780000D02*
X77045000Y-114780000D01*
X77045000Y-114780000D02*
X77045000Y-118900000D01*
X78105000Y-120940000D02*
X78105000Y-118900000D01*
X78105000Y-112740000D02*
X78105000Y-114780000D01*
X77045000Y-118240000D02*
X79165000Y-118240000D01*
X86840000Y-66885000D02*
X86840000Y-69005000D01*
X86840000Y-69005000D02*
X90960000Y-69005000D01*
X90960000Y-69005000D02*
X90960000Y-66885000D01*
X90960000Y-66885000D02*
X86840000Y-66885000D01*
X84800000Y-67945000D02*
X86840000Y-67945000D01*
X93000000Y-67945000D02*
X90960000Y-67945000D01*
X87500000Y-66885000D02*
X87500000Y-69005000D01*
X85570000Y-85935000D02*
X85570000Y-88055000D01*
X85570000Y-88055000D02*
X89690000Y-88055000D01*
X89690000Y-88055000D02*
X89690000Y-85935000D01*
X89690000Y-85935000D02*
X85570000Y-85935000D01*
X83530000Y-86995000D02*
X85570000Y-86995000D01*
X91730000Y-86995000D02*
X89690000Y-86995000D01*
X86230000Y-85935000D02*
X86230000Y-88055000D01*
X96095000Y-98580000D02*
X98215000Y-98580000D01*
X98215000Y-98580000D02*
X98215000Y-94460000D01*
X98215000Y-94460000D02*
X96095000Y-94460000D01*
X96095000Y-94460000D02*
X96095000Y-98580000D01*
X97155000Y-100620000D02*
X97155000Y-98580000D01*
X97155000Y-92420000D02*
X97155000Y-94460000D01*
X96095000Y-97920000D02*
X98215000Y-97920000D01*
X96095000Y-117630000D02*
X98215000Y-117630000D01*
X98215000Y-117630000D02*
X98215000Y-113510000D01*
X98215000Y-113510000D02*
X96095000Y-113510000D01*
X96095000Y-113510000D02*
X96095000Y-117630000D01*
X97155000Y-119670000D02*
X97155000Y-117630000D01*
X97155000Y-111470000D02*
X97155000Y-113510000D01*
X96095000Y-116970000D02*
X98215000Y-116970000D01*
X127790000Y-69005000D02*
X127790000Y-66885000D01*
X127790000Y-66885000D02*
X123670000Y-66885000D01*
X123670000Y-66885000D02*
X123670000Y-69005000D01*
X123670000Y-69005000D02*
X127790000Y-69005000D01*
X129830000Y-67945000D02*
X127790000Y-67945000D01*
X121630000Y-67945000D02*
X123670000Y-67945000D01*
X127130000Y-69005000D02*
X127130000Y-66885000D01*
X103350000Y-85935000D02*
X103350000Y-88055000D01*
X103350000Y-88055000D02*
X107470000Y-88055000D01*
X107470000Y-88055000D02*
X107470000Y-85935000D01*
X107470000Y-85935000D02*
X103350000Y-85935000D01*
X101310000Y-86995000D02*
X103350000Y-86995000D01*
X109510000Y-86995000D02*
X107470000Y-86995000D01*
X104010000Y-85935000D02*
X104010000Y-88055000D01*
X115145000Y-99850000D02*
X117265000Y-99850000D01*
X117265000Y-99850000D02*
X117265000Y-95730000D01*
X117265000Y-95730000D02*
X115145000Y-95730000D01*
X115145000Y-95730000D02*
X115145000Y-99850000D01*
X116205000Y-101890000D02*
X116205000Y-99850000D01*
X116205000Y-93690000D02*
X116205000Y-95730000D01*
X115145000Y-99190000D02*
X117265000Y-99190000D01*
X115145000Y-117630000D02*
X117265000Y-117630000D01*
X117265000Y-117630000D02*
X117265000Y-113510000D01*
X117265000Y-113510000D02*
X115145000Y-113510000D01*
X115145000Y-113510000D02*
X115145000Y-117630000D01*
X116205000Y-119670000D02*
X116205000Y-117630000D01*
X116205000Y-111470000D02*
X116205000Y-113510000D01*
X115145000Y-116970000D02*
X117265000Y-116970000D01*
X134195000Y-60480000D02*
X136315000Y-60480000D01*
X136315000Y-60480000D02*
X136315000Y-56360000D01*
X136315000Y-56360000D02*
X134195000Y-56360000D01*
X134195000Y-56360000D02*
X134195000Y-60480000D01*
X135255000Y-62520000D02*
X135255000Y-60480000D01*
X135255000Y-54320000D02*
X135255000Y-56360000D01*
X134195000Y-59820000D02*
X136315000Y-59820000D01*
X134195000Y-79530000D02*
X136315000Y-79530000D01*
X136315000Y-79530000D02*
X136315000Y-75410000D01*
X136315000Y-75410000D02*
X134195000Y-75410000D01*
X134195000Y-75410000D02*
X134195000Y-79530000D01*
X135255000Y-81570000D02*
X135255000Y-79530000D01*
X135255000Y-73370000D02*
X135255000Y-75410000D01*
X134195000Y-78870000D02*
X136315000Y-78870000D01*
X134195000Y-98580000D02*
X136315000Y-98580000D01*
X136315000Y-98580000D02*
X136315000Y-94460000D01*
X136315000Y-94460000D02*
X134195000Y-94460000D01*
X134195000Y-94460000D02*
X134195000Y-98580000D01*
X135255000Y-100620000D02*
X135255000Y-98580000D01*
X135255000Y-92420000D02*
X135255000Y-94460000D01*
X134195000Y-97920000D02*
X136315000Y-97920000D01*
X134195000Y-117630000D02*
X136315000Y-117630000D01*
X136315000Y-117630000D02*
X136315000Y-113510000D01*
X136315000Y-113510000D02*
X134195000Y-113510000D01*
X134195000Y-113510000D02*
X134195000Y-117630000D01*
X135255000Y-119670000D02*
X135255000Y-117630000D01*
X135255000Y-111470000D02*
X135255000Y-113510000D01*
X134195000Y-116970000D02*
X136315000Y-116970000D01*
X153245000Y-60480000D02*
X155365000Y-60480000D01*
X155365000Y-60480000D02*
X155365000Y-56360000D01*
X155365000Y-56360000D02*
X153245000Y-56360000D01*
X153245000Y-56360000D02*
X153245000Y-60480000D01*
X154305000Y-62520000D02*
X154305000Y-60480000D01*
X154305000Y-54320000D02*
X154305000Y-56360000D01*
X153245000Y-59820000D02*
X155365000Y-59820000D01*
X153245000Y-79530000D02*
X155365000Y-79530000D01*
X155365000Y-79530000D02*
X155365000Y-75410000D01*
X155365000Y-75410000D02*
X153245000Y-75410000D01*
X153245000Y-75410000D02*
X153245000Y-79530000D01*
X154305000Y-81570000D02*
X154305000Y-79530000D01*
X154305000Y-73370000D02*
X154305000Y-75410000D01*
X153245000Y-78870000D02*
X155365000Y-78870000D01*
X153245000Y-98580000D02*
X155365000Y-98580000D01*
X155365000Y-98580000D02*
X155365000Y-94460000D01*
X155365000Y-94460000D02*
X153245000Y-94460000D01*
X153245000Y-94460000D02*
X153245000Y-98580000D01*
X154305000Y-100620000D02*
X154305000Y-98580000D01*
X154305000Y-92420000D02*
X154305000Y-94460000D01*
X153245000Y-97920000D02*
X155365000Y-97920000D01*
X153245000Y-117630000D02*
X155365000Y-117630000D01*
X155365000Y-117630000D02*
X155365000Y-113510000D01*
X155365000Y-113510000D02*
X153245000Y-113510000D01*
X153245000Y-113510000D02*
X153245000Y-117630000D01*
X154305000Y-119670000D02*
X154305000Y-117630000D01*
X154305000Y-111470000D02*
X154305000Y-113510000D01*
X153245000Y-116970000D02*
X155365000Y-116970000D01*
X160500000Y-66885000D02*
X160500000Y-69005000D01*
X160500000Y-69005000D02*
X164620000Y-69005000D01*
X164620000Y-69005000D02*
X164620000Y-66885000D01*
X164620000Y-66885000D02*
X160500000Y-66885000D01*
X158460000Y-67945000D02*
X160500000Y-67945000D01*
X166660000Y-67945000D02*
X164620000Y-67945000D01*
X161160000Y-66885000D02*
X161160000Y-69005000D01*
X172295000Y-80800000D02*
X174415000Y-80800000D01*
X174415000Y-80800000D02*
X174415000Y-76680000D01*
X174415000Y-76680000D02*
X172295000Y-76680000D01*
X172295000Y-76680000D02*
X172295000Y-80800000D01*
X173355000Y-82840000D02*
X173355000Y-80800000D01*
X173355000Y-74640000D02*
X173355000Y-76680000D01*
X172295000Y-80140000D02*
X174415000Y-80140000D01*
X172295000Y-97310000D02*
X174415000Y-97310000D01*
X174415000Y-97310000D02*
X174415000Y-93190000D01*
X174415000Y-93190000D02*
X172295000Y-93190000D01*
X172295000Y-93190000D02*
X172295000Y-97310000D01*
X173355000Y-99350000D02*
X173355000Y-97310000D01*
X173355000Y-91150000D02*
X173355000Y-93190000D01*
X172295000Y-96650000D02*
X174415000Y-96650000D01*
X172295000Y-118900000D02*
X174415000Y-118900000D01*
X174415000Y-118900000D02*
X174415000Y-114780000D01*
X174415000Y-114780000D02*
X172295000Y-114780000D01*
X172295000Y-114780000D02*
X172295000Y-118900000D01*
X173355000Y-120940000D02*
X173355000Y-118900000D01*
X173355000Y-112740000D02*
X173355000Y-114780000D01*
X172295000Y-118240000D02*
X174415000Y-118240000D01*
X182090000Y-66885000D02*
X182090000Y-69005000D01*
X182090000Y-69005000D02*
X186210000Y-69005000D01*
X186210000Y-69005000D02*
X186210000Y-66885000D01*
X186210000Y-66885000D02*
X182090000Y-66885000D01*
X180050000Y-67945000D02*
X182090000Y-67945000D01*
X188250000Y-67945000D02*
X186210000Y-67945000D01*
X182750000Y-66885000D02*
X182750000Y-69005000D01*
X182090000Y-85935000D02*
X182090000Y-88055000D01*
X182090000Y-88055000D02*
X186210000Y-88055000D01*
X186210000Y-88055000D02*
X186210000Y-85935000D01*
X186210000Y-85935000D02*
X182090000Y-85935000D01*
X180050000Y-86995000D02*
X182090000Y-86995000D01*
X188250000Y-86995000D02*
X186210000Y-86995000D01*
X182750000Y-85935000D02*
X182750000Y-88055000D01*
X182090000Y-104985000D02*
X182090000Y-107105000D01*
X182090000Y-107105000D02*
X186210000Y-107105000D01*
X186210000Y-107105000D02*
X186210000Y-104985000D01*
X186210000Y-104985000D02*
X182090000Y-104985000D01*
X180050000Y-106045000D02*
X182090000Y-106045000D01*
X188250000Y-106045000D02*
X186210000Y-106045000D01*
X182750000Y-104985000D02*
X182750000Y-107105000D01*
X182090000Y-124035000D02*
X182090000Y-126155000D01*
X182090000Y-126155000D02*
X186210000Y-126155000D01*
X186210000Y-126155000D02*
X186210000Y-124035000D01*
X186210000Y-124035000D02*
X182090000Y-124035000D01*
X180050000Y-125095000D02*
X182090000Y-125095000D01*
X188250000Y-125095000D02*
X186210000Y-125095000D01*
X182750000Y-124035000D02*
X182750000Y-126155000D01*
X122520000Y-48855000D02*
X122520000Y-51475000D01*
X122520000Y-51475000D02*
X128940000Y-51475000D01*
X128940000Y-51475000D02*
X128940000Y-48855000D01*
X128940000Y-48855000D02*
X122520000Y-48855000D01*
X121630000Y-50165000D02*
X122520000Y-50165000D01*
X129830000Y-50165000D02*
X128940000Y-50165000D01*
X141570000Y-48855000D02*
X141570000Y-51475000D01*
X141570000Y-51475000D02*
X147990000Y-51475000D01*
X147990000Y-51475000D02*
X147990000Y-48855000D01*
X147990000Y-48855000D02*
X141570000Y-48855000D01*
X140680000Y-50165000D02*
X141570000Y-50165000D01*
X148880000Y-50165000D02*
X147990000Y-50165000D01*
D13*
X81951882Y-67945000D02*
G75*
G03X81951882Y-67945000I-3846882J0D01*
G01*
X177201882Y-106045000D02*
G75*
G03X177201882Y-106045000I-3846882J0D01*
G01*
X177201882Y-67945000D02*
G75*
G03X177201882Y-67945000I-3846882J0D01*
G01*
X120051882Y-86995000D02*
G75*
G03X120051882Y-86995000I-3846882J0D01*
G01*
X81951882Y-106045000D02*
G75*
G03X81951882Y-106045000I-3846882J0D01*
G01*
X168275000Y-48895000D02*
X168275000Y-61595000D01*
X168275000Y-61595000D02*
X174625000Y-61595000D01*
X174625000Y-61595000D02*
X174625000Y-48895000D01*
X174625000Y-48895000D02*
X173355000Y-48895000D01*
X173355000Y-48895000D02*
X173355000Y-47625000D01*
X173355000Y-47625000D02*
X169545000Y-47625000D01*
X169545000Y-47625000D02*
X169545000Y-48895000D01*
X169545000Y-48895000D02*
X168275000Y-48895000D01*
X97790000Y-48895000D02*
X97790000Y-79375000D01*
X97790000Y-48895000D02*
X102870000Y-48895000D01*
X102870000Y-48895000D02*
X102870000Y-46355000D01*
X102870000Y-46355000D02*
X110490000Y-46355000D01*
X110490000Y-46355000D02*
X110490000Y-48895000D01*
X110490000Y-48895000D02*
X115570000Y-48895000D01*
X115570000Y-48895000D02*
X115570000Y-79375000D01*
X115570000Y-79375000D02*
X97790000Y-79375000D01*
X133350000Y-48895000D02*
X133350000Y-51435000D01*
X133350000Y-51435000D02*
X137160000Y-51435000D01*
X137160000Y-51435000D02*
X137160000Y-48895000D01*
X137160000Y-48895000D02*
X133350000Y-48895000D01*
X76497381Y-57888095D02*
X75497381Y-57888095D01*
X75497381Y-57650000D01*
X75545000Y-57507142D01*
X75640238Y-57411904D01*
X75735476Y-57364285D01*
X75925952Y-57316666D01*
X76068810Y-57316666D01*
X76259286Y-57364285D01*
X76354524Y-57411904D01*
X76449762Y-57507142D01*
X76497381Y-57650000D01*
X76497381Y-57888095D01*
X76497381Y-56364285D02*
X76497381Y-56935714D01*
X76497381Y-56650000D02*
X75497381Y-56650000D01*
X75640238Y-56745238D01*
X75735476Y-56840476D01*
X75783095Y-56935714D01*
X76497381Y-79478095D02*
X75497381Y-79478095D01*
X75497381Y-79240000D01*
X75545000Y-79097142D01*
X75640238Y-79001904D01*
X75735476Y-78954285D01*
X75925952Y-78906666D01*
X76068810Y-78906666D01*
X76259286Y-78954285D01*
X76354524Y-79001904D01*
X76449762Y-79097142D01*
X76497381Y-79240000D01*
X76497381Y-79478095D01*
X75592619Y-78525714D02*
X75545000Y-78478095D01*
X75497381Y-78382857D01*
X75497381Y-78144761D01*
X75545000Y-78049523D01*
X75592619Y-78001904D01*
X75687857Y-77954285D01*
X75783095Y-77954285D01*
X75925952Y-78001904D01*
X76497381Y-78573333D01*
X76497381Y-77954285D01*
X76497381Y-95988095D02*
X75497381Y-95988095D01*
X75497381Y-95750000D01*
X75545000Y-95607142D01*
X75640238Y-95511904D01*
X75735476Y-95464285D01*
X75925952Y-95416666D01*
X76068810Y-95416666D01*
X76259286Y-95464285D01*
X76354524Y-95511904D01*
X76449762Y-95607142D01*
X76497381Y-95750000D01*
X76497381Y-95988095D01*
X75497381Y-95083333D02*
X75497381Y-94464285D01*
X75878333Y-94797619D01*
X75878333Y-94654761D01*
X75925952Y-94559523D01*
X75973571Y-94511904D01*
X76068810Y-94464285D01*
X76306905Y-94464285D01*
X76402143Y-94511904D01*
X76449762Y-94559523D01*
X76497381Y-94654761D01*
X76497381Y-94940476D01*
X76449762Y-95035714D01*
X76402143Y-95083333D01*
X76497381Y-117578095D02*
X75497381Y-117578095D01*
X75497381Y-117340000D01*
X75545000Y-117197142D01*
X75640238Y-117101904D01*
X75735476Y-117054285D01*
X75925952Y-117006666D01*
X76068810Y-117006666D01*
X76259286Y-117054285D01*
X76354524Y-117101904D01*
X76449762Y-117197142D01*
X76497381Y-117340000D01*
X76497381Y-117578095D01*
X75830714Y-116149523D02*
X76497381Y-116149523D01*
X75449762Y-116387619D02*
X76164048Y-116625714D01*
X76164048Y-116006666D01*
X88161905Y-66337381D02*
X88161905Y-65337381D01*
X88400000Y-65337381D01*
X88542858Y-65385000D01*
X88638096Y-65480238D01*
X88685715Y-65575476D01*
X88733334Y-65765952D01*
X88733334Y-65908810D01*
X88685715Y-66099286D01*
X88638096Y-66194524D01*
X88542858Y-66289762D01*
X88400000Y-66337381D01*
X88161905Y-66337381D01*
X89638096Y-65337381D02*
X89161905Y-65337381D01*
X89114286Y-65813571D01*
X89161905Y-65765952D01*
X89257143Y-65718333D01*
X89495239Y-65718333D01*
X89590477Y-65765952D01*
X89638096Y-65813571D01*
X89685715Y-65908810D01*
X89685715Y-66146905D01*
X89638096Y-66242143D01*
X89590477Y-66289762D01*
X89495239Y-66337381D01*
X89257143Y-66337381D01*
X89161905Y-66289762D01*
X89114286Y-66242143D01*
X86891905Y-85387381D02*
X86891905Y-84387381D01*
X87130000Y-84387381D01*
X87272858Y-84435000D01*
X87368096Y-84530238D01*
X87415715Y-84625476D01*
X87463334Y-84815952D01*
X87463334Y-84958810D01*
X87415715Y-85149286D01*
X87368096Y-85244524D01*
X87272858Y-85339762D01*
X87130000Y-85387381D01*
X86891905Y-85387381D01*
X88320477Y-84387381D02*
X88130000Y-84387381D01*
X88034762Y-84435000D01*
X87987143Y-84482619D01*
X87891905Y-84625476D01*
X87844286Y-84815952D01*
X87844286Y-85196905D01*
X87891905Y-85292143D01*
X87939524Y-85339762D01*
X88034762Y-85387381D01*
X88225239Y-85387381D01*
X88320477Y-85339762D01*
X88368096Y-85292143D01*
X88415715Y-85196905D01*
X88415715Y-84958810D01*
X88368096Y-84863571D01*
X88320477Y-84815952D01*
X88225239Y-84768333D01*
X88034762Y-84768333D01*
X87939524Y-84815952D01*
X87891905Y-84863571D01*
X87844286Y-84958810D01*
X95547381Y-97258095D02*
X94547381Y-97258095D01*
X94547381Y-97020000D01*
X94595000Y-96877142D01*
X94690238Y-96781904D01*
X94785476Y-96734285D01*
X94975952Y-96686666D01*
X95118810Y-96686666D01*
X95309286Y-96734285D01*
X95404524Y-96781904D01*
X95499762Y-96877142D01*
X95547381Y-97020000D01*
X95547381Y-97258095D01*
X94547381Y-96353333D02*
X94547381Y-95686666D01*
X95547381Y-96115238D01*
X95547381Y-116308095D02*
X94547381Y-116308095D01*
X94547381Y-116070000D01*
X94595000Y-115927142D01*
X94690238Y-115831904D01*
X94785476Y-115784285D01*
X94975952Y-115736666D01*
X95118810Y-115736666D01*
X95309286Y-115784285D01*
X95404524Y-115831904D01*
X95499762Y-115927142D01*
X95547381Y-116070000D01*
X95547381Y-116308095D01*
X94975952Y-115165238D02*
X94928333Y-115260476D01*
X94880714Y-115308095D01*
X94785476Y-115355714D01*
X94737857Y-115355714D01*
X94642619Y-115308095D01*
X94595000Y-115260476D01*
X94547381Y-115165238D01*
X94547381Y-114974761D01*
X94595000Y-114879523D01*
X94642619Y-114831904D01*
X94737857Y-114784285D01*
X94785476Y-114784285D01*
X94880714Y-114831904D01*
X94928333Y-114879523D01*
X94975952Y-114974761D01*
X94975952Y-115165238D01*
X95023571Y-115260476D01*
X95071190Y-115308095D01*
X95166429Y-115355714D01*
X95356905Y-115355714D01*
X95452143Y-115308095D01*
X95499762Y-115260476D01*
X95547381Y-115165238D01*
X95547381Y-114974761D01*
X95499762Y-114879523D01*
X95452143Y-114831904D01*
X95356905Y-114784285D01*
X95166429Y-114784285D01*
X95071190Y-114831904D01*
X95023571Y-114879523D01*
X94975952Y-114974761D01*
X124991905Y-70457381D02*
X124991905Y-69457381D01*
X125230000Y-69457381D01*
X125372858Y-69505000D01*
X125468096Y-69600238D01*
X125515715Y-69695476D01*
X125563334Y-69885952D01*
X125563334Y-70028810D01*
X125515715Y-70219286D01*
X125468096Y-70314524D01*
X125372858Y-70409762D01*
X125230000Y-70457381D01*
X124991905Y-70457381D01*
X126039524Y-70457381D02*
X126230000Y-70457381D01*
X126325239Y-70409762D01*
X126372858Y-70362143D01*
X126468096Y-70219286D01*
X126515715Y-70028810D01*
X126515715Y-69647857D01*
X126468096Y-69552619D01*
X126420477Y-69505000D01*
X126325239Y-69457381D01*
X126134762Y-69457381D01*
X126039524Y-69505000D01*
X125991905Y-69552619D01*
X125944286Y-69647857D01*
X125944286Y-69885952D01*
X125991905Y-69981190D01*
X126039524Y-70028810D01*
X126134762Y-70076429D01*
X126325239Y-70076429D01*
X126420477Y-70028810D01*
X126468096Y-69981190D01*
X126515715Y-69885952D01*
X104195714Y-85387381D02*
X104195714Y-84387381D01*
X104433809Y-84387381D01*
X104576667Y-84435000D01*
X104671905Y-84530238D01*
X104719524Y-84625476D01*
X104767143Y-84815952D01*
X104767143Y-84958810D01*
X104719524Y-85149286D01*
X104671905Y-85244524D01*
X104576667Y-85339762D01*
X104433809Y-85387381D01*
X104195714Y-85387381D01*
X105719524Y-85387381D02*
X105148095Y-85387381D01*
X105433809Y-85387381D02*
X105433809Y-84387381D01*
X105338571Y-84530238D01*
X105243333Y-84625476D01*
X105148095Y-84673095D01*
X106338571Y-84387381D02*
X106433810Y-84387381D01*
X106529048Y-84435000D01*
X106576667Y-84482619D01*
X106624286Y-84577857D01*
X106671905Y-84768333D01*
X106671905Y-85006429D01*
X106624286Y-85196905D01*
X106576667Y-85292143D01*
X106529048Y-85339762D01*
X106433810Y-85387381D01*
X106338571Y-85387381D01*
X106243333Y-85339762D01*
X106195714Y-85292143D01*
X106148095Y-85196905D01*
X106100476Y-85006429D01*
X106100476Y-84768333D01*
X106148095Y-84577857D01*
X106195714Y-84482619D01*
X106243333Y-84435000D01*
X106338571Y-84387381D01*
X114597381Y-99004286D02*
X113597381Y-99004286D01*
X113597381Y-98766191D01*
X113645000Y-98623333D01*
X113740238Y-98528095D01*
X113835476Y-98480476D01*
X114025952Y-98432857D01*
X114168810Y-98432857D01*
X114359286Y-98480476D01*
X114454524Y-98528095D01*
X114549762Y-98623333D01*
X114597381Y-98766191D01*
X114597381Y-99004286D01*
X114597381Y-97480476D02*
X114597381Y-98051905D01*
X114597381Y-97766191D02*
X113597381Y-97766191D01*
X113740238Y-97861429D01*
X113835476Y-97956667D01*
X113883095Y-98051905D01*
X114597381Y-96528095D02*
X114597381Y-97099524D01*
X114597381Y-96813810D02*
X113597381Y-96813810D01*
X113740238Y-96909048D01*
X113835476Y-97004286D01*
X113883095Y-97099524D01*
X114597381Y-116784286D02*
X113597381Y-116784286D01*
X113597381Y-116546191D01*
X113645000Y-116403333D01*
X113740238Y-116308095D01*
X113835476Y-116260476D01*
X114025952Y-116212857D01*
X114168810Y-116212857D01*
X114359286Y-116260476D01*
X114454524Y-116308095D01*
X114549762Y-116403333D01*
X114597381Y-116546191D01*
X114597381Y-116784286D01*
X114597381Y-115260476D02*
X114597381Y-115831905D01*
X114597381Y-115546191D02*
X113597381Y-115546191D01*
X113740238Y-115641429D01*
X113835476Y-115736667D01*
X113883095Y-115831905D01*
X113692619Y-114879524D02*
X113645000Y-114831905D01*
X113597381Y-114736667D01*
X113597381Y-114498571D01*
X113645000Y-114403333D01*
X113692619Y-114355714D01*
X113787857Y-114308095D01*
X113883095Y-114308095D01*
X114025952Y-114355714D01*
X114597381Y-114927143D01*
X114597381Y-114308095D01*
X133647381Y-59634286D02*
X132647381Y-59634286D01*
X132647381Y-59396191D01*
X132695000Y-59253333D01*
X132790238Y-59158095D01*
X132885476Y-59110476D01*
X133075952Y-59062857D01*
X133218810Y-59062857D01*
X133409286Y-59110476D01*
X133504524Y-59158095D01*
X133599762Y-59253333D01*
X133647381Y-59396191D01*
X133647381Y-59634286D01*
X133647381Y-58110476D02*
X133647381Y-58681905D01*
X133647381Y-58396191D02*
X132647381Y-58396191D01*
X132790238Y-58491429D01*
X132885476Y-58586667D01*
X132933095Y-58681905D01*
X132647381Y-57777143D02*
X132647381Y-57158095D01*
X133028333Y-57491429D01*
X133028333Y-57348571D01*
X133075952Y-57253333D01*
X133123571Y-57205714D01*
X133218810Y-57158095D01*
X133456905Y-57158095D01*
X133552143Y-57205714D01*
X133599762Y-57253333D01*
X133647381Y-57348571D01*
X133647381Y-57634286D01*
X133599762Y-57729524D01*
X133552143Y-57777143D01*
X133647381Y-78684286D02*
X132647381Y-78684286D01*
X132647381Y-78446191D01*
X132695000Y-78303333D01*
X132790238Y-78208095D01*
X132885476Y-78160476D01*
X133075952Y-78112857D01*
X133218810Y-78112857D01*
X133409286Y-78160476D01*
X133504524Y-78208095D01*
X133599762Y-78303333D01*
X133647381Y-78446191D01*
X133647381Y-78684286D01*
X133647381Y-77160476D02*
X133647381Y-77731905D01*
X133647381Y-77446191D02*
X132647381Y-77446191D01*
X132790238Y-77541429D01*
X132885476Y-77636667D01*
X132933095Y-77731905D01*
X132980714Y-76303333D02*
X133647381Y-76303333D01*
X132599762Y-76541429D02*
X133314048Y-76779524D01*
X133314048Y-76160476D01*
X133647381Y-97734286D02*
X132647381Y-97734286D01*
X132647381Y-97496191D01*
X132695000Y-97353333D01*
X132790238Y-97258095D01*
X132885476Y-97210476D01*
X133075952Y-97162857D01*
X133218810Y-97162857D01*
X133409286Y-97210476D01*
X133504524Y-97258095D01*
X133599762Y-97353333D01*
X133647381Y-97496191D01*
X133647381Y-97734286D01*
X133647381Y-96210476D02*
X133647381Y-96781905D01*
X133647381Y-96496191D02*
X132647381Y-96496191D01*
X132790238Y-96591429D01*
X132885476Y-96686667D01*
X132933095Y-96781905D01*
X132647381Y-95305714D02*
X132647381Y-95781905D01*
X133123571Y-95829524D01*
X133075952Y-95781905D01*
X133028333Y-95686667D01*
X133028333Y-95448571D01*
X133075952Y-95353333D01*
X133123571Y-95305714D01*
X133218810Y-95258095D01*
X133456905Y-95258095D01*
X133552143Y-95305714D01*
X133599762Y-95353333D01*
X133647381Y-95448571D01*
X133647381Y-95686667D01*
X133599762Y-95781905D01*
X133552143Y-95829524D01*
X133647381Y-116784286D02*
X132647381Y-116784286D01*
X132647381Y-116546191D01*
X132695000Y-116403333D01*
X132790238Y-116308095D01*
X132885476Y-116260476D01*
X133075952Y-116212857D01*
X133218810Y-116212857D01*
X133409286Y-116260476D01*
X133504524Y-116308095D01*
X133599762Y-116403333D01*
X133647381Y-116546191D01*
X133647381Y-116784286D01*
X133647381Y-115260476D02*
X133647381Y-115831905D01*
X133647381Y-115546191D02*
X132647381Y-115546191D01*
X132790238Y-115641429D01*
X132885476Y-115736667D01*
X132933095Y-115831905D01*
X132647381Y-114403333D02*
X132647381Y-114593810D01*
X132695000Y-114689048D01*
X132742619Y-114736667D01*
X132885476Y-114831905D01*
X133075952Y-114879524D01*
X133456905Y-114879524D01*
X133552143Y-114831905D01*
X133599762Y-114784286D01*
X133647381Y-114689048D01*
X133647381Y-114498571D01*
X133599762Y-114403333D01*
X133552143Y-114355714D01*
X133456905Y-114308095D01*
X133218810Y-114308095D01*
X133123571Y-114355714D01*
X133075952Y-114403333D01*
X133028333Y-114498571D01*
X133028333Y-114689048D01*
X133075952Y-114784286D01*
X133123571Y-114831905D01*
X133218810Y-114879524D01*
X152697381Y-59634286D02*
X151697381Y-59634286D01*
X151697381Y-59396191D01*
X151745000Y-59253333D01*
X151840238Y-59158095D01*
X151935476Y-59110476D01*
X152125952Y-59062857D01*
X152268810Y-59062857D01*
X152459286Y-59110476D01*
X152554524Y-59158095D01*
X152649762Y-59253333D01*
X152697381Y-59396191D01*
X152697381Y-59634286D01*
X152697381Y-58110476D02*
X152697381Y-58681905D01*
X152697381Y-58396191D02*
X151697381Y-58396191D01*
X151840238Y-58491429D01*
X151935476Y-58586667D01*
X151983095Y-58681905D01*
X151697381Y-57777143D02*
X151697381Y-57110476D01*
X152697381Y-57539048D01*
X152697381Y-78684286D02*
X151697381Y-78684286D01*
X151697381Y-78446191D01*
X151745000Y-78303333D01*
X151840238Y-78208095D01*
X151935476Y-78160476D01*
X152125952Y-78112857D01*
X152268810Y-78112857D01*
X152459286Y-78160476D01*
X152554524Y-78208095D01*
X152649762Y-78303333D01*
X152697381Y-78446191D01*
X152697381Y-78684286D01*
X152697381Y-77160476D02*
X152697381Y-77731905D01*
X152697381Y-77446191D02*
X151697381Y-77446191D01*
X151840238Y-77541429D01*
X151935476Y-77636667D01*
X151983095Y-77731905D01*
X152125952Y-76589048D02*
X152078333Y-76684286D01*
X152030714Y-76731905D01*
X151935476Y-76779524D01*
X151887857Y-76779524D01*
X151792619Y-76731905D01*
X151745000Y-76684286D01*
X151697381Y-76589048D01*
X151697381Y-76398571D01*
X151745000Y-76303333D01*
X151792619Y-76255714D01*
X151887857Y-76208095D01*
X151935476Y-76208095D01*
X152030714Y-76255714D01*
X152078333Y-76303333D01*
X152125952Y-76398571D01*
X152125952Y-76589048D01*
X152173571Y-76684286D01*
X152221190Y-76731905D01*
X152316429Y-76779524D01*
X152506905Y-76779524D01*
X152602143Y-76731905D01*
X152649762Y-76684286D01*
X152697381Y-76589048D01*
X152697381Y-76398571D01*
X152649762Y-76303333D01*
X152602143Y-76255714D01*
X152506905Y-76208095D01*
X152316429Y-76208095D01*
X152221190Y-76255714D01*
X152173571Y-76303333D01*
X152125952Y-76398571D01*
X152697381Y-97734286D02*
X151697381Y-97734286D01*
X151697381Y-97496191D01*
X151745000Y-97353333D01*
X151840238Y-97258095D01*
X151935476Y-97210476D01*
X152125952Y-97162857D01*
X152268810Y-97162857D01*
X152459286Y-97210476D01*
X152554524Y-97258095D01*
X152649762Y-97353333D01*
X152697381Y-97496191D01*
X152697381Y-97734286D01*
X152697381Y-96210476D02*
X152697381Y-96781905D01*
X152697381Y-96496191D02*
X151697381Y-96496191D01*
X151840238Y-96591429D01*
X151935476Y-96686667D01*
X151983095Y-96781905D01*
X152697381Y-95734286D02*
X152697381Y-95543810D01*
X152649762Y-95448571D01*
X152602143Y-95400952D01*
X152459286Y-95305714D01*
X152268810Y-95258095D01*
X151887857Y-95258095D01*
X151792619Y-95305714D01*
X151745000Y-95353333D01*
X151697381Y-95448571D01*
X151697381Y-95639048D01*
X151745000Y-95734286D01*
X151792619Y-95781905D01*
X151887857Y-95829524D01*
X152125952Y-95829524D01*
X152221190Y-95781905D01*
X152268810Y-95734286D01*
X152316429Y-95639048D01*
X152316429Y-95448571D01*
X152268810Y-95353333D01*
X152221190Y-95305714D01*
X152125952Y-95258095D01*
X152697381Y-116784286D02*
X151697381Y-116784286D01*
X151697381Y-116546191D01*
X151745000Y-116403333D01*
X151840238Y-116308095D01*
X151935476Y-116260476D01*
X152125952Y-116212857D01*
X152268810Y-116212857D01*
X152459286Y-116260476D01*
X152554524Y-116308095D01*
X152649762Y-116403333D01*
X152697381Y-116546191D01*
X152697381Y-116784286D01*
X151792619Y-115831905D02*
X151745000Y-115784286D01*
X151697381Y-115689048D01*
X151697381Y-115450952D01*
X151745000Y-115355714D01*
X151792619Y-115308095D01*
X151887857Y-115260476D01*
X151983095Y-115260476D01*
X152125952Y-115308095D01*
X152697381Y-115879524D01*
X152697381Y-115260476D01*
X151697381Y-114641429D02*
X151697381Y-114546190D01*
X151745000Y-114450952D01*
X151792619Y-114403333D01*
X151887857Y-114355714D01*
X152078333Y-114308095D01*
X152316429Y-114308095D01*
X152506905Y-114355714D01*
X152602143Y-114403333D01*
X152649762Y-114450952D01*
X152697381Y-114546190D01*
X152697381Y-114641429D01*
X152649762Y-114736667D01*
X152602143Y-114784286D01*
X152506905Y-114831905D01*
X152316429Y-114879524D01*
X152078333Y-114879524D01*
X151887857Y-114831905D01*
X151792619Y-114784286D01*
X151745000Y-114736667D01*
X151697381Y-114641429D01*
X161345714Y-66337381D02*
X161345714Y-65337381D01*
X161583809Y-65337381D01*
X161726667Y-65385000D01*
X161821905Y-65480238D01*
X161869524Y-65575476D01*
X161917143Y-65765952D01*
X161917143Y-65908810D01*
X161869524Y-66099286D01*
X161821905Y-66194524D01*
X161726667Y-66289762D01*
X161583809Y-66337381D01*
X161345714Y-66337381D01*
X162298095Y-65432619D02*
X162345714Y-65385000D01*
X162440952Y-65337381D01*
X162679048Y-65337381D01*
X162774286Y-65385000D01*
X162821905Y-65432619D01*
X162869524Y-65527857D01*
X162869524Y-65623095D01*
X162821905Y-65765952D01*
X162250476Y-66337381D01*
X162869524Y-66337381D01*
X163821905Y-66337381D02*
X163250476Y-66337381D01*
X163536190Y-66337381D02*
X163536190Y-65337381D01*
X163440952Y-65480238D01*
X163345714Y-65575476D01*
X163250476Y-65623095D01*
X171747381Y-79954286D02*
X170747381Y-79954286D01*
X170747381Y-79716191D01*
X170795000Y-79573333D01*
X170890238Y-79478095D01*
X170985476Y-79430476D01*
X171175952Y-79382857D01*
X171318810Y-79382857D01*
X171509286Y-79430476D01*
X171604524Y-79478095D01*
X171699762Y-79573333D01*
X171747381Y-79716191D01*
X171747381Y-79954286D01*
X170842619Y-79001905D02*
X170795000Y-78954286D01*
X170747381Y-78859048D01*
X170747381Y-78620952D01*
X170795000Y-78525714D01*
X170842619Y-78478095D01*
X170937857Y-78430476D01*
X171033095Y-78430476D01*
X171175952Y-78478095D01*
X171747381Y-79049524D01*
X171747381Y-78430476D01*
X170842619Y-78049524D02*
X170795000Y-78001905D01*
X170747381Y-77906667D01*
X170747381Y-77668571D01*
X170795000Y-77573333D01*
X170842619Y-77525714D01*
X170937857Y-77478095D01*
X171033095Y-77478095D01*
X171175952Y-77525714D01*
X171747381Y-78097143D01*
X171747381Y-77478095D01*
X171747381Y-96464286D02*
X170747381Y-96464286D01*
X170747381Y-96226191D01*
X170795000Y-96083333D01*
X170890238Y-95988095D01*
X170985476Y-95940476D01*
X171175952Y-95892857D01*
X171318810Y-95892857D01*
X171509286Y-95940476D01*
X171604524Y-95988095D01*
X171699762Y-96083333D01*
X171747381Y-96226191D01*
X171747381Y-96464286D01*
X170842619Y-95511905D02*
X170795000Y-95464286D01*
X170747381Y-95369048D01*
X170747381Y-95130952D01*
X170795000Y-95035714D01*
X170842619Y-94988095D01*
X170937857Y-94940476D01*
X171033095Y-94940476D01*
X171175952Y-94988095D01*
X171747381Y-95559524D01*
X171747381Y-94940476D01*
X170747381Y-94607143D02*
X170747381Y-93988095D01*
X171128333Y-94321429D01*
X171128333Y-94178571D01*
X171175952Y-94083333D01*
X171223571Y-94035714D01*
X171318810Y-93988095D01*
X171556905Y-93988095D01*
X171652143Y-94035714D01*
X171699762Y-94083333D01*
X171747381Y-94178571D01*
X171747381Y-94464286D01*
X171699762Y-94559524D01*
X171652143Y-94607143D01*
X171747381Y-118054286D02*
X170747381Y-118054286D01*
X170747381Y-117816191D01*
X170795000Y-117673333D01*
X170890238Y-117578095D01*
X170985476Y-117530476D01*
X171175952Y-117482857D01*
X171318810Y-117482857D01*
X171509286Y-117530476D01*
X171604524Y-117578095D01*
X171699762Y-117673333D01*
X171747381Y-117816191D01*
X171747381Y-118054286D01*
X170842619Y-117101905D02*
X170795000Y-117054286D01*
X170747381Y-116959048D01*
X170747381Y-116720952D01*
X170795000Y-116625714D01*
X170842619Y-116578095D01*
X170937857Y-116530476D01*
X171033095Y-116530476D01*
X171175952Y-116578095D01*
X171747381Y-117149524D01*
X171747381Y-116530476D01*
X171080714Y-115673333D02*
X171747381Y-115673333D01*
X170699762Y-115911429D02*
X171414048Y-116149524D01*
X171414048Y-115530476D01*
X182935714Y-66337381D02*
X182935714Y-65337381D01*
X183173809Y-65337381D01*
X183316667Y-65385000D01*
X183411905Y-65480238D01*
X183459524Y-65575476D01*
X183507143Y-65765952D01*
X183507143Y-65908810D01*
X183459524Y-66099286D01*
X183411905Y-66194524D01*
X183316667Y-66289762D01*
X183173809Y-66337381D01*
X182935714Y-66337381D01*
X183888095Y-65432619D02*
X183935714Y-65385000D01*
X184030952Y-65337381D01*
X184269048Y-65337381D01*
X184364286Y-65385000D01*
X184411905Y-65432619D01*
X184459524Y-65527857D01*
X184459524Y-65623095D01*
X184411905Y-65765952D01*
X183840476Y-66337381D01*
X184459524Y-66337381D01*
X185364286Y-65337381D02*
X184888095Y-65337381D01*
X184840476Y-65813571D01*
X184888095Y-65765952D01*
X184983333Y-65718333D01*
X185221429Y-65718333D01*
X185316667Y-65765952D01*
X185364286Y-65813571D01*
X185411905Y-65908810D01*
X185411905Y-66146905D01*
X185364286Y-66242143D01*
X185316667Y-66289762D01*
X185221429Y-66337381D01*
X184983333Y-66337381D01*
X184888095Y-66289762D01*
X184840476Y-66242143D01*
X182935714Y-85387381D02*
X182935714Y-84387381D01*
X183173809Y-84387381D01*
X183316667Y-84435000D01*
X183411905Y-84530238D01*
X183459524Y-84625476D01*
X183507143Y-84815952D01*
X183507143Y-84958810D01*
X183459524Y-85149286D01*
X183411905Y-85244524D01*
X183316667Y-85339762D01*
X183173809Y-85387381D01*
X182935714Y-85387381D01*
X183888095Y-84482619D02*
X183935714Y-84435000D01*
X184030952Y-84387381D01*
X184269048Y-84387381D01*
X184364286Y-84435000D01*
X184411905Y-84482619D01*
X184459524Y-84577857D01*
X184459524Y-84673095D01*
X184411905Y-84815952D01*
X183840476Y-85387381D01*
X184459524Y-85387381D01*
X185316667Y-84387381D02*
X185126190Y-84387381D01*
X185030952Y-84435000D01*
X184983333Y-84482619D01*
X184888095Y-84625476D01*
X184840476Y-84815952D01*
X184840476Y-85196905D01*
X184888095Y-85292143D01*
X184935714Y-85339762D01*
X185030952Y-85387381D01*
X185221429Y-85387381D01*
X185316667Y-85339762D01*
X185364286Y-85292143D01*
X185411905Y-85196905D01*
X185411905Y-84958810D01*
X185364286Y-84863571D01*
X185316667Y-84815952D01*
X185221429Y-84768333D01*
X185030952Y-84768333D01*
X184935714Y-84815952D01*
X184888095Y-84863571D01*
X184840476Y-84958810D01*
X182935714Y-104437381D02*
X182935714Y-103437381D01*
X183173809Y-103437381D01*
X183316667Y-103485000D01*
X183411905Y-103580238D01*
X183459524Y-103675476D01*
X183507143Y-103865952D01*
X183507143Y-104008810D01*
X183459524Y-104199286D01*
X183411905Y-104294524D01*
X183316667Y-104389762D01*
X183173809Y-104437381D01*
X182935714Y-104437381D01*
X183888095Y-103532619D02*
X183935714Y-103485000D01*
X184030952Y-103437381D01*
X184269048Y-103437381D01*
X184364286Y-103485000D01*
X184411905Y-103532619D01*
X184459524Y-103627857D01*
X184459524Y-103723095D01*
X184411905Y-103865952D01*
X183840476Y-104437381D01*
X184459524Y-104437381D01*
X184792857Y-103437381D02*
X185459524Y-103437381D01*
X185030952Y-104437381D01*
X182935714Y-123487381D02*
X182935714Y-122487381D01*
X183173809Y-122487381D01*
X183316667Y-122535000D01*
X183411905Y-122630238D01*
X183459524Y-122725476D01*
X183507143Y-122915952D01*
X183507143Y-123058810D01*
X183459524Y-123249286D01*
X183411905Y-123344524D01*
X183316667Y-123439762D01*
X183173809Y-123487381D01*
X182935714Y-123487381D01*
X183888095Y-122582619D02*
X183935714Y-122535000D01*
X184030952Y-122487381D01*
X184269048Y-122487381D01*
X184364286Y-122535000D01*
X184411905Y-122582619D01*
X184459524Y-122677857D01*
X184459524Y-122773095D01*
X184411905Y-122915952D01*
X183840476Y-123487381D01*
X184459524Y-123487381D01*
X185030952Y-122915952D02*
X184935714Y-122868333D01*
X184888095Y-122820714D01*
X184840476Y-122725476D01*
X184840476Y-122677857D01*
X184888095Y-122582619D01*
X184935714Y-122535000D01*
X185030952Y-122487381D01*
X185221429Y-122487381D01*
X185316667Y-122535000D01*
X185364286Y-122582619D01*
X185411905Y-122677857D01*
X185411905Y-122725476D01*
X185364286Y-122820714D01*
X185316667Y-122868333D01*
X185221429Y-122915952D01*
X185030952Y-122915952D01*
X184935714Y-122963571D01*
X184888095Y-123011190D01*
X184840476Y-123106429D01*
X184840476Y-123296905D01*
X184888095Y-123392143D01*
X184935714Y-123439762D01*
X185030952Y-123487381D01*
X185221429Y-123487381D01*
X185316667Y-123439762D01*
X185364286Y-123392143D01*
X185411905Y-123296905D01*
X185411905Y-123106429D01*
X185364286Y-123011190D01*
X185316667Y-122963571D01*
X185221429Y-122915952D01*
X125563334Y-48307381D02*
X125230000Y-47831190D01*
X124991905Y-48307381D02*
X124991905Y-47307381D01*
X125372858Y-47307381D01*
X125468096Y-47355000D01*
X125515715Y-47402619D01*
X125563334Y-47497857D01*
X125563334Y-47640714D01*
X125515715Y-47735952D01*
X125468096Y-47783571D01*
X125372858Y-47831190D01*
X124991905Y-47831190D01*
X126515715Y-48307381D02*
X125944286Y-48307381D01*
X126230000Y-48307381D02*
X126230000Y-47307381D01*
X126134762Y-47450238D01*
X126039524Y-47545476D01*
X125944286Y-47593095D01*
X144613334Y-48307381D02*
X144280000Y-47831190D01*
X144041905Y-48307381D02*
X144041905Y-47307381D01*
X144422858Y-47307381D01*
X144518096Y-47355000D01*
X144565715Y-47402619D01*
X144613334Y-47497857D01*
X144613334Y-47640714D01*
X144565715Y-47735952D01*
X144518096Y-47783571D01*
X144422858Y-47831190D01*
X144041905Y-47831190D01*
X144994286Y-47402619D02*
X145041905Y-47355000D01*
X145137143Y-47307381D01*
X145375239Y-47307381D01*
X145470477Y-47355000D01*
X145518096Y-47402619D01*
X145565715Y-47497857D01*
X145565715Y-47593095D01*
X145518096Y-47735952D01*
X144946667Y-48307381D01*
X145565715Y-48307381D01*
X77343095Y-65397381D02*
X77343095Y-66206905D01*
X77390714Y-66302143D01*
X77438333Y-66349762D01*
X77533571Y-66397381D01*
X77724048Y-66397381D01*
X77819286Y-66349762D01*
X77866905Y-66302143D01*
X77914524Y-66206905D01*
X77914524Y-65397381D01*
X78914524Y-66397381D02*
X78343095Y-66397381D01*
X78628809Y-66397381D02*
X78628809Y-65397381D01*
X78533571Y-65540238D01*
X78438333Y-65635476D01*
X78343095Y-65683095D01*
X172593095Y-103497381D02*
X172593095Y-104306905D01*
X172640714Y-104402143D01*
X172688333Y-104449762D01*
X172783571Y-104497381D01*
X172974048Y-104497381D01*
X173069286Y-104449762D01*
X173116905Y-104402143D01*
X173164524Y-104306905D01*
X173164524Y-103497381D01*
X174069286Y-103497381D02*
X173878809Y-103497381D01*
X173783571Y-103545000D01*
X173735952Y-103592619D01*
X173640714Y-103735476D01*
X173593095Y-103925952D01*
X173593095Y-104306905D01*
X173640714Y-104402143D01*
X173688333Y-104449762D01*
X173783571Y-104497381D01*
X173974048Y-104497381D01*
X174069286Y-104449762D01*
X174116905Y-104402143D01*
X174164524Y-104306905D01*
X174164524Y-104068810D01*
X174116905Y-103973571D01*
X174069286Y-103925952D01*
X173974048Y-103878333D01*
X173783571Y-103878333D01*
X173688333Y-103925952D01*
X173640714Y-103973571D01*
X173593095Y-104068810D01*
X172593095Y-65397381D02*
X172593095Y-66206905D01*
X172640714Y-66302143D01*
X172688333Y-66349762D01*
X172783571Y-66397381D01*
X172974048Y-66397381D01*
X173069286Y-66349762D01*
X173116905Y-66302143D01*
X173164524Y-66206905D01*
X173164524Y-65397381D01*
X173593095Y-65492619D02*
X173640714Y-65445000D01*
X173735952Y-65397381D01*
X173974048Y-65397381D01*
X174069286Y-65445000D01*
X174116905Y-65492619D01*
X174164524Y-65587857D01*
X174164524Y-65683095D01*
X174116905Y-65825952D01*
X173545476Y-66397381D01*
X174164524Y-66397381D01*
X115443095Y-84447381D02*
X115443095Y-85256905D01*
X115490714Y-85352143D01*
X115538333Y-85399762D01*
X115633571Y-85447381D01*
X115824048Y-85447381D01*
X115919286Y-85399762D01*
X115966905Y-85352143D01*
X116014524Y-85256905D01*
X116014524Y-84447381D01*
X116919286Y-84780714D02*
X116919286Y-85447381D01*
X116681190Y-84399762D02*
X116443095Y-85114048D01*
X117062143Y-85114048D01*
X77343095Y-103497381D02*
X77343095Y-104306905D01*
X77390714Y-104402143D01*
X77438333Y-104449762D01*
X77533571Y-104497381D01*
X77724048Y-104497381D01*
X77819286Y-104449762D01*
X77866905Y-104402143D01*
X77914524Y-104306905D01*
X77914524Y-103497381D01*
X78866905Y-103497381D02*
X78390714Y-103497381D01*
X78343095Y-103973571D01*
X78390714Y-103925952D01*
X78485952Y-103878333D01*
X78724048Y-103878333D01*
X78819286Y-103925952D01*
X78866905Y-103973571D01*
X78914524Y-104068810D01*
X78914524Y-104306905D01*
X78866905Y-104402143D01*
X78819286Y-104449762D01*
X78724048Y-104497381D01*
X78485952Y-104497381D01*
X78390714Y-104449762D01*
X78343095Y-104402143D01*
D10*
X134802620Y-51796190D02*
X134921667Y-52296190D01*
X135016905Y-51939048D01*
X135112143Y-52296190D01*
X135231191Y-51796190D01*
X135683572Y-52296190D02*
X135397858Y-52296190D01*
X135540715Y-52296190D02*
X135540715Y-51796190D01*
X135493096Y-51867619D01*
X135445477Y-51915238D01*
X135397858Y-51939048D01*
%LPC*%
D14*
X78105000Y-62230000D03*
D15*
X78105000Y-52070000D03*
D14*
X78105000Y-83820000D03*
D15*
X78105000Y-73660000D03*
D14*
X78105000Y-100330000D03*
D15*
X78105000Y-90170000D03*
D14*
X78105000Y-121920000D03*
D15*
X78105000Y-111760000D03*
D14*
X83820000Y-67945000D03*
D15*
X93980000Y-67945000D03*
D14*
X82550000Y-86995000D03*
D15*
X92710000Y-86995000D03*
D14*
X97155000Y-101600000D03*
D15*
X97155000Y-91440000D03*
D14*
X97155000Y-120650000D03*
D15*
X97155000Y-110490000D03*
D14*
X130810000Y-67945000D03*
D15*
X120650000Y-67945000D03*
D14*
X100330000Y-86995000D03*
D15*
X110490000Y-86995000D03*
D14*
X116205000Y-102870000D03*
D15*
X116205000Y-92710000D03*
D14*
X116205000Y-120650000D03*
D15*
X116205000Y-110490000D03*
D14*
X135255000Y-63500000D03*
D15*
X135255000Y-53340000D03*
D14*
X135255000Y-82550000D03*
D15*
X135255000Y-72390000D03*
D14*
X135255000Y-101600000D03*
D15*
X135255000Y-91440000D03*
D14*
X135255000Y-120650000D03*
D15*
X135255000Y-110490000D03*
D14*
X154305000Y-63500000D03*
D15*
X154305000Y-53340000D03*
D14*
X154305000Y-82550000D03*
D15*
X154305000Y-72390000D03*
D14*
X154305000Y-101600000D03*
D15*
X154305000Y-91440000D03*
D14*
X154305000Y-120650000D03*
D15*
X154305000Y-110490000D03*
D14*
X157480000Y-67945000D03*
D15*
X167640000Y-67945000D03*
D14*
X173355000Y-83820000D03*
D15*
X173355000Y-73660000D03*
D14*
X173355000Y-100330000D03*
D15*
X173355000Y-90170000D03*
D14*
X173355000Y-121920000D03*
D15*
X173355000Y-111760000D03*
D14*
X179070000Y-67945000D03*
D15*
X189230000Y-67945000D03*
D14*
X179070000Y-86995000D03*
D15*
X189230000Y-86995000D03*
D14*
X179070000Y-106045000D03*
D15*
X189230000Y-106045000D03*
D14*
X179070000Y-125095000D03*
D15*
X189230000Y-125095000D03*
D16*
X120650000Y-50165000D03*
D15*
X130810000Y-50165000D03*
D16*
X139700000Y-50165000D03*
D15*
X149860000Y-50165000D03*
D17*
X66080276Y-53340672D02*
X66119724Y-53919328D01*
X71770184Y-54419693D02*
X72579816Y-55880307D01*
D18*
X68580000Y-58420000D03*
D19*
X63500000Y-58420000D03*
X73660000Y-58420000D03*
D17*
X65580453Y-54420046D02*
X64769547Y-55879954D01*
X71119724Y-53340672D02*
X71080276Y-53919328D01*
X66080276Y-72390672D02*
X66119724Y-72969328D01*
X71770184Y-73469693D02*
X72579816Y-74930307D01*
D18*
X68580000Y-77470000D03*
D19*
X63500000Y-77470000D03*
X73660000Y-77470000D03*
D17*
X65580453Y-73470046D02*
X64769547Y-74929954D01*
X71119724Y-72390672D02*
X71080276Y-72969328D01*
X66080276Y-91440672D02*
X66119724Y-92019328D01*
X71770184Y-92519693D02*
X72579816Y-93980307D01*
D18*
X68580000Y-96520000D03*
D19*
X63500000Y-96520000D03*
X73660000Y-96520000D03*
D17*
X65580453Y-92520046D02*
X64769547Y-93979954D01*
X71119724Y-91440672D02*
X71080276Y-92019328D01*
X66080276Y-110490672D02*
X66119724Y-111069328D01*
X71770184Y-111569693D02*
X72579816Y-113030307D01*
D18*
X68580000Y-115570000D03*
D19*
X63500000Y-115570000D03*
X73660000Y-115570000D03*
D17*
X65580453Y-111570046D02*
X64769547Y-113029954D01*
X71119724Y-110490672D02*
X71080276Y-111069328D01*
X85130276Y-53340672D02*
X85169724Y-53919328D01*
X90820184Y-54419693D02*
X91629816Y-55880307D01*
D18*
X87630000Y-58420000D03*
D19*
X82550000Y-58420000D03*
X92710000Y-58420000D03*
D17*
X84630453Y-54420046D02*
X83819547Y-55879954D01*
X90169724Y-53340672D02*
X90130276Y-53919328D01*
X85130276Y-72390672D02*
X85169724Y-72969328D01*
X90820184Y-73469693D02*
X91629816Y-74930307D01*
D18*
X87630000Y-77470000D03*
D19*
X82550000Y-77470000D03*
X92710000Y-77470000D03*
D17*
X84630453Y-73470046D02*
X83819547Y-74929954D01*
X90169724Y-72390672D02*
X90130276Y-72969328D01*
X85130276Y-91440672D02*
X85169724Y-92019328D01*
X90820184Y-92519693D02*
X91629816Y-93980307D01*
D18*
X87630000Y-96520000D03*
D19*
X82550000Y-96520000D03*
X92710000Y-96520000D03*
D17*
X84630453Y-92520046D02*
X83819547Y-93979954D01*
X90169724Y-91440672D02*
X90130276Y-92019328D01*
X85130276Y-110490672D02*
X85169724Y-111069328D01*
X90820184Y-111569693D02*
X91629816Y-113030307D01*
D18*
X87630000Y-115570000D03*
D19*
X82550000Y-115570000D03*
X92710000Y-115570000D03*
D17*
X84630453Y-111570046D02*
X83819547Y-113029954D01*
X90169724Y-110490672D02*
X90130276Y-111069328D01*
X104180276Y-53340672D02*
X104219724Y-53919328D01*
X109870184Y-54419693D02*
X110679816Y-55880307D01*
D18*
X106680000Y-58420000D03*
D19*
X101600000Y-58420000D03*
X111760000Y-58420000D03*
D17*
X103680453Y-54420046D02*
X102869547Y-55879954D01*
X109219724Y-53340672D02*
X109180276Y-53919328D01*
X104180276Y-72390672D02*
X104219724Y-72969328D01*
X109870184Y-73469693D02*
X110679816Y-74930307D01*
D18*
X106680000Y-77470000D03*
D19*
X101600000Y-77470000D03*
X111760000Y-77470000D03*
D17*
X103680453Y-73470046D02*
X102869547Y-74929954D01*
X109219724Y-72390672D02*
X109180276Y-72969328D01*
X104180276Y-91440672D02*
X104219724Y-92019328D01*
X109870184Y-92519693D02*
X110679816Y-93980307D01*
D18*
X106680000Y-96520000D03*
D19*
X101600000Y-96520000D03*
X111760000Y-96520000D03*
D17*
X103680453Y-92520046D02*
X102869547Y-93979954D01*
X109219724Y-91440672D02*
X109180276Y-92019328D01*
X104180276Y-110490672D02*
X104219724Y-111069328D01*
X109870184Y-111569693D02*
X110679816Y-113030307D01*
D18*
X106680000Y-115570000D03*
D19*
X101600000Y-115570000D03*
X111760000Y-115570000D03*
D17*
X103680453Y-111570046D02*
X102869547Y-113029954D01*
X109219724Y-110490672D02*
X109180276Y-111069328D01*
X123230276Y-53340672D02*
X123269724Y-53919328D01*
X128920184Y-54419693D02*
X129729816Y-55880307D01*
D18*
X125730000Y-58420000D03*
D19*
X120650000Y-58420000D03*
X130810000Y-58420000D03*
D17*
X122730453Y-54420046D02*
X121919547Y-55879954D01*
X128269724Y-53340672D02*
X128230276Y-53919328D01*
X123230276Y-72390672D02*
X123269724Y-72969328D01*
X128920184Y-73469693D02*
X129729816Y-74930307D01*
D18*
X125730000Y-77470000D03*
D19*
X120650000Y-77470000D03*
X130810000Y-77470000D03*
D17*
X122730453Y-73470046D02*
X121919547Y-74929954D01*
X128269724Y-72390672D02*
X128230276Y-72969328D01*
X123230276Y-91440672D02*
X123269724Y-92019328D01*
X128920184Y-92519693D02*
X129729816Y-93980307D01*
D18*
X125730000Y-96520000D03*
D19*
X120650000Y-96520000D03*
X130810000Y-96520000D03*
D17*
X122730453Y-92520046D02*
X121919547Y-93979954D01*
X128269724Y-91440672D02*
X128230276Y-92019328D01*
X123230276Y-110490672D02*
X123269724Y-111069328D01*
X128920184Y-111569693D02*
X129729816Y-113030307D01*
D18*
X125730000Y-115570000D03*
D19*
X120650000Y-115570000D03*
X130810000Y-115570000D03*
D17*
X122730453Y-111570046D02*
X121919547Y-113029954D01*
X128269724Y-110490672D02*
X128230276Y-111069328D01*
X142280276Y-53340672D02*
X142319724Y-53919328D01*
X147970184Y-54419693D02*
X148779816Y-55880307D01*
D18*
X144780000Y-58420000D03*
D19*
X139700000Y-58420000D03*
X149860000Y-58420000D03*
D17*
X141780453Y-54420046D02*
X140969547Y-55879954D01*
X147319724Y-53340672D02*
X147280276Y-53919328D01*
X142280276Y-72390672D02*
X142319724Y-72969328D01*
X147970184Y-73469693D02*
X148779816Y-74930307D01*
D18*
X144780000Y-77470000D03*
D19*
X139700000Y-77470000D03*
X149860000Y-77470000D03*
D17*
X141780453Y-73470046D02*
X140969547Y-74929954D01*
X147319724Y-72390672D02*
X147280276Y-72969328D01*
X142280276Y-91440672D02*
X142319724Y-92019328D01*
X147970184Y-92519693D02*
X148779816Y-93980307D01*
D18*
X144780000Y-96520000D03*
D19*
X139700000Y-96520000D03*
X149860000Y-96520000D03*
D17*
X141780453Y-92520046D02*
X140969547Y-93979954D01*
X147319724Y-91440672D02*
X147280276Y-92019328D01*
X142280276Y-110490672D02*
X142319724Y-111069328D01*
X147970184Y-111569693D02*
X148779816Y-113030307D01*
D18*
X144780000Y-115570000D03*
D19*
X139700000Y-115570000D03*
X149860000Y-115570000D03*
D17*
X141780453Y-111570046D02*
X140969547Y-113029954D01*
X147319724Y-110490672D02*
X147280276Y-111069328D01*
X161330276Y-53340672D02*
X161369724Y-53919328D01*
X167020184Y-54419693D02*
X167829816Y-55880307D01*
D18*
X163830000Y-58420000D03*
D19*
X158750000Y-58420000D03*
X168910000Y-58420000D03*
D17*
X160830453Y-54420046D02*
X160019547Y-55879954D01*
X166369724Y-53340672D02*
X166330276Y-53919328D01*
X161330276Y-72390672D02*
X161369724Y-72969328D01*
X167020184Y-73469693D02*
X167829816Y-74930307D01*
D18*
X163830000Y-77470000D03*
D19*
X158750000Y-77470000D03*
X168910000Y-77470000D03*
D17*
X160830453Y-73470046D02*
X160019547Y-74929954D01*
X166369724Y-72390672D02*
X166330276Y-72969328D01*
X161330276Y-91440672D02*
X161369724Y-92019328D01*
X167020184Y-92519693D02*
X167829816Y-93980307D01*
D18*
X163830000Y-96520000D03*
D19*
X158750000Y-96520000D03*
X168910000Y-96520000D03*
D17*
X160830453Y-92520046D02*
X160019547Y-93979954D01*
X166369724Y-91440672D02*
X166330276Y-92019328D01*
X161330276Y-110490672D02*
X161369724Y-111069328D01*
X167020184Y-111569693D02*
X167829816Y-113030307D01*
D18*
X163830000Y-115570000D03*
D19*
X158750000Y-115570000D03*
X168910000Y-115570000D03*
D17*
X160830453Y-111570046D02*
X160019547Y-113029954D01*
X166369724Y-110490672D02*
X166330276Y-111069328D01*
X180380276Y-53340672D02*
X180419724Y-53919328D01*
X186070184Y-54419693D02*
X186879816Y-55880307D01*
D18*
X182880000Y-58420000D03*
D19*
X177800000Y-58420000D03*
X187960000Y-58420000D03*
D17*
X179880453Y-54420046D02*
X179069547Y-55879954D01*
X185419724Y-53340672D02*
X185380276Y-53919328D01*
X180380276Y-72390672D02*
X180419724Y-72969328D01*
X186070184Y-73469693D02*
X186879816Y-74930307D01*
D18*
X182880000Y-77470000D03*
D19*
X177800000Y-77470000D03*
X187960000Y-77470000D03*
D17*
X179880453Y-73470046D02*
X179069547Y-74929954D01*
X185419724Y-72390672D02*
X185380276Y-72969328D01*
X180380276Y-91440672D02*
X180419724Y-92019328D01*
X186070184Y-92519693D02*
X186879816Y-93980307D01*
D18*
X182880000Y-96520000D03*
D19*
X177800000Y-96520000D03*
X187960000Y-96520000D03*
D17*
X179880453Y-92520046D02*
X179069547Y-93979954D01*
X185419724Y-91440672D02*
X185380276Y-92019328D01*
X180380276Y-110490672D02*
X180419724Y-111069328D01*
X186070184Y-111569693D02*
X186879816Y-113030307D01*
D18*
X182880000Y-115570000D03*
D19*
X177800000Y-115570000D03*
X187960000Y-115570000D03*
D17*
X179880453Y-111570046D02*
X179069547Y-113029954D01*
X185419724Y-110490672D02*
X185380276Y-111069328D01*
D20*
X78105000Y-67945000D03*
X173355000Y-106045000D03*
X173355000Y-67945000D03*
X116205000Y-86995000D03*
X78105000Y-106045000D03*
D21*
X175355000Y-50395000D03*
X171355000Y-50395000D03*
D22*
X173355000Y-55195000D03*
X169355000Y-60695000D03*
X173355000Y-59195000D03*
X177355000Y-60695000D03*
X173355000Y-52195000D03*
D21*
X171355000Y-57395000D03*
X175355000Y-57395000D03*
D14*
X99060000Y-50165000D03*
D16*
X99060000Y-52705000D03*
X99060000Y-55245000D03*
X99060000Y-57785000D03*
X99060000Y-60325000D03*
X99060000Y-62865000D03*
X99060000Y-65405000D03*
X99060000Y-67945000D03*
X99060000Y-70485000D03*
X99060000Y-73025000D03*
X99060000Y-75565000D03*
X99060000Y-78105000D03*
X114300000Y-78105000D03*
X114300000Y-75565000D03*
X114300000Y-73025000D03*
X114300000Y-70485000D03*
X114300000Y-67945000D03*
X114300000Y-65405000D03*
X114300000Y-62865000D03*
X114300000Y-60325000D03*
X114300000Y-57785000D03*
X114300000Y-55245000D03*
X114300000Y-52705000D03*
X114300000Y-50165000D03*
D23*
X134255000Y-50165000D03*
X136255000Y-50165000D03*
M02*
