G04 #@! TF.GenerationSoftware,KiCad,Pcbnew,5.0.0-fee4fd1~66~ubuntu18.04.1*
G04 #@! TF.CreationDate,2018-09-16T21:21:57+09:00*
G04 #@! TF.ProjectId,ergo42,6572676F34322E6B696361645F706362,1.0.0-alpha*
G04 #@! TF.SameCoordinates,Original*
G04 #@! TF.FileFunction,Soldermask,Bot*
G04 #@! TF.FilePolarity,Negative*
%FSLAX46Y46*%
G04 Gerber Fmt 4.6, Leading zero omitted, Abs format (unit mm)*
G04 Created by KiCad (PCBNEW 5.0.0-fee4fd1~66~ubuntu18.04.1) date Sun Sep 16 21:21:57 2018*
%MOMM*%
%LPD*%
G01*
G04 APERTURE LIST*
%ADD10C,2.000000*%
%ADD11O,2.000000X2.000000*%
%ADD12C,2.300000*%
%ADD13C,1.600000*%
%ADD14C,3.000000*%
%ADD15C,2.400000*%
%ADD16C,2.400000*%
%ADD17C,4.387800*%
%ADD18C,2.101800*%
%ADD19C,1.924000*%
%ADD20C,5.400000*%
%ADD21R,1.924000X1.924000*%
%ADD22R,1.600000X2.000000*%
%ADD23R,2.000000X2.000000*%
%ADD24C,2.152600*%
G04 APERTURE END LIST*
D10*
G04 #@! TO.C,R1*
X174625000Y-64135000D03*
D11*
X184785000Y-64135000D03*
G04 #@! TD*
D10*
G04 #@! TO.C,R2*
X193675000Y-64135000D03*
D11*
X203835000Y-64135000D03*
G04 #@! TD*
D12*
G04 #@! TO.C,SW1*
X78955000Y-73660000D03*
X89955000Y-73660000D03*
D13*
X79235000Y-69460000D03*
X89675000Y-69460000D03*
D14*
X89455000Y-77460000D03*
X79455000Y-77460000D03*
X84455000Y-79560000D03*
D15*
X81280000Y-69850000D03*
D16*
X81718371Y-68951206D02*
X80841629Y-70748794D01*
D14*
X88265000Y-71120000D03*
X86995000Y-68580000D03*
X81915000Y-68580000D03*
D17*
X84455000Y-73660000D03*
D18*
X79375000Y-73660000D03*
X89535000Y-73660000D03*
D14*
X80645000Y-71120000D03*
D15*
X87630000Y-69850000D03*
D16*
X87191629Y-68951206D02*
X88068371Y-70748794D01*
G04 #@! TD*
D12*
G04 #@! TO.C,SW2*
X78955000Y-92710000D03*
X89955000Y-92710000D03*
D13*
X79235000Y-88510000D03*
X89675000Y-88510000D03*
D14*
X89455000Y-96510000D03*
X79455000Y-96510000D03*
X84455000Y-98610000D03*
D15*
X81280000Y-88900000D03*
D16*
X81718371Y-88001206D02*
X80841629Y-89798794D01*
D14*
X88265000Y-90170000D03*
X86995000Y-87630000D03*
X81915000Y-87630000D03*
D17*
X84455000Y-92710000D03*
D18*
X79375000Y-92710000D03*
X89535000Y-92710000D03*
D14*
X80645000Y-90170000D03*
D15*
X87630000Y-88900000D03*
D16*
X87191629Y-88001206D02*
X88068371Y-89798794D01*
G04 #@! TD*
D12*
G04 #@! TO.C,SW3*
X78955000Y-111760000D03*
X89955000Y-111760000D03*
D13*
X79235000Y-107560000D03*
X89675000Y-107560000D03*
D14*
X89455000Y-115560000D03*
X79455000Y-115560000D03*
X84455000Y-117660000D03*
D15*
X81280000Y-107950000D03*
D16*
X81718371Y-107051206D02*
X80841629Y-108848794D01*
D14*
X88265000Y-109220000D03*
X86995000Y-106680000D03*
X81915000Y-106680000D03*
D17*
X84455000Y-111760000D03*
D18*
X79375000Y-111760000D03*
X89535000Y-111760000D03*
D14*
X80645000Y-109220000D03*
D15*
X87630000Y-107950000D03*
D16*
X87191629Y-107051206D02*
X88068371Y-108848794D01*
G04 #@! TD*
D12*
G04 #@! TO.C,SW4*
X78955000Y-130810000D03*
X89955000Y-130810000D03*
D13*
X79235000Y-126610000D03*
X89675000Y-126610000D03*
D14*
X89455000Y-134610000D03*
X79455000Y-134610000D03*
X84455000Y-136710000D03*
D15*
X81280000Y-127000000D03*
D16*
X81718371Y-126101206D02*
X80841629Y-127898794D01*
D14*
X88265000Y-128270000D03*
X86995000Y-125730000D03*
X81915000Y-125730000D03*
D17*
X84455000Y-130810000D03*
D18*
X79375000Y-130810000D03*
X89535000Y-130810000D03*
D14*
X80645000Y-128270000D03*
D15*
X87630000Y-127000000D03*
D16*
X87191629Y-126101206D02*
X88068371Y-127898794D01*
G04 #@! TD*
D12*
G04 #@! TO.C,SW5*
X98005000Y-73660000D03*
X109005000Y-73660000D03*
D13*
X98285000Y-69460000D03*
X108725000Y-69460000D03*
D14*
X108505000Y-77460000D03*
X98505000Y-77460000D03*
X103505000Y-79560000D03*
D15*
X100330000Y-69850000D03*
D16*
X100768371Y-68951206D02*
X99891629Y-70748794D01*
D14*
X107315000Y-71120000D03*
X106045000Y-68580000D03*
X100965000Y-68580000D03*
D17*
X103505000Y-73660000D03*
D18*
X98425000Y-73660000D03*
X108585000Y-73660000D03*
D14*
X99695000Y-71120000D03*
D15*
X106680000Y-69850000D03*
D16*
X106241629Y-68951206D02*
X107118371Y-70748794D01*
G04 #@! TD*
D12*
G04 #@! TO.C,SW6*
X98005000Y-92710000D03*
X109005000Y-92710000D03*
D13*
X98285000Y-88510000D03*
X108725000Y-88510000D03*
D14*
X108505000Y-96510000D03*
X98505000Y-96510000D03*
X103505000Y-98610000D03*
D15*
X100330000Y-88900000D03*
D16*
X100768371Y-88001206D02*
X99891629Y-89798794D01*
D14*
X107315000Y-90170000D03*
X106045000Y-87630000D03*
X100965000Y-87630000D03*
D17*
X103505000Y-92710000D03*
D18*
X98425000Y-92710000D03*
X108585000Y-92710000D03*
D14*
X99695000Y-90170000D03*
D15*
X106680000Y-88900000D03*
D16*
X106241629Y-88001206D02*
X107118371Y-89798794D01*
G04 #@! TD*
D12*
G04 #@! TO.C,SW7*
X98005000Y-111760000D03*
X109005000Y-111760000D03*
D13*
X98285000Y-107560000D03*
X108725000Y-107560000D03*
D14*
X108505000Y-115560000D03*
X98505000Y-115560000D03*
X103505000Y-117660000D03*
D15*
X100330000Y-107950000D03*
D16*
X100768371Y-107051206D02*
X99891629Y-108848794D01*
D14*
X107315000Y-109220000D03*
X106045000Y-106680000D03*
X100965000Y-106680000D03*
D17*
X103505000Y-111760000D03*
D18*
X98425000Y-111760000D03*
X108585000Y-111760000D03*
D14*
X99695000Y-109220000D03*
D15*
X106680000Y-107950000D03*
D16*
X106241629Y-107051206D02*
X107118371Y-108848794D01*
G04 #@! TD*
D12*
G04 #@! TO.C,SW8*
X98005000Y-130810000D03*
X109005000Y-130810000D03*
D13*
X98285000Y-126610000D03*
X108725000Y-126610000D03*
D14*
X108505000Y-134610000D03*
X98505000Y-134610000D03*
X103505000Y-136710000D03*
D15*
X100330000Y-127000000D03*
D16*
X100768371Y-126101206D02*
X99891629Y-127898794D01*
D14*
X107315000Y-128270000D03*
X106045000Y-125730000D03*
X100965000Y-125730000D03*
D17*
X103505000Y-130810000D03*
D18*
X98425000Y-130810000D03*
X108585000Y-130810000D03*
D14*
X99695000Y-128270000D03*
D15*
X106680000Y-127000000D03*
D16*
X106241629Y-126101206D02*
X107118371Y-127898794D01*
G04 #@! TD*
D12*
G04 #@! TO.C,SW9*
X117055000Y-73660000D03*
X128055000Y-73660000D03*
D13*
X117335000Y-69460000D03*
X127775000Y-69460000D03*
D14*
X127555000Y-77460000D03*
X117555000Y-77460000D03*
X122555000Y-79560000D03*
D15*
X119380000Y-69850000D03*
D16*
X119818371Y-68951206D02*
X118941629Y-70748794D01*
D14*
X126365000Y-71120000D03*
X125095000Y-68580000D03*
X120015000Y-68580000D03*
D17*
X122555000Y-73660000D03*
D18*
X117475000Y-73660000D03*
X127635000Y-73660000D03*
D14*
X118745000Y-71120000D03*
D15*
X125730000Y-69850000D03*
D16*
X125291629Y-68951206D02*
X126168371Y-70748794D01*
G04 #@! TD*
D12*
G04 #@! TO.C,SW10*
X117055000Y-92710000D03*
X128055000Y-92710000D03*
D13*
X117335000Y-88510000D03*
X127775000Y-88510000D03*
D14*
X127555000Y-96510000D03*
X117555000Y-96510000D03*
X122555000Y-98610000D03*
D15*
X119380000Y-88900000D03*
D16*
X119818371Y-88001206D02*
X118941629Y-89798794D01*
D14*
X126365000Y-90170000D03*
X125095000Y-87630000D03*
X120015000Y-87630000D03*
D17*
X122555000Y-92710000D03*
D18*
X117475000Y-92710000D03*
X127635000Y-92710000D03*
D14*
X118745000Y-90170000D03*
D15*
X125730000Y-88900000D03*
D16*
X125291629Y-88001206D02*
X126168371Y-89798794D01*
G04 #@! TD*
D12*
G04 #@! TO.C,SW11*
X117055000Y-111760000D03*
X128055000Y-111760000D03*
D13*
X117335000Y-107560000D03*
X127775000Y-107560000D03*
D14*
X127555000Y-115560000D03*
X117555000Y-115560000D03*
X122555000Y-117660000D03*
D15*
X119380000Y-107950000D03*
D16*
X119818371Y-107051206D02*
X118941629Y-108848794D01*
D14*
X126365000Y-109220000D03*
X125095000Y-106680000D03*
X120015000Y-106680000D03*
D17*
X122555000Y-111760000D03*
D18*
X117475000Y-111760000D03*
X127635000Y-111760000D03*
D14*
X118745000Y-109220000D03*
D15*
X125730000Y-107950000D03*
D16*
X125291629Y-107051206D02*
X126168371Y-108848794D01*
G04 #@! TD*
D12*
G04 #@! TO.C,SW12*
X117055000Y-130810000D03*
X128055000Y-130810000D03*
D13*
X117335000Y-126610000D03*
X127775000Y-126610000D03*
D14*
X127555000Y-134610000D03*
X117555000Y-134610000D03*
X122555000Y-136710000D03*
D15*
X119380000Y-127000000D03*
D16*
X119818371Y-126101206D02*
X118941629Y-127898794D01*
D14*
X126365000Y-128270000D03*
X125095000Y-125730000D03*
X120015000Y-125730000D03*
D17*
X122555000Y-130810000D03*
D18*
X117475000Y-130810000D03*
X127635000Y-130810000D03*
D14*
X118745000Y-128270000D03*
D15*
X125730000Y-127000000D03*
D16*
X125291629Y-126101206D02*
X126168371Y-127898794D01*
G04 #@! TD*
D12*
G04 #@! TO.C,SW13*
X136105000Y-73660000D03*
X147105000Y-73660000D03*
D13*
X136385000Y-69460000D03*
X146825000Y-69460000D03*
D14*
X146605000Y-77460000D03*
X136605000Y-77460000D03*
X141605000Y-79560000D03*
D15*
X138430000Y-69850000D03*
D16*
X138868371Y-68951206D02*
X137991629Y-70748794D01*
D14*
X145415000Y-71120000D03*
X144145000Y-68580000D03*
X139065000Y-68580000D03*
D17*
X141605000Y-73660000D03*
D18*
X136525000Y-73660000D03*
X146685000Y-73660000D03*
D14*
X137795000Y-71120000D03*
D15*
X144780000Y-69850000D03*
D16*
X144341629Y-68951206D02*
X145218371Y-70748794D01*
G04 #@! TD*
D12*
G04 #@! TO.C,SW14*
X136105000Y-92710000D03*
X147105000Y-92710000D03*
D13*
X136385000Y-88510000D03*
X146825000Y-88510000D03*
D14*
X146605000Y-96510000D03*
X136605000Y-96510000D03*
X141605000Y-98610000D03*
D15*
X138430000Y-88900000D03*
D16*
X138868371Y-88001206D02*
X137991629Y-89798794D01*
D14*
X145415000Y-90170000D03*
X144145000Y-87630000D03*
X139065000Y-87630000D03*
D17*
X141605000Y-92710000D03*
D18*
X136525000Y-92710000D03*
X146685000Y-92710000D03*
D14*
X137795000Y-90170000D03*
D15*
X144780000Y-88900000D03*
D16*
X144341629Y-88001206D02*
X145218371Y-89798794D01*
G04 #@! TD*
D12*
G04 #@! TO.C,SW15*
X136105000Y-111760000D03*
X147105000Y-111760000D03*
D13*
X136385000Y-107560000D03*
X146825000Y-107560000D03*
D14*
X146605000Y-115560000D03*
X136605000Y-115560000D03*
X141605000Y-117660000D03*
D15*
X138430000Y-107950000D03*
D16*
X138868371Y-107051206D02*
X137991629Y-108848794D01*
D14*
X145415000Y-109220000D03*
X144145000Y-106680000D03*
X139065000Y-106680000D03*
D17*
X141605000Y-111760000D03*
D18*
X136525000Y-111760000D03*
X146685000Y-111760000D03*
D14*
X137795000Y-109220000D03*
D15*
X144780000Y-107950000D03*
D16*
X144341629Y-107051206D02*
X145218371Y-108848794D01*
G04 #@! TD*
D12*
G04 #@! TO.C,SW16*
X136105000Y-130810000D03*
X147105000Y-130810000D03*
D13*
X136385000Y-126610000D03*
X146825000Y-126610000D03*
D14*
X146605000Y-134610000D03*
X136605000Y-134610000D03*
X141605000Y-136710000D03*
D15*
X138430000Y-127000000D03*
D16*
X138868371Y-126101206D02*
X137991629Y-127898794D01*
D14*
X145415000Y-128270000D03*
X144145000Y-125730000D03*
X139065000Y-125730000D03*
D17*
X141605000Y-130810000D03*
D18*
X136525000Y-130810000D03*
X146685000Y-130810000D03*
D14*
X137795000Y-128270000D03*
D15*
X144780000Y-127000000D03*
D16*
X144341629Y-126101206D02*
X145218371Y-127898794D01*
G04 #@! TD*
D12*
G04 #@! TO.C,SW17*
X155155000Y-73660000D03*
X166155000Y-73660000D03*
D13*
X155435000Y-69460000D03*
X165875000Y-69460000D03*
D14*
X165655000Y-77460000D03*
X155655000Y-77460000D03*
X160655000Y-79560000D03*
D15*
X157480000Y-69850000D03*
D16*
X157918371Y-68951206D02*
X157041629Y-70748794D01*
D14*
X164465000Y-71120000D03*
X163195000Y-68580000D03*
X158115000Y-68580000D03*
D17*
X160655000Y-73660000D03*
D18*
X155575000Y-73660000D03*
X165735000Y-73660000D03*
D14*
X156845000Y-71120000D03*
D15*
X163830000Y-69850000D03*
D16*
X163391629Y-68951206D02*
X164268371Y-70748794D01*
G04 #@! TD*
D12*
G04 #@! TO.C,SW18*
X155155000Y-92710000D03*
X166155000Y-92710000D03*
D13*
X155435000Y-88510000D03*
X165875000Y-88510000D03*
D14*
X165655000Y-96510000D03*
X155655000Y-96510000D03*
X160655000Y-98610000D03*
D15*
X157480000Y-88900000D03*
D16*
X157918371Y-88001206D02*
X157041629Y-89798794D01*
D14*
X164465000Y-90170000D03*
X163195000Y-87630000D03*
X158115000Y-87630000D03*
D17*
X160655000Y-92710000D03*
D18*
X155575000Y-92710000D03*
X165735000Y-92710000D03*
D14*
X156845000Y-90170000D03*
D15*
X163830000Y-88900000D03*
D16*
X163391629Y-88001206D02*
X164268371Y-89798794D01*
G04 #@! TD*
D12*
G04 #@! TO.C,SW19*
X155155000Y-111760000D03*
X166155000Y-111760000D03*
D13*
X155435000Y-107560000D03*
X165875000Y-107560000D03*
D14*
X165655000Y-115560000D03*
X155655000Y-115560000D03*
X160655000Y-117660000D03*
D15*
X157480000Y-107950000D03*
D16*
X157918371Y-107051206D02*
X157041629Y-108848794D01*
D14*
X164465000Y-109220000D03*
X163195000Y-106680000D03*
X158115000Y-106680000D03*
D17*
X160655000Y-111760000D03*
D18*
X155575000Y-111760000D03*
X165735000Y-111760000D03*
D14*
X156845000Y-109220000D03*
D15*
X163830000Y-107950000D03*
D16*
X163391629Y-107051206D02*
X164268371Y-108848794D01*
G04 #@! TD*
D12*
G04 #@! TO.C,SW20*
X155155000Y-130810000D03*
X166155000Y-130810000D03*
D13*
X155435000Y-126610000D03*
X165875000Y-126610000D03*
D14*
X165655000Y-134610000D03*
X155655000Y-134610000D03*
X160655000Y-136710000D03*
D15*
X157480000Y-127000000D03*
D16*
X157918371Y-126101206D02*
X157041629Y-127898794D01*
D14*
X164465000Y-128270000D03*
X163195000Y-125730000D03*
X158115000Y-125730000D03*
D17*
X160655000Y-130810000D03*
D18*
X155575000Y-130810000D03*
X165735000Y-130810000D03*
D14*
X156845000Y-128270000D03*
D15*
X163830000Y-127000000D03*
D16*
X163391629Y-126101206D02*
X164268371Y-127898794D01*
G04 #@! TD*
D12*
G04 #@! TO.C,SW21*
X174205000Y-73660000D03*
X185205000Y-73660000D03*
D13*
X174485000Y-69460000D03*
X184925000Y-69460000D03*
D14*
X184705000Y-77460000D03*
X174705000Y-77460000D03*
X179705000Y-79560000D03*
D15*
X176530000Y-69850000D03*
D16*
X176968371Y-68951206D02*
X176091629Y-70748794D01*
D14*
X183515000Y-71120000D03*
X182245000Y-68580000D03*
X177165000Y-68580000D03*
D17*
X179705000Y-73660000D03*
D18*
X174625000Y-73660000D03*
X184785000Y-73660000D03*
D14*
X175895000Y-71120000D03*
D15*
X182880000Y-69850000D03*
D16*
X182441629Y-68951206D02*
X183318371Y-70748794D01*
G04 #@! TD*
D12*
G04 #@! TO.C,SW22*
X174205000Y-92710000D03*
X185205000Y-92710000D03*
D13*
X174485000Y-88510000D03*
X184925000Y-88510000D03*
D14*
X184705000Y-96510000D03*
X174705000Y-96510000D03*
X179705000Y-98610000D03*
D15*
X176530000Y-88900000D03*
D16*
X176968371Y-88001206D02*
X176091629Y-89798794D01*
D14*
X183515000Y-90170000D03*
X182245000Y-87630000D03*
X177165000Y-87630000D03*
D17*
X179705000Y-92710000D03*
D18*
X174625000Y-92710000D03*
X184785000Y-92710000D03*
D14*
X175895000Y-90170000D03*
D15*
X182880000Y-88900000D03*
D16*
X182441629Y-88001206D02*
X183318371Y-89798794D01*
G04 #@! TD*
D12*
G04 #@! TO.C,SW23*
X174205000Y-111760000D03*
X185205000Y-111760000D03*
D13*
X174485000Y-107560000D03*
X184925000Y-107560000D03*
D14*
X184705000Y-115560000D03*
X174705000Y-115560000D03*
X179705000Y-117660000D03*
D15*
X176530000Y-107950000D03*
D16*
X176968371Y-107051206D02*
X176091629Y-108848794D01*
D14*
X183515000Y-109220000D03*
X182245000Y-106680000D03*
X177165000Y-106680000D03*
D17*
X179705000Y-111760000D03*
D18*
X174625000Y-111760000D03*
X184785000Y-111760000D03*
D14*
X175895000Y-109220000D03*
D15*
X182880000Y-107950000D03*
D16*
X182441629Y-107051206D02*
X183318371Y-108848794D01*
G04 #@! TD*
D12*
G04 #@! TO.C,SW24*
X174205000Y-130810000D03*
X185205000Y-130810000D03*
D13*
X174485000Y-126610000D03*
X184925000Y-126610000D03*
D14*
X184705000Y-134610000D03*
X174705000Y-134610000D03*
X179705000Y-136710000D03*
D15*
X176530000Y-127000000D03*
D16*
X176968371Y-126101206D02*
X176091629Y-127898794D01*
D14*
X183515000Y-128270000D03*
X182245000Y-125730000D03*
X177165000Y-125730000D03*
D17*
X179705000Y-130810000D03*
D18*
X174625000Y-130810000D03*
X184785000Y-130810000D03*
D14*
X175895000Y-128270000D03*
D15*
X182880000Y-127000000D03*
D16*
X182441629Y-126101206D02*
X183318371Y-127898794D01*
G04 #@! TD*
D12*
G04 #@! TO.C,SW25*
X193255000Y-73660000D03*
X204255000Y-73660000D03*
D13*
X193535000Y-69460000D03*
X203975000Y-69460000D03*
D14*
X203755000Y-77460000D03*
X193755000Y-77460000D03*
X198755000Y-79560000D03*
D15*
X195580000Y-69850000D03*
D16*
X196018371Y-68951206D02*
X195141629Y-70748794D01*
D14*
X202565000Y-71120000D03*
X201295000Y-68580000D03*
X196215000Y-68580000D03*
D17*
X198755000Y-73660000D03*
D18*
X193675000Y-73660000D03*
X203835000Y-73660000D03*
D14*
X194945000Y-71120000D03*
D15*
X201930000Y-69850000D03*
D16*
X201491629Y-68951206D02*
X202368371Y-70748794D01*
G04 #@! TD*
D12*
G04 #@! TO.C,SW26*
X193255000Y-92710000D03*
X204255000Y-92710000D03*
D13*
X193535000Y-88510000D03*
X203975000Y-88510000D03*
D14*
X203755000Y-96510000D03*
X193755000Y-96510000D03*
X198755000Y-98610000D03*
D15*
X195580000Y-88900000D03*
D16*
X196018371Y-88001206D02*
X195141629Y-89798794D01*
D14*
X202565000Y-90170000D03*
X201295000Y-87630000D03*
X196215000Y-87630000D03*
D17*
X198755000Y-92710000D03*
D18*
X193675000Y-92710000D03*
X203835000Y-92710000D03*
D14*
X194945000Y-90170000D03*
D15*
X201930000Y-88900000D03*
D16*
X201491629Y-88001206D02*
X202368371Y-89798794D01*
G04 #@! TD*
D12*
G04 #@! TO.C,SW27*
X193255000Y-111760000D03*
X204255000Y-111760000D03*
D13*
X193535000Y-107560000D03*
X203975000Y-107560000D03*
D14*
X203755000Y-115560000D03*
X193755000Y-115560000D03*
X198755000Y-117660000D03*
D15*
X195580000Y-107950000D03*
D16*
X196018371Y-107051206D02*
X195141629Y-108848794D01*
D14*
X202565000Y-109220000D03*
X201295000Y-106680000D03*
X196215000Y-106680000D03*
D17*
X198755000Y-111760000D03*
D18*
X193675000Y-111760000D03*
X203835000Y-111760000D03*
D14*
X194945000Y-109220000D03*
D15*
X201930000Y-107950000D03*
D16*
X201491629Y-107051206D02*
X202368371Y-108848794D01*
G04 #@! TD*
D12*
G04 #@! TO.C,SW28*
X193255000Y-130810000D03*
X204255000Y-130810000D03*
D13*
X193535000Y-126610000D03*
X203975000Y-126610000D03*
D14*
X203755000Y-134610000D03*
X193755000Y-134610000D03*
X198755000Y-136710000D03*
D15*
X195580000Y-127000000D03*
D16*
X196018371Y-126101206D02*
X195141629Y-127898794D01*
D14*
X202565000Y-128270000D03*
X201295000Y-125730000D03*
X196215000Y-125730000D03*
D17*
X198755000Y-130810000D03*
D18*
X193675000Y-130810000D03*
X203835000Y-130810000D03*
D14*
X194945000Y-128270000D03*
D15*
X201930000Y-127000000D03*
D16*
X201491629Y-126101206D02*
X202368371Y-127898794D01*
G04 #@! TD*
D19*
G04 #@! TO.C,SW29*
X193675000Y-57785000D03*
X198755000Y-57785000D03*
G04 #@! TD*
D20*
G04 #@! TO.C,U1*
X132080000Y-102235000D03*
G04 #@! TD*
G04 #@! TO.C,U2*
X189230000Y-83185000D03*
G04 #@! TD*
G04 #@! TO.C,U4*
X189230000Y-121285000D03*
G04 #@! TD*
G04 #@! TO.C,U5*
X93980000Y-83185000D03*
G04 #@! TD*
G04 #@! TO.C,U7*
X93980000Y-121285000D03*
G04 #@! TD*
D21*
G04 #@! TO.C,W1*
X188230000Y-64135000D03*
X190230000Y-64135000D03*
G04 #@! TD*
D22*
G04 #@! TO.C,D28*
X207645000Y-129180000D03*
D23*
X207645000Y-135890000D03*
D11*
X207645000Y-125730000D03*
D22*
X207645000Y-132440000D03*
G04 #@! TD*
G04 #@! TO.C,D27*
X207645000Y-110130000D03*
D23*
X207645000Y-116840000D03*
D11*
X207645000Y-106680000D03*
D22*
X207645000Y-113390000D03*
G04 #@! TD*
G04 #@! TO.C,D26*
X207645000Y-91080000D03*
D23*
X207645000Y-97790000D03*
D11*
X207645000Y-87630000D03*
D22*
X207645000Y-94340000D03*
G04 #@! TD*
G04 #@! TO.C,D25*
X207645000Y-72030000D03*
D23*
X207645000Y-78740000D03*
D11*
X207645000Y-68580000D03*
D22*
X207645000Y-75290000D03*
G04 #@! TD*
G04 #@! TO.C,D24*
X189230000Y-129180000D03*
D23*
X189230000Y-135890000D03*
D11*
X189230000Y-125730000D03*
D22*
X189230000Y-132440000D03*
G04 #@! TD*
G04 #@! TO.C,D23*
X189230000Y-110130000D03*
D23*
X189230000Y-116840000D03*
D11*
X189230000Y-106680000D03*
D22*
X189230000Y-113390000D03*
G04 #@! TD*
G04 #@! TO.C,D22*
X189230000Y-91080000D03*
D23*
X189230000Y-97790000D03*
D11*
X189230000Y-87630000D03*
D22*
X189230000Y-94340000D03*
G04 #@! TD*
G04 #@! TO.C,D21*
X189230000Y-72030000D03*
D23*
X189230000Y-78740000D03*
D11*
X189230000Y-68580000D03*
D22*
X189230000Y-75290000D03*
G04 #@! TD*
G04 #@! TO.C,D20*
X170180000Y-129180000D03*
D23*
X170180000Y-135890000D03*
D11*
X170180000Y-125730000D03*
D22*
X170180000Y-132440000D03*
G04 #@! TD*
G04 #@! TO.C,D19*
X170180000Y-110130000D03*
D23*
X170180000Y-116840000D03*
D11*
X170180000Y-106680000D03*
D22*
X170180000Y-113390000D03*
G04 #@! TD*
G04 #@! TO.C,D18*
X170180000Y-91080000D03*
D23*
X170180000Y-97790000D03*
D11*
X170180000Y-87630000D03*
D22*
X170180000Y-94340000D03*
G04 #@! TD*
G04 #@! TO.C,D17*
X170180000Y-72030000D03*
D23*
X170180000Y-78740000D03*
D11*
X170180000Y-68580000D03*
D22*
X170180000Y-75290000D03*
G04 #@! TD*
G04 #@! TO.C,D16*
X151130000Y-129180000D03*
D23*
X151130000Y-135890000D03*
D11*
X151130000Y-125730000D03*
D22*
X151130000Y-132440000D03*
G04 #@! TD*
G04 #@! TO.C,D15*
X151130000Y-110130000D03*
D23*
X151130000Y-116840000D03*
D11*
X151130000Y-106680000D03*
D22*
X151130000Y-113390000D03*
G04 #@! TD*
G04 #@! TO.C,D14*
X151130000Y-91080000D03*
D23*
X151130000Y-97790000D03*
D11*
X151130000Y-87630000D03*
D22*
X151130000Y-94340000D03*
G04 #@! TD*
G04 #@! TO.C,D13*
X151130000Y-72030000D03*
D23*
X151130000Y-78740000D03*
D11*
X151130000Y-68580000D03*
D22*
X151130000Y-75290000D03*
G04 #@! TD*
G04 #@! TO.C,D12*
X132080000Y-129180000D03*
D23*
X132080000Y-135890000D03*
D11*
X132080000Y-125730000D03*
D22*
X132080000Y-132440000D03*
G04 #@! TD*
G04 #@! TO.C,D11*
X132080000Y-110130000D03*
D23*
X132080000Y-116840000D03*
D11*
X132080000Y-106680000D03*
D22*
X132080000Y-113390000D03*
G04 #@! TD*
G04 #@! TO.C,D10*
X132080000Y-91080000D03*
D23*
X132080000Y-97790000D03*
D11*
X132080000Y-87630000D03*
D22*
X132080000Y-94340000D03*
G04 #@! TD*
G04 #@! TO.C,D9*
X132080000Y-72030000D03*
D23*
X132080000Y-78740000D03*
D11*
X132080000Y-68580000D03*
D22*
X132080000Y-75290000D03*
G04 #@! TD*
G04 #@! TO.C,D8*
X113030000Y-129180000D03*
D23*
X113030000Y-135890000D03*
D11*
X113030000Y-125730000D03*
D22*
X113030000Y-132440000D03*
G04 #@! TD*
G04 #@! TO.C,D7*
X113030000Y-110130000D03*
D23*
X113030000Y-116840000D03*
D11*
X113030000Y-106680000D03*
D22*
X113030000Y-113390000D03*
G04 #@! TD*
G04 #@! TO.C,D6*
X113030000Y-91080000D03*
D23*
X113030000Y-97790000D03*
D11*
X113030000Y-87630000D03*
D22*
X113030000Y-94340000D03*
G04 #@! TD*
G04 #@! TO.C,D5*
X113030000Y-72030000D03*
D23*
X113030000Y-78740000D03*
D11*
X113030000Y-68580000D03*
D22*
X113030000Y-75290000D03*
G04 #@! TD*
G04 #@! TO.C,D4*
X93980000Y-129180000D03*
D23*
X93980000Y-135890000D03*
D11*
X93980000Y-125730000D03*
D22*
X93980000Y-132440000D03*
G04 #@! TD*
G04 #@! TO.C,D3*
X93980000Y-110130000D03*
D23*
X93980000Y-116840000D03*
D11*
X93980000Y-106680000D03*
D22*
X93980000Y-113390000D03*
G04 #@! TD*
G04 #@! TO.C,D2*
X93980000Y-91080000D03*
D23*
X93980000Y-97790000D03*
D11*
X93980000Y-87630000D03*
D22*
X93980000Y-94340000D03*
G04 #@! TD*
G04 #@! TO.C,D1*
X93980000Y-72030000D03*
D23*
X93980000Y-78740000D03*
D11*
X93980000Y-68580000D03*
D22*
X93980000Y-75290000D03*
G04 #@! TD*
D19*
G04 #@! TO.C,U3*
X165735000Y-57150000D03*
X168275000Y-57150000D03*
X170815000Y-57150000D03*
X173355000Y-57150000D03*
X163195000Y-57150000D03*
X160655000Y-57150000D03*
X175895000Y-57150000D03*
X178435000Y-57150000D03*
X188595000Y-57150000D03*
X186055000Y-57150000D03*
X183515000Y-57150000D03*
X180975000Y-57150000D03*
X180975000Y-41910000D03*
X183515000Y-41910000D03*
X186055000Y-41910000D03*
X188595000Y-41910000D03*
X178435000Y-41910000D03*
X175895000Y-41910000D03*
X160655000Y-41910000D03*
X163195000Y-41910000D03*
X173355000Y-41910000D03*
X170815000Y-41910000D03*
X168275000Y-41910000D03*
X165735000Y-41910000D03*
X182245000Y-43180000D03*
X179705000Y-43180000D03*
X177165000Y-43180000D03*
X174625000Y-43180000D03*
X184785000Y-43180000D03*
X187325000Y-43180000D03*
X172085000Y-43180000D03*
X169545000Y-43180000D03*
X159385000Y-43180000D03*
X161925000Y-43180000D03*
X164465000Y-43180000D03*
X167005000Y-43180000D03*
X179705000Y-58420000D03*
X182245000Y-58420000D03*
X184785000Y-58420000D03*
X187325000Y-58420000D03*
X177165000Y-58420000D03*
X174625000Y-58420000D03*
X159385000Y-58420000D03*
X161925000Y-58420000D03*
X172085000Y-58420000D03*
X169545000Y-58420000D03*
X167005000Y-58420000D03*
X164465000Y-58420000D03*
G04 #@! TD*
D13*
G04 #@! TO.C,J1*
X198215000Y-41505000D03*
X194215000Y-41505000D03*
D24*
X196215000Y-46305000D03*
X192215000Y-51805000D03*
X196215000Y-50305000D03*
X200215000Y-51805000D03*
X196215000Y-43305000D03*
D13*
X194215000Y-48505000D03*
X198215000Y-48505000D03*
G04 #@! TD*
M02*
