G04 #@! TF.FileFunction,Legend,Top*
%FSLAX46Y46*%
G04 Gerber Fmt 4.6, Leading zero omitted, Abs format (unit mm)*
G04 Created by KiCad (PCBNEW 4.0.7-e2-6376~58~ubuntu16.04.1) date Mon Jan 29 00:50:58 2018*
%MOMM*%
%LPD*%
G01*
G04 APERTURE LIST*
%ADD10C,0.100000*%
%ADD11C,0.120000*%
%ADD12C,0.150000*%
%ADD13C,2.000000*%
%ADD14O,2.000000X2.000000*%
%ADD15C,2.300000*%
%ADD16C,1.600000*%
%ADD17C,3.000000*%
%ADD18C,2.400000*%
%ADD19C,4.387800*%
%ADD20C,2.101800*%
%ADD21C,1.924000*%
%ADD22C,5.400000*%
%ADD23R,2.000000X2.000000*%
%ADD24R,1.924000X1.924000*%
%ADD25C,1.390600*%
%ADD26C,2.152600*%
%ADD27R,1.600000X2.000000*%
G04 APERTURE END LIST*
D10*
D11*
X176495000Y-62825000D02*
X176495000Y-65445000D01*
X176495000Y-65445000D02*
X182915000Y-65445000D01*
X182915000Y-65445000D02*
X182915000Y-62825000D01*
X182915000Y-62825000D02*
X176495000Y-62825000D01*
X175605000Y-64135000D02*
X176495000Y-64135000D01*
X183805000Y-64135000D02*
X182915000Y-64135000D01*
X195545000Y-62825000D02*
X195545000Y-65445000D01*
X195545000Y-65445000D02*
X201965000Y-65445000D01*
X201965000Y-65445000D02*
X201965000Y-62825000D01*
X201965000Y-62825000D02*
X195545000Y-62825000D01*
X194655000Y-64135000D02*
X195545000Y-64135000D01*
X202855000Y-64135000D02*
X201965000Y-64135000D01*
D12*
X134908427Y-102235000D02*
G75*
G03X134908427Y-102235000I-2828427J0D01*
G01*
X192058427Y-83185000D02*
G75*
G03X192058427Y-83185000I-2828427J0D01*
G01*
X158750000Y-59690000D02*
X189230000Y-59690000D01*
X158750000Y-59690000D02*
X158750000Y-54610000D01*
X158750000Y-54610000D02*
X156210000Y-54610000D01*
X156210000Y-54610000D02*
X156210000Y-46990000D01*
X156210000Y-46990000D02*
X158750000Y-46990000D01*
X158750000Y-46990000D02*
X158750000Y-41910000D01*
X158750000Y-41910000D02*
X189230000Y-41910000D01*
X189230000Y-41910000D02*
X189230000Y-59690000D01*
X192058427Y-121285000D02*
G75*
G03X192058427Y-121285000I-2828427J0D01*
G01*
X96808427Y-83185000D02*
G75*
G03X96808427Y-83185000I-2828427J0D01*
G01*
X96808427Y-121285000D02*
G75*
G03X96808427Y-121285000I-2828427J0D01*
G01*
X187325000Y-62865000D02*
X187325000Y-65405000D01*
X187325000Y-65405000D02*
X191135000Y-65405000D01*
X191135000Y-65405000D02*
X191135000Y-62865000D01*
X191135000Y-62865000D02*
X187325000Y-62865000D01*
X191135000Y-41275000D02*
X191135000Y-53975000D01*
X191135000Y-53975000D02*
X197485000Y-53975000D01*
X197485000Y-53975000D02*
X197485000Y-41275000D01*
X197485000Y-41275000D02*
X196215000Y-41275000D01*
X196215000Y-41275000D02*
X196215000Y-40005000D01*
X196215000Y-40005000D02*
X192405000Y-40005000D01*
X192405000Y-40005000D02*
X192405000Y-41275000D01*
X192405000Y-41275000D02*
X191135000Y-41275000D01*
X207645000Y-131330000D02*
X206945000Y-130290000D01*
X206945000Y-130290000D02*
X208345000Y-130290000D01*
X208345000Y-130290000D02*
X207645000Y-131330000D01*
X208345000Y-131330000D02*
X206945000Y-131330000D01*
X207645000Y-127970000D02*
X207645000Y-127000000D01*
X207645000Y-134620000D02*
X207645000Y-133650000D01*
X207645000Y-112280000D02*
X206945000Y-111240000D01*
X206945000Y-111240000D02*
X208345000Y-111240000D01*
X208345000Y-111240000D02*
X207645000Y-112280000D01*
X208345000Y-112280000D02*
X206945000Y-112280000D01*
X207645000Y-108920000D02*
X207645000Y-107950000D01*
X207645000Y-115570000D02*
X207645000Y-114600000D01*
X207645000Y-93230000D02*
X206945000Y-92190000D01*
X206945000Y-92190000D02*
X208345000Y-92190000D01*
X208345000Y-92190000D02*
X207645000Y-93230000D01*
X208345000Y-93230000D02*
X206945000Y-93230000D01*
X207645000Y-89870000D02*
X207645000Y-88900000D01*
X207645000Y-96520000D02*
X207645000Y-95550000D01*
X207645000Y-74180000D02*
X206945000Y-73140000D01*
X206945000Y-73140000D02*
X208345000Y-73140000D01*
X208345000Y-73140000D02*
X207645000Y-74180000D01*
X208345000Y-74180000D02*
X206945000Y-74180000D01*
X207645000Y-70820000D02*
X207645000Y-69850000D01*
X207645000Y-77470000D02*
X207645000Y-76500000D01*
X189230000Y-131330000D02*
X188530000Y-130290000D01*
X188530000Y-130290000D02*
X189930000Y-130290000D01*
X189930000Y-130290000D02*
X189230000Y-131330000D01*
X189930000Y-131330000D02*
X188530000Y-131330000D01*
X189230000Y-127970000D02*
X189230000Y-127000000D01*
X189230000Y-134620000D02*
X189230000Y-133650000D01*
X189230000Y-112280000D02*
X188530000Y-111240000D01*
X188530000Y-111240000D02*
X189930000Y-111240000D01*
X189930000Y-111240000D02*
X189230000Y-112280000D01*
X189930000Y-112280000D02*
X188530000Y-112280000D01*
X189230000Y-108920000D02*
X189230000Y-107950000D01*
X189230000Y-115570000D02*
X189230000Y-114600000D01*
X189230000Y-93230000D02*
X188530000Y-92190000D01*
X188530000Y-92190000D02*
X189930000Y-92190000D01*
X189930000Y-92190000D02*
X189230000Y-93230000D01*
X189930000Y-93230000D02*
X188530000Y-93230000D01*
X189230000Y-89870000D02*
X189230000Y-88900000D01*
X189230000Y-96520000D02*
X189230000Y-95550000D01*
X189230000Y-74180000D02*
X188530000Y-73140000D01*
X188530000Y-73140000D02*
X189930000Y-73140000D01*
X189930000Y-73140000D02*
X189230000Y-74180000D01*
X189930000Y-74180000D02*
X188530000Y-74180000D01*
X189230000Y-70820000D02*
X189230000Y-69850000D01*
X189230000Y-77470000D02*
X189230000Y-76500000D01*
X170180000Y-131330000D02*
X169480000Y-130290000D01*
X169480000Y-130290000D02*
X170880000Y-130290000D01*
X170880000Y-130290000D02*
X170180000Y-131330000D01*
X170880000Y-131330000D02*
X169480000Y-131330000D01*
X170180000Y-127970000D02*
X170180000Y-127000000D01*
X170180000Y-134620000D02*
X170180000Y-133650000D01*
X170180000Y-112280000D02*
X169480000Y-111240000D01*
X169480000Y-111240000D02*
X170880000Y-111240000D01*
X170880000Y-111240000D02*
X170180000Y-112280000D01*
X170880000Y-112280000D02*
X169480000Y-112280000D01*
X170180000Y-108920000D02*
X170180000Y-107950000D01*
X170180000Y-115570000D02*
X170180000Y-114600000D01*
X170180000Y-93230000D02*
X169480000Y-92190000D01*
X169480000Y-92190000D02*
X170880000Y-92190000D01*
X170880000Y-92190000D02*
X170180000Y-93230000D01*
X170880000Y-93230000D02*
X169480000Y-93230000D01*
X170180000Y-89870000D02*
X170180000Y-88900000D01*
X170180000Y-96520000D02*
X170180000Y-95550000D01*
X170180000Y-74180000D02*
X169480000Y-73140000D01*
X169480000Y-73140000D02*
X170880000Y-73140000D01*
X170880000Y-73140000D02*
X170180000Y-74180000D01*
X170880000Y-74180000D02*
X169480000Y-74180000D01*
X170180000Y-70820000D02*
X170180000Y-69850000D01*
X170180000Y-77470000D02*
X170180000Y-76500000D01*
X151130000Y-131330000D02*
X150430000Y-130290000D01*
X150430000Y-130290000D02*
X151830000Y-130290000D01*
X151830000Y-130290000D02*
X151130000Y-131330000D01*
X151830000Y-131330000D02*
X150430000Y-131330000D01*
X151130000Y-127970000D02*
X151130000Y-127000000D01*
X151130000Y-134620000D02*
X151130000Y-133650000D01*
X151130000Y-112280000D02*
X150430000Y-111240000D01*
X150430000Y-111240000D02*
X151830000Y-111240000D01*
X151830000Y-111240000D02*
X151130000Y-112280000D01*
X151830000Y-112280000D02*
X150430000Y-112280000D01*
X151130000Y-108920000D02*
X151130000Y-107950000D01*
X151130000Y-115570000D02*
X151130000Y-114600000D01*
X151130000Y-93230000D02*
X150430000Y-92190000D01*
X150430000Y-92190000D02*
X151830000Y-92190000D01*
X151830000Y-92190000D02*
X151130000Y-93230000D01*
X151830000Y-93230000D02*
X150430000Y-93230000D01*
X151130000Y-89870000D02*
X151130000Y-88900000D01*
X151130000Y-96520000D02*
X151130000Y-95550000D01*
X151130000Y-74180000D02*
X150430000Y-73140000D01*
X150430000Y-73140000D02*
X151830000Y-73140000D01*
X151830000Y-73140000D02*
X151130000Y-74180000D01*
X151830000Y-74180000D02*
X150430000Y-74180000D01*
X151130000Y-70820000D02*
X151130000Y-69850000D01*
X151130000Y-77470000D02*
X151130000Y-76500000D01*
X132080000Y-131330000D02*
X131380000Y-130290000D01*
X131380000Y-130290000D02*
X132780000Y-130290000D01*
X132780000Y-130290000D02*
X132080000Y-131330000D01*
X132780000Y-131330000D02*
X131380000Y-131330000D01*
X132080000Y-127970000D02*
X132080000Y-127000000D01*
X132080000Y-134620000D02*
X132080000Y-133650000D01*
X132080000Y-112280000D02*
X131380000Y-111240000D01*
X131380000Y-111240000D02*
X132780000Y-111240000D01*
X132780000Y-111240000D02*
X132080000Y-112280000D01*
X132780000Y-112280000D02*
X131380000Y-112280000D01*
X132080000Y-108920000D02*
X132080000Y-107950000D01*
X132080000Y-115570000D02*
X132080000Y-114600000D01*
X132080000Y-93230000D02*
X131380000Y-92190000D01*
X131380000Y-92190000D02*
X132780000Y-92190000D01*
X132780000Y-92190000D02*
X132080000Y-93230000D01*
X132780000Y-93230000D02*
X131380000Y-93230000D01*
X132080000Y-89870000D02*
X132080000Y-88900000D01*
X132080000Y-96520000D02*
X132080000Y-95550000D01*
X132080000Y-74180000D02*
X131380000Y-73140000D01*
X131380000Y-73140000D02*
X132780000Y-73140000D01*
X132780000Y-73140000D02*
X132080000Y-74180000D01*
X132780000Y-74180000D02*
X131380000Y-74180000D01*
X132080000Y-70820000D02*
X132080000Y-69850000D01*
X132080000Y-77470000D02*
X132080000Y-76500000D01*
X113030000Y-131330000D02*
X112330000Y-130290000D01*
X112330000Y-130290000D02*
X113730000Y-130290000D01*
X113730000Y-130290000D02*
X113030000Y-131330000D01*
X113730000Y-131330000D02*
X112330000Y-131330000D01*
X113030000Y-127970000D02*
X113030000Y-127000000D01*
X113030000Y-134620000D02*
X113030000Y-133650000D01*
X113030000Y-112280000D02*
X112330000Y-111240000D01*
X112330000Y-111240000D02*
X113730000Y-111240000D01*
X113730000Y-111240000D02*
X113030000Y-112280000D01*
X113730000Y-112280000D02*
X112330000Y-112280000D01*
X113030000Y-108920000D02*
X113030000Y-107950000D01*
X113030000Y-115570000D02*
X113030000Y-114600000D01*
X113030000Y-93230000D02*
X112330000Y-92190000D01*
X112330000Y-92190000D02*
X113730000Y-92190000D01*
X113730000Y-92190000D02*
X113030000Y-93230000D01*
X113730000Y-93230000D02*
X112330000Y-93230000D01*
X113030000Y-89870000D02*
X113030000Y-88900000D01*
X113030000Y-96520000D02*
X113030000Y-95550000D01*
X113030000Y-74180000D02*
X112330000Y-73140000D01*
X112330000Y-73140000D02*
X113730000Y-73140000D01*
X113730000Y-73140000D02*
X113030000Y-74180000D01*
X113730000Y-74180000D02*
X112330000Y-74180000D01*
X113030000Y-70820000D02*
X113030000Y-69850000D01*
X113030000Y-77470000D02*
X113030000Y-76500000D01*
X93980000Y-131330000D02*
X93280000Y-130290000D01*
X93280000Y-130290000D02*
X94680000Y-130290000D01*
X94680000Y-130290000D02*
X93980000Y-131330000D01*
X94680000Y-131330000D02*
X93280000Y-131330000D01*
X93980000Y-127970000D02*
X93980000Y-127000000D01*
X93980000Y-134620000D02*
X93980000Y-133650000D01*
X93980000Y-112280000D02*
X93280000Y-111240000D01*
X93280000Y-111240000D02*
X94680000Y-111240000D01*
X94680000Y-111240000D02*
X93980000Y-112280000D01*
X94680000Y-112280000D02*
X93280000Y-112280000D01*
X93980000Y-108920000D02*
X93980000Y-107950000D01*
X93980000Y-115570000D02*
X93980000Y-114600000D01*
X93980000Y-93230000D02*
X93280000Y-92190000D01*
X93280000Y-92190000D02*
X94680000Y-92190000D01*
X94680000Y-92190000D02*
X93980000Y-93230000D01*
X94680000Y-93230000D02*
X93280000Y-93230000D01*
X93980000Y-89870000D02*
X93980000Y-88900000D01*
X93980000Y-96520000D02*
X93980000Y-95550000D01*
X93980000Y-74180000D02*
X93280000Y-73140000D01*
X93280000Y-73140000D02*
X94680000Y-73140000D01*
X94680000Y-73140000D02*
X93980000Y-74180000D01*
X94680000Y-74180000D02*
X93280000Y-74180000D01*
X93980000Y-70820000D02*
X93980000Y-69850000D01*
X93980000Y-77470000D02*
X93980000Y-76500000D01*
X179538334Y-62277381D02*
X179205000Y-61801190D01*
X178966905Y-62277381D02*
X178966905Y-61277381D01*
X179347858Y-61277381D01*
X179443096Y-61325000D01*
X179490715Y-61372619D01*
X179538334Y-61467857D01*
X179538334Y-61610714D01*
X179490715Y-61705952D01*
X179443096Y-61753571D01*
X179347858Y-61801190D01*
X178966905Y-61801190D01*
X180490715Y-62277381D02*
X179919286Y-62277381D01*
X180205000Y-62277381D02*
X180205000Y-61277381D01*
X180109762Y-61420238D01*
X180014524Y-61515476D01*
X179919286Y-61563095D01*
X198588334Y-62277381D02*
X198255000Y-61801190D01*
X198016905Y-62277381D02*
X198016905Y-61277381D01*
X198397858Y-61277381D01*
X198493096Y-61325000D01*
X198540715Y-61372619D01*
X198588334Y-61467857D01*
X198588334Y-61610714D01*
X198540715Y-61705952D01*
X198493096Y-61753571D01*
X198397858Y-61801190D01*
X198016905Y-61801190D01*
X198969286Y-61372619D02*
X199016905Y-61325000D01*
X199112143Y-61277381D01*
X199350239Y-61277381D01*
X199445477Y-61325000D01*
X199493096Y-61372619D01*
X199540715Y-61467857D01*
X199540715Y-61563095D01*
X199493096Y-61705952D01*
X198921667Y-62277381D01*
X199540715Y-62277381D01*
X194405476Y-56919762D02*
X194548333Y-56967381D01*
X194786429Y-56967381D01*
X194881667Y-56919762D01*
X194929286Y-56872143D01*
X194976905Y-56776905D01*
X194976905Y-56681667D01*
X194929286Y-56586429D01*
X194881667Y-56538810D01*
X194786429Y-56491190D01*
X194595952Y-56443571D01*
X194500714Y-56395952D01*
X194453095Y-56348333D01*
X194405476Y-56253095D01*
X194405476Y-56157857D01*
X194453095Y-56062619D01*
X194500714Y-56015000D01*
X194595952Y-55967381D01*
X194834048Y-55967381D01*
X194976905Y-56015000D01*
X195310238Y-55967381D02*
X195548333Y-56967381D01*
X195738810Y-56253095D01*
X195929286Y-56967381D01*
X196167381Y-55967381D01*
X196500714Y-56062619D02*
X196548333Y-56015000D01*
X196643571Y-55967381D01*
X196881667Y-55967381D01*
X196976905Y-56015000D01*
X197024524Y-56062619D01*
X197072143Y-56157857D01*
X197072143Y-56253095D01*
X197024524Y-56395952D01*
X196453095Y-56967381D01*
X197072143Y-56967381D01*
X197548333Y-56967381D02*
X197738809Y-56967381D01*
X197834048Y-56919762D01*
X197881667Y-56872143D01*
X197976905Y-56729286D01*
X198024524Y-56538810D01*
X198024524Y-56157857D01*
X197976905Y-56062619D01*
X197929286Y-56015000D01*
X197834048Y-55967381D01*
X197643571Y-55967381D01*
X197548333Y-56015000D01*
X197500714Y-56062619D01*
X197453095Y-56157857D01*
X197453095Y-56395952D01*
X197500714Y-56491190D01*
X197548333Y-56538810D01*
X197643571Y-56586429D01*
X197834048Y-56586429D01*
X197929286Y-56538810D01*
X197976905Y-56491190D01*
X198024524Y-56395952D01*
X131318095Y-99687381D02*
X131318095Y-100496905D01*
X131365714Y-100592143D01*
X131413333Y-100639762D01*
X131508571Y-100687381D01*
X131699048Y-100687381D01*
X131794286Y-100639762D01*
X131841905Y-100592143D01*
X131889524Y-100496905D01*
X131889524Y-99687381D01*
X132889524Y-100687381D02*
X132318095Y-100687381D01*
X132603809Y-100687381D02*
X132603809Y-99687381D01*
X132508571Y-99830238D01*
X132413333Y-99925476D01*
X132318095Y-99973095D01*
X188468095Y-80637381D02*
X188468095Y-81446905D01*
X188515714Y-81542143D01*
X188563333Y-81589762D01*
X188658571Y-81637381D01*
X188849048Y-81637381D01*
X188944286Y-81589762D01*
X188991905Y-81542143D01*
X189039524Y-81446905D01*
X189039524Y-80637381D01*
X189468095Y-80732619D02*
X189515714Y-80685000D01*
X189610952Y-80637381D01*
X189849048Y-80637381D01*
X189944286Y-80685000D01*
X189991905Y-80732619D01*
X190039524Y-80827857D01*
X190039524Y-80923095D01*
X189991905Y-81065952D01*
X189420476Y-81637381D01*
X190039524Y-81637381D01*
X188468095Y-118737381D02*
X188468095Y-119546905D01*
X188515714Y-119642143D01*
X188563333Y-119689762D01*
X188658571Y-119737381D01*
X188849048Y-119737381D01*
X188944286Y-119689762D01*
X188991905Y-119642143D01*
X189039524Y-119546905D01*
X189039524Y-118737381D01*
X189944286Y-119070714D02*
X189944286Y-119737381D01*
X189706190Y-118689762D02*
X189468095Y-119404048D01*
X190087143Y-119404048D01*
X93218095Y-80637381D02*
X93218095Y-81446905D01*
X93265714Y-81542143D01*
X93313333Y-81589762D01*
X93408571Y-81637381D01*
X93599048Y-81637381D01*
X93694286Y-81589762D01*
X93741905Y-81542143D01*
X93789524Y-81446905D01*
X93789524Y-80637381D01*
X94741905Y-80637381D02*
X94265714Y-80637381D01*
X94218095Y-81113571D01*
X94265714Y-81065952D01*
X94360952Y-81018333D01*
X94599048Y-81018333D01*
X94694286Y-81065952D01*
X94741905Y-81113571D01*
X94789524Y-81208810D01*
X94789524Y-81446905D01*
X94741905Y-81542143D01*
X94694286Y-81589762D01*
X94599048Y-81637381D01*
X94360952Y-81637381D01*
X94265714Y-81589762D01*
X94218095Y-81542143D01*
X93218095Y-118737381D02*
X93218095Y-119546905D01*
X93265714Y-119642143D01*
X93313333Y-119689762D01*
X93408571Y-119737381D01*
X93599048Y-119737381D01*
X93694286Y-119689762D01*
X93741905Y-119642143D01*
X93789524Y-119546905D01*
X93789524Y-118737381D01*
X94170476Y-118737381D02*
X94837143Y-118737381D01*
X94408571Y-119737381D01*
D10*
X188777620Y-65766190D02*
X188896667Y-66266190D01*
X188991905Y-65909048D01*
X189087143Y-66266190D01*
X189206191Y-65766190D01*
X189658572Y-66266190D02*
X189372858Y-66266190D01*
X189515715Y-66266190D02*
X189515715Y-65766190D01*
X189468096Y-65837619D01*
X189420477Y-65885238D01*
X189372858Y-65909048D01*
D12*
X206037381Y-132024286D02*
X205037381Y-132024286D01*
X205037381Y-131786191D01*
X205085000Y-131643333D01*
X205180238Y-131548095D01*
X205275476Y-131500476D01*
X205465952Y-131452857D01*
X205608810Y-131452857D01*
X205799286Y-131500476D01*
X205894524Y-131548095D01*
X205989762Y-131643333D01*
X206037381Y-131786191D01*
X206037381Y-132024286D01*
X205132619Y-131071905D02*
X205085000Y-131024286D01*
X205037381Y-130929048D01*
X205037381Y-130690952D01*
X205085000Y-130595714D01*
X205132619Y-130548095D01*
X205227857Y-130500476D01*
X205323095Y-130500476D01*
X205465952Y-130548095D01*
X206037381Y-131119524D01*
X206037381Y-130500476D01*
X205465952Y-129929048D02*
X205418333Y-130024286D01*
X205370714Y-130071905D01*
X205275476Y-130119524D01*
X205227857Y-130119524D01*
X205132619Y-130071905D01*
X205085000Y-130024286D01*
X205037381Y-129929048D01*
X205037381Y-129738571D01*
X205085000Y-129643333D01*
X205132619Y-129595714D01*
X205227857Y-129548095D01*
X205275476Y-129548095D01*
X205370714Y-129595714D01*
X205418333Y-129643333D01*
X205465952Y-129738571D01*
X205465952Y-129929048D01*
X205513571Y-130024286D01*
X205561190Y-130071905D01*
X205656429Y-130119524D01*
X205846905Y-130119524D01*
X205942143Y-130071905D01*
X205989762Y-130024286D01*
X206037381Y-129929048D01*
X206037381Y-129738571D01*
X205989762Y-129643333D01*
X205942143Y-129595714D01*
X205846905Y-129548095D01*
X205656429Y-129548095D01*
X205561190Y-129595714D01*
X205513571Y-129643333D01*
X205465952Y-129738571D01*
X206037381Y-112974286D02*
X205037381Y-112974286D01*
X205037381Y-112736191D01*
X205085000Y-112593333D01*
X205180238Y-112498095D01*
X205275476Y-112450476D01*
X205465952Y-112402857D01*
X205608810Y-112402857D01*
X205799286Y-112450476D01*
X205894524Y-112498095D01*
X205989762Y-112593333D01*
X206037381Y-112736191D01*
X206037381Y-112974286D01*
X205132619Y-112021905D02*
X205085000Y-111974286D01*
X205037381Y-111879048D01*
X205037381Y-111640952D01*
X205085000Y-111545714D01*
X205132619Y-111498095D01*
X205227857Y-111450476D01*
X205323095Y-111450476D01*
X205465952Y-111498095D01*
X206037381Y-112069524D01*
X206037381Y-111450476D01*
X205037381Y-111117143D02*
X205037381Y-110450476D01*
X206037381Y-110879048D01*
X206037381Y-93924286D02*
X205037381Y-93924286D01*
X205037381Y-93686191D01*
X205085000Y-93543333D01*
X205180238Y-93448095D01*
X205275476Y-93400476D01*
X205465952Y-93352857D01*
X205608810Y-93352857D01*
X205799286Y-93400476D01*
X205894524Y-93448095D01*
X205989762Y-93543333D01*
X206037381Y-93686191D01*
X206037381Y-93924286D01*
X205132619Y-92971905D02*
X205085000Y-92924286D01*
X205037381Y-92829048D01*
X205037381Y-92590952D01*
X205085000Y-92495714D01*
X205132619Y-92448095D01*
X205227857Y-92400476D01*
X205323095Y-92400476D01*
X205465952Y-92448095D01*
X206037381Y-93019524D01*
X206037381Y-92400476D01*
X205037381Y-91543333D02*
X205037381Y-91733810D01*
X205085000Y-91829048D01*
X205132619Y-91876667D01*
X205275476Y-91971905D01*
X205465952Y-92019524D01*
X205846905Y-92019524D01*
X205942143Y-91971905D01*
X205989762Y-91924286D01*
X206037381Y-91829048D01*
X206037381Y-91638571D01*
X205989762Y-91543333D01*
X205942143Y-91495714D01*
X205846905Y-91448095D01*
X205608810Y-91448095D01*
X205513571Y-91495714D01*
X205465952Y-91543333D01*
X205418333Y-91638571D01*
X205418333Y-91829048D01*
X205465952Y-91924286D01*
X205513571Y-91971905D01*
X205608810Y-92019524D01*
X206037381Y-74874286D02*
X205037381Y-74874286D01*
X205037381Y-74636191D01*
X205085000Y-74493333D01*
X205180238Y-74398095D01*
X205275476Y-74350476D01*
X205465952Y-74302857D01*
X205608810Y-74302857D01*
X205799286Y-74350476D01*
X205894524Y-74398095D01*
X205989762Y-74493333D01*
X206037381Y-74636191D01*
X206037381Y-74874286D01*
X205132619Y-73921905D02*
X205085000Y-73874286D01*
X205037381Y-73779048D01*
X205037381Y-73540952D01*
X205085000Y-73445714D01*
X205132619Y-73398095D01*
X205227857Y-73350476D01*
X205323095Y-73350476D01*
X205465952Y-73398095D01*
X206037381Y-73969524D01*
X206037381Y-73350476D01*
X205037381Y-72445714D02*
X205037381Y-72921905D01*
X205513571Y-72969524D01*
X205465952Y-72921905D01*
X205418333Y-72826667D01*
X205418333Y-72588571D01*
X205465952Y-72493333D01*
X205513571Y-72445714D01*
X205608810Y-72398095D01*
X205846905Y-72398095D01*
X205942143Y-72445714D01*
X205989762Y-72493333D01*
X206037381Y-72588571D01*
X206037381Y-72826667D01*
X205989762Y-72921905D01*
X205942143Y-72969524D01*
X187622381Y-132024286D02*
X186622381Y-132024286D01*
X186622381Y-131786191D01*
X186670000Y-131643333D01*
X186765238Y-131548095D01*
X186860476Y-131500476D01*
X187050952Y-131452857D01*
X187193810Y-131452857D01*
X187384286Y-131500476D01*
X187479524Y-131548095D01*
X187574762Y-131643333D01*
X187622381Y-131786191D01*
X187622381Y-132024286D01*
X186717619Y-131071905D02*
X186670000Y-131024286D01*
X186622381Y-130929048D01*
X186622381Y-130690952D01*
X186670000Y-130595714D01*
X186717619Y-130548095D01*
X186812857Y-130500476D01*
X186908095Y-130500476D01*
X187050952Y-130548095D01*
X187622381Y-131119524D01*
X187622381Y-130500476D01*
X186955714Y-129643333D02*
X187622381Y-129643333D01*
X186574762Y-129881429D02*
X187289048Y-130119524D01*
X187289048Y-129500476D01*
X187622381Y-112974286D02*
X186622381Y-112974286D01*
X186622381Y-112736191D01*
X186670000Y-112593333D01*
X186765238Y-112498095D01*
X186860476Y-112450476D01*
X187050952Y-112402857D01*
X187193810Y-112402857D01*
X187384286Y-112450476D01*
X187479524Y-112498095D01*
X187574762Y-112593333D01*
X187622381Y-112736191D01*
X187622381Y-112974286D01*
X186717619Y-112021905D02*
X186670000Y-111974286D01*
X186622381Y-111879048D01*
X186622381Y-111640952D01*
X186670000Y-111545714D01*
X186717619Y-111498095D01*
X186812857Y-111450476D01*
X186908095Y-111450476D01*
X187050952Y-111498095D01*
X187622381Y-112069524D01*
X187622381Y-111450476D01*
X186622381Y-111117143D02*
X186622381Y-110498095D01*
X187003333Y-110831429D01*
X187003333Y-110688571D01*
X187050952Y-110593333D01*
X187098571Y-110545714D01*
X187193810Y-110498095D01*
X187431905Y-110498095D01*
X187527143Y-110545714D01*
X187574762Y-110593333D01*
X187622381Y-110688571D01*
X187622381Y-110974286D01*
X187574762Y-111069524D01*
X187527143Y-111117143D01*
X187622381Y-93924286D02*
X186622381Y-93924286D01*
X186622381Y-93686191D01*
X186670000Y-93543333D01*
X186765238Y-93448095D01*
X186860476Y-93400476D01*
X187050952Y-93352857D01*
X187193810Y-93352857D01*
X187384286Y-93400476D01*
X187479524Y-93448095D01*
X187574762Y-93543333D01*
X187622381Y-93686191D01*
X187622381Y-93924286D01*
X186717619Y-92971905D02*
X186670000Y-92924286D01*
X186622381Y-92829048D01*
X186622381Y-92590952D01*
X186670000Y-92495714D01*
X186717619Y-92448095D01*
X186812857Y-92400476D01*
X186908095Y-92400476D01*
X187050952Y-92448095D01*
X187622381Y-93019524D01*
X187622381Y-92400476D01*
X186717619Y-92019524D02*
X186670000Y-91971905D01*
X186622381Y-91876667D01*
X186622381Y-91638571D01*
X186670000Y-91543333D01*
X186717619Y-91495714D01*
X186812857Y-91448095D01*
X186908095Y-91448095D01*
X187050952Y-91495714D01*
X187622381Y-92067143D01*
X187622381Y-91448095D01*
X187622381Y-74874286D02*
X186622381Y-74874286D01*
X186622381Y-74636191D01*
X186670000Y-74493333D01*
X186765238Y-74398095D01*
X186860476Y-74350476D01*
X187050952Y-74302857D01*
X187193810Y-74302857D01*
X187384286Y-74350476D01*
X187479524Y-74398095D01*
X187574762Y-74493333D01*
X187622381Y-74636191D01*
X187622381Y-74874286D01*
X186717619Y-73921905D02*
X186670000Y-73874286D01*
X186622381Y-73779048D01*
X186622381Y-73540952D01*
X186670000Y-73445714D01*
X186717619Y-73398095D01*
X186812857Y-73350476D01*
X186908095Y-73350476D01*
X187050952Y-73398095D01*
X187622381Y-73969524D01*
X187622381Y-73350476D01*
X187622381Y-72398095D02*
X187622381Y-72969524D01*
X187622381Y-72683810D02*
X186622381Y-72683810D01*
X186765238Y-72779048D01*
X186860476Y-72874286D01*
X186908095Y-72969524D01*
X168572381Y-132024286D02*
X167572381Y-132024286D01*
X167572381Y-131786191D01*
X167620000Y-131643333D01*
X167715238Y-131548095D01*
X167810476Y-131500476D01*
X168000952Y-131452857D01*
X168143810Y-131452857D01*
X168334286Y-131500476D01*
X168429524Y-131548095D01*
X168524762Y-131643333D01*
X168572381Y-131786191D01*
X168572381Y-132024286D01*
X167667619Y-131071905D02*
X167620000Y-131024286D01*
X167572381Y-130929048D01*
X167572381Y-130690952D01*
X167620000Y-130595714D01*
X167667619Y-130548095D01*
X167762857Y-130500476D01*
X167858095Y-130500476D01*
X168000952Y-130548095D01*
X168572381Y-131119524D01*
X168572381Y-130500476D01*
X167572381Y-129881429D02*
X167572381Y-129786190D01*
X167620000Y-129690952D01*
X167667619Y-129643333D01*
X167762857Y-129595714D01*
X167953333Y-129548095D01*
X168191429Y-129548095D01*
X168381905Y-129595714D01*
X168477143Y-129643333D01*
X168524762Y-129690952D01*
X168572381Y-129786190D01*
X168572381Y-129881429D01*
X168524762Y-129976667D01*
X168477143Y-130024286D01*
X168381905Y-130071905D01*
X168191429Y-130119524D01*
X167953333Y-130119524D01*
X167762857Y-130071905D01*
X167667619Y-130024286D01*
X167620000Y-129976667D01*
X167572381Y-129881429D01*
X168572381Y-112974286D02*
X167572381Y-112974286D01*
X167572381Y-112736191D01*
X167620000Y-112593333D01*
X167715238Y-112498095D01*
X167810476Y-112450476D01*
X168000952Y-112402857D01*
X168143810Y-112402857D01*
X168334286Y-112450476D01*
X168429524Y-112498095D01*
X168524762Y-112593333D01*
X168572381Y-112736191D01*
X168572381Y-112974286D01*
X168572381Y-111450476D02*
X168572381Y-112021905D01*
X168572381Y-111736191D02*
X167572381Y-111736191D01*
X167715238Y-111831429D01*
X167810476Y-111926667D01*
X167858095Y-112021905D01*
X168572381Y-110974286D02*
X168572381Y-110783810D01*
X168524762Y-110688571D01*
X168477143Y-110640952D01*
X168334286Y-110545714D01*
X168143810Y-110498095D01*
X167762857Y-110498095D01*
X167667619Y-110545714D01*
X167620000Y-110593333D01*
X167572381Y-110688571D01*
X167572381Y-110879048D01*
X167620000Y-110974286D01*
X167667619Y-111021905D01*
X167762857Y-111069524D01*
X168000952Y-111069524D01*
X168096190Y-111021905D01*
X168143810Y-110974286D01*
X168191429Y-110879048D01*
X168191429Y-110688571D01*
X168143810Y-110593333D01*
X168096190Y-110545714D01*
X168000952Y-110498095D01*
X168572381Y-93924286D02*
X167572381Y-93924286D01*
X167572381Y-93686191D01*
X167620000Y-93543333D01*
X167715238Y-93448095D01*
X167810476Y-93400476D01*
X168000952Y-93352857D01*
X168143810Y-93352857D01*
X168334286Y-93400476D01*
X168429524Y-93448095D01*
X168524762Y-93543333D01*
X168572381Y-93686191D01*
X168572381Y-93924286D01*
X168572381Y-92400476D02*
X168572381Y-92971905D01*
X168572381Y-92686191D02*
X167572381Y-92686191D01*
X167715238Y-92781429D01*
X167810476Y-92876667D01*
X167858095Y-92971905D01*
X168000952Y-91829048D02*
X167953333Y-91924286D01*
X167905714Y-91971905D01*
X167810476Y-92019524D01*
X167762857Y-92019524D01*
X167667619Y-91971905D01*
X167620000Y-91924286D01*
X167572381Y-91829048D01*
X167572381Y-91638571D01*
X167620000Y-91543333D01*
X167667619Y-91495714D01*
X167762857Y-91448095D01*
X167810476Y-91448095D01*
X167905714Y-91495714D01*
X167953333Y-91543333D01*
X168000952Y-91638571D01*
X168000952Y-91829048D01*
X168048571Y-91924286D01*
X168096190Y-91971905D01*
X168191429Y-92019524D01*
X168381905Y-92019524D01*
X168477143Y-91971905D01*
X168524762Y-91924286D01*
X168572381Y-91829048D01*
X168572381Y-91638571D01*
X168524762Y-91543333D01*
X168477143Y-91495714D01*
X168381905Y-91448095D01*
X168191429Y-91448095D01*
X168096190Y-91495714D01*
X168048571Y-91543333D01*
X168000952Y-91638571D01*
X168572381Y-74874286D02*
X167572381Y-74874286D01*
X167572381Y-74636191D01*
X167620000Y-74493333D01*
X167715238Y-74398095D01*
X167810476Y-74350476D01*
X168000952Y-74302857D01*
X168143810Y-74302857D01*
X168334286Y-74350476D01*
X168429524Y-74398095D01*
X168524762Y-74493333D01*
X168572381Y-74636191D01*
X168572381Y-74874286D01*
X168572381Y-73350476D02*
X168572381Y-73921905D01*
X168572381Y-73636191D02*
X167572381Y-73636191D01*
X167715238Y-73731429D01*
X167810476Y-73826667D01*
X167858095Y-73921905D01*
X167572381Y-73017143D02*
X167572381Y-72350476D01*
X168572381Y-72779048D01*
X149522381Y-132024286D02*
X148522381Y-132024286D01*
X148522381Y-131786191D01*
X148570000Y-131643333D01*
X148665238Y-131548095D01*
X148760476Y-131500476D01*
X148950952Y-131452857D01*
X149093810Y-131452857D01*
X149284286Y-131500476D01*
X149379524Y-131548095D01*
X149474762Y-131643333D01*
X149522381Y-131786191D01*
X149522381Y-132024286D01*
X149522381Y-130500476D02*
X149522381Y-131071905D01*
X149522381Y-130786191D02*
X148522381Y-130786191D01*
X148665238Y-130881429D01*
X148760476Y-130976667D01*
X148808095Y-131071905D01*
X148522381Y-129643333D02*
X148522381Y-129833810D01*
X148570000Y-129929048D01*
X148617619Y-129976667D01*
X148760476Y-130071905D01*
X148950952Y-130119524D01*
X149331905Y-130119524D01*
X149427143Y-130071905D01*
X149474762Y-130024286D01*
X149522381Y-129929048D01*
X149522381Y-129738571D01*
X149474762Y-129643333D01*
X149427143Y-129595714D01*
X149331905Y-129548095D01*
X149093810Y-129548095D01*
X148998571Y-129595714D01*
X148950952Y-129643333D01*
X148903333Y-129738571D01*
X148903333Y-129929048D01*
X148950952Y-130024286D01*
X148998571Y-130071905D01*
X149093810Y-130119524D01*
X149522381Y-112974286D02*
X148522381Y-112974286D01*
X148522381Y-112736191D01*
X148570000Y-112593333D01*
X148665238Y-112498095D01*
X148760476Y-112450476D01*
X148950952Y-112402857D01*
X149093810Y-112402857D01*
X149284286Y-112450476D01*
X149379524Y-112498095D01*
X149474762Y-112593333D01*
X149522381Y-112736191D01*
X149522381Y-112974286D01*
X149522381Y-111450476D02*
X149522381Y-112021905D01*
X149522381Y-111736191D02*
X148522381Y-111736191D01*
X148665238Y-111831429D01*
X148760476Y-111926667D01*
X148808095Y-112021905D01*
X148522381Y-110545714D02*
X148522381Y-111021905D01*
X148998571Y-111069524D01*
X148950952Y-111021905D01*
X148903333Y-110926667D01*
X148903333Y-110688571D01*
X148950952Y-110593333D01*
X148998571Y-110545714D01*
X149093810Y-110498095D01*
X149331905Y-110498095D01*
X149427143Y-110545714D01*
X149474762Y-110593333D01*
X149522381Y-110688571D01*
X149522381Y-110926667D01*
X149474762Y-111021905D01*
X149427143Y-111069524D01*
X149522381Y-93924286D02*
X148522381Y-93924286D01*
X148522381Y-93686191D01*
X148570000Y-93543333D01*
X148665238Y-93448095D01*
X148760476Y-93400476D01*
X148950952Y-93352857D01*
X149093810Y-93352857D01*
X149284286Y-93400476D01*
X149379524Y-93448095D01*
X149474762Y-93543333D01*
X149522381Y-93686191D01*
X149522381Y-93924286D01*
X149522381Y-92400476D02*
X149522381Y-92971905D01*
X149522381Y-92686191D02*
X148522381Y-92686191D01*
X148665238Y-92781429D01*
X148760476Y-92876667D01*
X148808095Y-92971905D01*
X148855714Y-91543333D02*
X149522381Y-91543333D01*
X148474762Y-91781429D02*
X149189048Y-92019524D01*
X149189048Y-91400476D01*
X149522381Y-74874286D02*
X148522381Y-74874286D01*
X148522381Y-74636191D01*
X148570000Y-74493333D01*
X148665238Y-74398095D01*
X148760476Y-74350476D01*
X148950952Y-74302857D01*
X149093810Y-74302857D01*
X149284286Y-74350476D01*
X149379524Y-74398095D01*
X149474762Y-74493333D01*
X149522381Y-74636191D01*
X149522381Y-74874286D01*
X149522381Y-73350476D02*
X149522381Y-73921905D01*
X149522381Y-73636191D02*
X148522381Y-73636191D01*
X148665238Y-73731429D01*
X148760476Y-73826667D01*
X148808095Y-73921905D01*
X148522381Y-73017143D02*
X148522381Y-72398095D01*
X148903333Y-72731429D01*
X148903333Y-72588571D01*
X148950952Y-72493333D01*
X148998571Y-72445714D01*
X149093810Y-72398095D01*
X149331905Y-72398095D01*
X149427143Y-72445714D01*
X149474762Y-72493333D01*
X149522381Y-72588571D01*
X149522381Y-72874286D01*
X149474762Y-72969524D01*
X149427143Y-73017143D01*
X130472381Y-132024286D02*
X129472381Y-132024286D01*
X129472381Y-131786191D01*
X129520000Y-131643333D01*
X129615238Y-131548095D01*
X129710476Y-131500476D01*
X129900952Y-131452857D01*
X130043810Y-131452857D01*
X130234286Y-131500476D01*
X130329524Y-131548095D01*
X130424762Y-131643333D01*
X130472381Y-131786191D01*
X130472381Y-132024286D01*
X130472381Y-130500476D02*
X130472381Y-131071905D01*
X130472381Y-130786191D02*
X129472381Y-130786191D01*
X129615238Y-130881429D01*
X129710476Y-130976667D01*
X129758095Y-131071905D01*
X129567619Y-130119524D02*
X129520000Y-130071905D01*
X129472381Y-129976667D01*
X129472381Y-129738571D01*
X129520000Y-129643333D01*
X129567619Y-129595714D01*
X129662857Y-129548095D01*
X129758095Y-129548095D01*
X129900952Y-129595714D01*
X130472381Y-130167143D01*
X130472381Y-129548095D01*
X130472381Y-112974286D02*
X129472381Y-112974286D01*
X129472381Y-112736191D01*
X129520000Y-112593333D01*
X129615238Y-112498095D01*
X129710476Y-112450476D01*
X129900952Y-112402857D01*
X130043810Y-112402857D01*
X130234286Y-112450476D01*
X130329524Y-112498095D01*
X130424762Y-112593333D01*
X130472381Y-112736191D01*
X130472381Y-112974286D01*
X130472381Y-111450476D02*
X130472381Y-112021905D01*
X130472381Y-111736191D02*
X129472381Y-111736191D01*
X129615238Y-111831429D01*
X129710476Y-111926667D01*
X129758095Y-112021905D01*
X130472381Y-110498095D02*
X130472381Y-111069524D01*
X130472381Y-110783810D02*
X129472381Y-110783810D01*
X129615238Y-110879048D01*
X129710476Y-110974286D01*
X129758095Y-111069524D01*
X130472381Y-93924286D02*
X129472381Y-93924286D01*
X129472381Y-93686191D01*
X129520000Y-93543333D01*
X129615238Y-93448095D01*
X129710476Y-93400476D01*
X129900952Y-93352857D01*
X130043810Y-93352857D01*
X130234286Y-93400476D01*
X130329524Y-93448095D01*
X130424762Y-93543333D01*
X130472381Y-93686191D01*
X130472381Y-93924286D01*
X130472381Y-92400476D02*
X130472381Y-92971905D01*
X130472381Y-92686191D02*
X129472381Y-92686191D01*
X129615238Y-92781429D01*
X129710476Y-92876667D01*
X129758095Y-92971905D01*
X129472381Y-91781429D02*
X129472381Y-91686190D01*
X129520000Y-91590952D01*
X129567619Y-91543333D01*
X129662857Y-91495714D01*
X129853333Y-91448095D01*
X130091429Y-91448095D01*
X130281905Y-91495714D01*
X130377143Y-91543333D01*
X130424762Y-91590952D01*
X130472381Y-91686190D01*
X130472381Y-91781429D01*
X130424762Y-91876667D01*
X130377143Y-91924286D01*
X130281905Y-91971905D01*
X130091429Y-92019524D01*
X129853333Y-92019524D01*
X129662857Y-91971905D01*
X129567619Y-91924286D01*
X129520000Y-91876667D01*
X129472381Y-91781429D01*
X130472381Y-74398095D02*
X129472381Y-74398095D01*
X129472381Y-74160000D01*
X129520000Y-74017142D01*
X129615238Y-73921904D01*
X129710476Y-73874285D01*
X129900952Y-73826666D01*
X130043810Y-73826666D01*
X130234286Y-73874285D01*
X130329524Y-73921904D01*
X130424762Y-74017142D01*
X130472381Y-74160000D01*
X130472381Y-74398095D01*
X130472381Y-73350476D02*
X130472381Y-73160000D01*
X130424762Y-73064761D01*
X130377143Y-73017142D01*
X130234286Y-72921904D01*
X130043810Y-72874285D01*
X129662857Y-72874285D01*
X129567619Y-72921904D01*
X129520000Y-72969523D01*
X129472381Y-73064761D01*
X129472381Y-73255238D01*
X129520000Y-73350476D01*
X129567619Y-73398095D01*
X129662857Y-73445714D01*
X129900952Y-73445714D01*
X129996190Y-73398095D01*
X130043810Y-73350476D01*
X130091429Y-73255238D01*
X130091429Y-73064761D01*
X130043810Y-72969523D01*
X129996190Y-72921904D01*
X129900952Y-72874285D01*
X111422381Y-131548095D02*
X110422381Y-131548095D01*
X110422381Y-131310000D01*
X110470000Y-131167142D01*
X110565238Y-131071904D01*
X110660476Y-131024285D01*
X110850952Y-130976666D01*
X110993810Y-130976666D01*
X111184286Y-131024285D01*
X111279524Y-131071904D01*
X111374762Y-131167142D01*
X111422381Y-131310000D01*
X111422381Y-131548095D01*
X110850952Y-130405238D02*
X110803333Y-130500476D01*
X110755714Y-130548095D01*
X110660476Y-130595714D01*
X110612857Y-130595714D01*
X110517619Y-130548095D01*
X110470000Y-130500476D01*
X110422381Y-130405238D01*
X110422381Y-130214761D01*
X110470000Y-130119523D01*
X110517619Y-130071904D01*
X110612857Y-130024285D01*
X110660476Y-130024285D01*
X110755714Y-130071904D01*
X110803333Y-130119523D01*
X110850952Y-130214761D01*
X110850952Y-130405238D01*
X110898571Y-130500476D01*
X110946190Y-130548095D01*
X111041429Y-130595714D01*
X111231905Y-130595714D01*
X111327143Y-130548095D01*
X111374762Y-130500476D01*
X111422381Y-130405238D01*
X111422381Y-130214761D01*
X111374762Y-130119523D01*
X111327143Y-130071904D01*
X111231905Y-130024285D01*
X111041429Y-130024285D01*
X110946190Y-130071904D01*
X110898571Y-130119523D01*
X110850952Y-130214761D01*
X111422381Y-112498095D02*
X110422381Y-112498095D01*
X110422381Y-112260000D01*
X110470000Y-112117142D01*
X110565238Y-112021904D01*
X110660476Y-111974285D01*
X110850952Y-111926666D01*
X110993810Y-111926666D01*
X111184286Y-111974285D01*
X111279524Y-112021904D01*
X111374762Y-112117142D01*
X111422381Y-112260000D01*
X111422381Y-112498095D01*
X110422381Y-111593333D02*
X110422381Y-110926666D01*
X111422381Y-111355238D01*
X111422381Y-93448095D02*
X110422381Y-93448095D01*
X110422381Y-93210000D01*
X110470000Y-93067142D01*
X110565238Y-92971904D01*
X110660476Y-92924285D01*
X110850952Y-92876666D01*
X110993810Y-92876666D01*
X111184286Y-92924285D01*
X111279524Y-92971904D01*
X111374762Y-93067142D01*
X111422381Y-93210000D01*
X111422381Y-93448095D01*
X110422381Y-92019523D02*
X110422381Y-92210000D01*
X110470000Y-92305238D01*
X110517619Y-92352857D01*
X110660476Y-92448095D01*
X110850952Y-92495714D01*
X111231905Y-92495714D01*
X111327143Y-92448095D01*
X111374762Y-92400476D01*
X111422381Y-92305238D01*
X111422381Y-92114761D01*
X111374762Y-92019523D01*
X111327143Y-91971904D01*
X111231905Y-91924285D01*
X110993810Y-91924285D01*
X110898571Y-91971904D01*
X110850952Y-92019523D01*
X110803333Y-92114761D01*
X110803333Y-92305238D01*
X110850952Y-92400476D01*
X110898571Y-92448095D01*
X110993810Y-92495714D01*
X111422381Y-74398095D02*
X110422381Y-74398095D01*
X110422381Y-74160000D01*
X110470000Y-74017142D01*
X110565238Y-73921904D01*
X110660476Y-73874285D01*
X110850952Y-73826666D01*
X110993810Y-73826666D01*
X111184286Y-73874285D01*
X111279524Y-73921904D01*
X111374762Y-74017142D01*
X111422381Y-74160000D01*
X111422381Y-74398095D01*
X110422381Y-72921904D02*
X110422381Y-73398095D01*
X110898571Y-73445714D01*
X110850952Y-73398095D01*
X110803333Y-73302857D01*
X110803333Y-73064761D01*
X110850952Y-72969523D01*
X110898571Y-72921904D01*
X110993810Y-72874285D01*
X111231905Y-72874285D01*
X111327143Y-72921904D01*
X111374762Y-72969523D01*
X111422381Y-73064761D01*
X111422381Y-73302857D01*
X111374762Y-73398095D01*
X111327143Y-73445714D01*
X92372381Y-131548095D02*
X91372381Y-131548095D01*
X91372381Y-131310000D01*
X91420000Y-131167142D01*
X91515238Y-131071904D01*
X91610476Y-131024285D01*
X91800952Y-130976666D01*
X91943810Y-130976666D01*
X92134286Y-131024285D01*
X92229524Y-131071904D01*
X92324762Y-131167142D01*
X92372381Y-131310000D01*
X92372381Y-131548095D01*
X91705714Y-130119523D02*
X92372381Y-130119523D01*
X91324762Y-130357619D02*
X92039048Y-130595714D01*
X92039048Y-129976666D01*
X92372381Y-112498095D02*
X91372381Y-112498095D01*
X91372381Y-112260000D01*
X91420000Y-112117142D01*
X91515238Y-112021904D01*
X91610476Y-111974285D01*
X91800952Y-111926666D01*
X91943810Y-111926666D01*
X92134286Y-111974285D01*
X92229524Y-112021904D01*
X92324762Y-112117142D01*
X92372381Y-112260000D01*
X92372381Y-112498095D01*
X91372381Y-111593333D02*
X91372381Y-110974285D01*
X91753333Y-111307619D01*
X91753333Y-111164761D01*
X91800952Y-111069523D01*
X91848571Y-111021904D01*
X91943810Y-110974285D01*
X92181905Y-110974285D01*
X92277143Y-111021904D01*
X92324762Y-111069523D01*
X92372381Y-111164761D01*
X92372381Y-111450476D01*
X92324762Y-111545714D01*
X92277143Y-111593333D01*
X92372381Y-93448095D02*
X91372381Y-93448095D01*
X91372381Y-93210000D01*
X91420000Y-93067142D01*
X91515238Y-92971904D01*
X91610476Y-92924285D01*
X91800952Y-92876666D01*
X91943810Y-92876666D01*
X92134286Y-92924285D01*
X92229524Y-92971904D01*
X92324762Y-93067142D01*
X92372381Y-93210000D01*
X92372381Y-93448095D01*
X91467619Y-92495714D02*
X91420000Y-92448095D01*
X91372381Y-92352857D01*
X91372381Y-92114761D01*
X91420000Y-92019523D01*
X91467619Y-91971904D01*
X91562857Y-91924285D01*
X91658095Y-91924285D01*
X91800952Y-91971904D01*
X92372381Y-92543333D01*
X92372381Y-91924285D01*
X92372381Y-74398095D02*
X91372381Y-74398095D01*
X91372381Y-74160000D01*
X91420000Y-74017142D01*
X91515238Y-73921904D01*
X91610476Y-73874285D01*
X91800952Y-73826666D01*
X91943810Y-73826666D01*
X92134286Y-73874285D01*
X92229524Y-73921904D01*
X92324762Y-74017142D01*
X92372381Y-74160000D01*
X92372381Y-74398095D01*
X92372381Y-72874285D02*
X92372381Y-73445714D01*
X92372381Y-73160000D02*
X91372381Y-73160000D01*
X91515238Y-73255238D01*
X91610476Y-73350476D01*
X91658095Y-73445714D01*
%LPC*%
D13*
X174625000Y-64135000D03*
D14*
X184785000Y-64135000D03*
D13*
X193675000Y-64135000D03*
D14*
X203835000Y-64135000D03*
D15*
X78955000Y-73660000D03*
X89955000Y-73660000D03*
D16*
X79235000Y-69460000D03*
X89675000Y-69460000D03*
D17*
X89455000Y-77460000D03*
X79455000Y-77460000D03*
X84455000Y-79560000D03*
D18*
X81718371Y-68951206D02*
X80841629Y-70748794D01*
D17*
X88265000Y-71120000D03*
X86995000Y-68580000D03*
X81915000Y-68580000D03*
D19*
X84455000Y-73660000D03*
D20*
X79375000Y-73660000D03*
X89535000Y-73660000D03*
D17*
X80645000Y-71120000D03*
D18*
X87191629Y-68951206D02*
X88068371Y-70748794D01*
D15*
X78955000Y-92710000D03*
X89955000Y-92710000D03*
D16*
X79235000Y-88510000D03*
X89675000Y-88510000D03*
D17*
X89455000Y-96510000D03*
X79455000Y-96510000D03*
X84455000Y-98610000D03*
D18*
X81718371Y-88001206D02*
X80841629Y-89798794D01*
D17*
X88265000Y-90170000D03*
X86995000Y-87630000D03*
X81915000Y-87630000D03*
D19*
X84455000Y-92710000D03*
D20*
X79375000Y-92710000D03*
X89535000Y-92710000D03*
D17*
X80645000Y-90170000D03*
D18*
X87191629Y-88001206D02*
X88068371Y-89798794D01*
D15*
X78955000Y-111760000D03*
X89955000Y-111760000D03*
D16*
X79235000Y-107560000D03*
X89675000Y-107560000D03*
D17*
X89455000Y-115560000D03*
X79455000Y-115560000D03*
X84455000Y-117660000D03*
D18*
X81718371Y-107051206D02*
X80841629Y-108848794D01*
D17*
X88265000Y-109220000D03*
X86995000Y-106680000D03*
X81915000Y-106680000D03*
D19*
X84455000Y-111760000D03*
D20*
X79375000Y-111760000D03*
X89535000Y-111760000D03*
D17*
X80645000Y-109220000D03*
D18*
X87191629Y-107051206D02*
X88068371Y-108848794D01*
D15*
X78955000Y-130810000D03*
X89955000Y-130810000D03*
D16*
X79235000Y-126610000D03*
X89675000Y-126610000D03*
D17*
X89455000Y-134610000D03*
X79455000Y-134610000D03*
X84455000Y-136710000D03*
D18*
X81718371Y-126101206D02*
X80841629Y-127898794D01*
D17*
X88265000Y-128270000D03*
X86995000Y-125730000D03*
X81915000Y-125730000D03*
D19*
X84455000Y-130810000D03*
D20*
X79375000Y-130810000D03*
X89535000Y-130810000D03*
D17*
X80645000Y-128270000D03*
D18*
X87191629Y-126101206D02*
X88068371Y-127898794D01*
D15*
X98005000Y-73660000D03*
X109005000Y-73660000D03*
D16*
X98285000Y-69460000D03*
X108725000Y-69460000D03*
D17*
X108505000Y-77460000D03*
X98505000Y-77460000D03*
X103505000Y-79560000D03*
D18*
X100768371Y-68951206D02*
X99891629Y-70748794D01*
D17*
X107315000Y-71120000D03*
X106045000Y-68580000D03*
X100965000Y-68580000D03*
D19*
X103505000Y-73660000D03*
D20*
X98425000Y-73660000D03*
X108585000Y-73660000D03*
D17*
X99695000Y-71120000D03*
D18*
X106241629Y-68951206D02*
X107118371Y-70748794D01*
D15*
X98005000Y-92710000D03*
X109005000Y-92710000D03*
D16*
X98285000Y-88510000D03*
X108725000Y-88510000D03*
D17*
X108505000Y-96510000D03*
X98505000Y-96510000D03*
X103505000Y-98610000D03*
D18*
X100768371Y-88001206D02*
X99891629Y-89798794D01*
D17*
X107315000Y-90170000D03*
X106045000Y-87630000D03*
X100965000Y-87630000D03*
D19*
X103505000Y-92710000D03*
D20*
X98425000Y-92710000D03*
X108585000Y-92710000D03*
D17*
X99695000Y-90170000D03*
D18*
X106241629Y-88001206D02*
X107118371Y-89798794D01*
D15*
X98005000Y-111760000D03*
X109005000Y-111760000D03*
D16*
X98285000Y-107560000D03*
X108725000Y-107560000D03*
D17*
X108505000Y-115560000D03*
X98505000Y-115560000D03*
X103505000Y-117660000D03*
D18*
X100768371Y-107051206D02*
X99891629Y-108848794D01*
D17*
X107315000Y-109220000D03*
X106045000Y-106680000D03*
X100965000Y-106680000D03*
D19*
X103505000Y-111760000D03*
D20*
X98425000Y-111760000D03*
X108585000Y-111760000D03*
D17*
X99695000Y-109220000D03*
D18*
X106241629Y-107051206D02*
X107118371Y-108848794D01*
D15*
X98005000Y-130810000D03*
X109005000Y-130810000D03*
D16*
X98285000Y-126610000D03*
X108725000Y-126610000D03*
D17*
X108505000Y-134610000D03*
X98505000Y-134610000D03*
X103505000Y-136710000D03*
D18*
X100768371Y-126101206D02*
X99891629Y-127898794D01*
D17*
X107315000Y-128270000D03*
X106045000Y-125730000D03*
X100965000Y-125730000D03*
D19*
X103505000Y-130810000D03*
D20*
X98425000Y-130810000D03*
X108585000Y-130810000D03*
D17*
X99695000Y-128270000D03*
D18*
X106241629Y-126101206D02*
X107118371Y-127898794D01*
D15*
X117055000Y-73660000D03*
X128055000Y-73660000D03*
D16*
X117335000Y-69460000D03*
X127775000Y-69460000D03*
D17*
X127555000Y-77460000D03*
X117555000Y-77460000D03*
X122555000Y-79560000D03*
D18*
X119818371Y-68951206D02*
X118941629Y-70748794D01*
D17*
X126365000Y-71120000D03*
X125095000Y-68580000D03*
X120015000Y-68580000D03*
D19*
X122555000Y-73660000D03*
D20*
X117475000Y-73660000D03*
X127635000Y-73660000D03*
D17*
X118745000Y-71120000D03*
D18*
X125291629Y-68951206D02*
X126168371Y-70748794D01*
D15*
X117055000Y-92710000D03*
X128055000Y-92710000D03*
D16*
X117335000Y-88510000D03*
X127775000Y-88510000D03*
D17*
X127555000Y-96510000D03*
X117555000Y-96510000D03*
X122555000Y-98610000D03*
D18*
X119818371Y-88001206D02*
X118941629Y-89798794D01*
D17*
X126365000Y-90170000D03*
X125095000Y-87630000D03*
X120015000Y-87630000D03*
D19*
X122555000Y-92710000D03*
D20*
X117475000Y-92710000D03*
X127635000Y-92710000D03*
D17*
X118745000Y-90170000D03*
D18*
X125291629Y-88001206D02*
X126168371Y-89798794D01*
D15*
X117055000Y-111760000D03*
X128055000Y-111760000D03*
D16*
X117335000Y-107560000D03*
X127775000Y-107560000D03*
D17*
X127555000Y-115560000D03*
X117555000Y-115560000D03*
X122555000Y-117660000D03*
D18*
X119818371Y-107051206D02*
X118941629Y-108848794D01*
D17*
X126365000Y-109220000D03*
X125095000Y-106680000D03*
X120015000Y-106680000D03*
D19*
X122555000Y-111760000D03*
D20*
X117475000Y-111760000D03*
X127635000Y-111760000D03*
D17*
X118745000Y-109220000D03*
D18*
X125291629Y-107051206D02*
X126168371Y-108848794D01*
D15*
X117055000Y-130810000D03*
X128055000Y-130810000D03*
D16*
X117335000Y-126610000D03*
X127775000Y-126610000D03*
D17*
X127555000Y-134610000D03*
X117555000Y-134610000D03*
X122555000Y-136710000D03*
D18*
X119818371Y-126101206D02*
X118941629Y-127898794D01*
D17*
X126365000Y-128270000D03*
X125095000Y-125730000D03*
X120015000Y-125730000D03*
D19*
X122555000Y-130810000D03*
D20*
X117475000Y-130810000D03*
X127635000Y-130810000D03*
D17*
X118745000Y-128270000D03*
D18*
X125291629Y-126101206D02*
X126168371Y-127898794D01*
D15*
X136105000Y-73660000D03*
X147105000Y-73660000D03*
D16*
X136385000Y-69460000D03*
X146825000Y-69460000D03*
D17*
X146605000Y-77460000D03*
X136605000Y-77460000D03*
X141605000Y-79560000D03*
D18*
X138868371Y-68951206D02*
X137991629Y-70748794D01*
D17*
X145415000Y-71120000D03*
X144145000Y-68580000D03*
X139065000Y-68580000D03*
D19*
X141605000Y-73660000D03*
D20*
X136525000Y-73660000D03*
X146685000Y-73660000D03*
D17*
X137795000Y-71120000D03*
D18*
X144341629Y-68951206D02*
X145218371Y-70748794D01*
D15*
X136105000Y-92710000D03*
X147105000Y-92710000D03*
D16*
X136385000Y-88510000D03*
X146825000Y-88510000D03*
D17*
X146605000Y-96510000D03*
X136605000Y-96510000D03*
X141605000Y-98610000D03*
D18*
X138868371Y-88001206D02*
X137991629Y-89798794D01*
D17*
X145415000Y-90170000D03*
X144145000Y-87630000D03*
X139065000Y-87630000D03*
D19*
X141605000Y-92710000D03*
D20*
X136525000Y-92710000D03*
X146685000Y-92710000D03*
D17*
X137795000Y-90170000D03*
D18*
X144341629Y-88001206D02*
X145218371Y-89798794D01*
D15*
X136105000Y-111760000D03*
X147105000Y-111760000D03*
D16*
X136385000Y-107560000D03*
X146825000Y-107560000D03*
D17*
X146605000Y-115560000D03*
X136605000Y-115560000D03*
X141605000Y-117660000D03*
D18*
X138868371Y-107051206D02*
X137991629Y-108848794D01*
D17*
X145415000Y-109220000D03*
X144145000Y-106680000D03*
X139065000Y-106680000D03*
D19*
X141605000Y-111760000D03*
D20*
X136525000Y-111760000D03*
X146685000Y-111760000D03*
D17*
X137795000Y-109220000D03*
D18*
X144341629Y-107051206D02*
X145218371Y-108848794D01*
D15*
X136105000Y-130810000D03*
X147105000Y-130810000D03*
D16*
X136385000Y-126610000D03*
X146825000Y-126610000D03*
D17*
X146605000Y-134610000D03*
X136605000Y-134610000D03*
X141605000Y-136710000D03*
D18*
X138868371Y-126101206D02*
X137991629Y-127898794D01*
D17*
X145415000Y-128270000D03*
X144145000Y-125730000D03*
X139065000Y-125730000D03*
D19*
X141605000Y-130810000D03*
D20*
X136525000Y-130810000D03*
X146685000Y-130810000D03*
D17*
X137795000Y-128270000D03*
D18*
X144341629Y-126101206D02*
X145218371Y-127898794D01*
D15*
X155155000Y-73660000D03*
X166155000Y-73660000D03*
D16*
X155435000Y-69460000D03*
X165875000Y-69460000D03*
D17*
X165655000Y-77460000D03*
X155655000Y-77460000D03*
X160655000Y-79560000D03*
D18*
X157918371Y-68951206D02*
X157041629Y-70748794D01*
D17*
X164465000Y-71120000D03*
X163195000Y-68580000D03*
X158115000Y-68580000D03*
D19*
X160655000Y-73660000D03*
D20*
X155575000Y-73660000D03*
X165735000Y-73660000D03*
D17*
X156845000Y-71120000D03*
D18*
X163391629Y-68951206D02*
X164268371Y-70748794D01*
D15*
X155155000Y-92710000D03*
X166155000Y-92710000D03*
D16*
X155435000Y-88510000D03*
X165875000Y-88510000D03*
D17*
X165655000Y-96510000D03*
X155655000Y-96510000D03*
X160655000Y-98610000D03*
D18*
X157918371Y-88001206D02*
X157041629Y-89798794D01*
D17*
X164465000Y-90170000D03*
X163195000Y-87630000D03*
X158115000Y-87630000D03*
D19*
X160655000Y-92710000D03*
D20*
X155575000Y-92710000D03*
X165735000Y-92710000D03*
D17*
X156845000Y-90170000D03*
D18*
X163391629Y-88001206D02*
X164268371Y-89798794D01*
D15*
X155155000Y-111760000D03*
X166155000Y-111760000D03*
D16*
X155435000Y-107560000D03*
X165875000Y-107560000D03*
D17*
X165655000Y-115560000D03*
X155655000Y-115560000D03*
X160655000Y-117660000D03*
D18*
X157918371Y-107051206D02*
X157041629Y-108848794D01*
D17*
X164465000Y-109220000D03*
X163195000Y-106680000D03*
X158115000Y-106680000D03*
D19*
X160655000Y-111760000D03*
D20*
X155575000Y-111760000D03*
X165735000Y-111760000D03*
D17*
X156845000Y-109220000D03*
D18*
X163391629Y-107051206D02*
X164268371Y-108848794D01*
D15*
X155155000Y-130810000D03*
X166155000Y-130810000D03*
D16*
X155435000Y-126610000D03*
X165875000Y-126610000D03*
D17*
X165655000Y-134610000D03*
X155655000Y-134610000D03*
X160655000Y-136710000D03*
D18*
X157918371Y-126101206D02*
X157041629Y-127898794D01*
D17*
X164465000Y-128270000D03*
X163195000Y-125730000D03*
X158115000Y-125730000D03*
D19*
X160655000Y-130810000D03*
D20*
X155575000Y-130810000D03*
X165735000Y-130810000D03*
D17*
X156845000Y-128270000D03*
D18*
X163391629Y-126101206D02*
X164268371Y-127898794D01*
D15*
X174205000Y-73660000D03*
X185205000Y-73660000D03*
D16*
X174485000Y-69460000D03*
X184925000Y-69460000D03*
D17*
X184705000Y-77460000D03*
X174705000Y-77460000D03*
X179705000Y-79560000D03*
D18*
X176968371Y-68951206D02*
X176091629Y-70748794D01*
D17*
X183515000Y-71120000D03*
X182245000Y-68580000D03*
X177165000Y-68580000D03*
D19*
X179705000Y-73660000D03*
D20*
X174625000Y-73660000D03*
X184785000Y-73660000D03*
D17*
X175895000Y-71120000D03*
D18*
X182441629Y-68951206D02*
X183318371Y-70748794D01*
D15*
X174205000Y-92710000D03*
X185205000Y-92710000D03*
D16*
X174485000Y-88510000D03*
X184925000Y-88510000D03*
D17*
X184705000Y-96510000D03*
X174705000Y-96510000D03*
X179705000Y-98610000D03*
D18*
X176968371Y-88001206D02*
X176091629Y-89798794D01*
D17*
X183515000Y-90170000D03*
X182245000Y-87630000D03*
X177165000Y-87630000D03*
D19*
X179705000Y-92710000D03*
D20*
X174625000Y-92710000D03*
X184785000Y-92710000D03*
D17*
X175895000Y-90170000D03*
D18*
X182441629Y-88001206D02*
X183318371Y-89798794D01*
D15*
X174205000Y-111760000D03*
X185205000Y-111760000D03*
D16*
X174485000Y-107560000D03*
X184925000Y-107560000D03*
D17*
X184705000Y-115560000D03*
X174705000Y-115560000D03*
X179705000Y-117660000D03*
D18*
X176968371Y-107051206D02*
X176091629Y-108848794D01*
D17*
X183515000Y-109220000D03*
X182245000Y-106680000D03*
X177165000Y-106680000D03*
D19*
X179705000Y-111760000D03*
D20*
X174625000Y-111760000D03*
X184785000Y-111760000D03*
D17*
X175895000Y-109220000D03*
D18*
X182441629Y-107051206D02*
X183318371Y-108848794D01*
D15*
X174205000Y-130810000D03*
X185205000Y-130810000D03*
D16*
X174485000Y-126610000D03*
X184925000Y-126610000D03*
D17*
X184705000Y-134610000D03*
X174705000Y-134610000D03*
X179705000Y-136710000D03*
D18*
X176968371Y-126101206D02*
X176091629Y-127898794D01*
D17*
X183515000Y-128270000D03*
X182245000Y-125730000D03*
X177165000Y-125730000D03*
D19*
X179705000Y-130810000D03*
D20*
X174625000Y-130810000D03*
X184785000Y-130810000D03*
D17*
X175895000Y-128270000D03*
D18*
X182441629Y-126101206D02*
X183318371Y-127898794D01*
D15*
X193255000Y-73660000D03*
X204255000Y-73660000D03*
D16*
X193535000Y-69460000D03*
X203975000Y-69460000D03*
D17*
X203755000Y-77460000D03*
X193755000Y-77460000D03*
X198755000Y-79560000D03*
D18*
X196018371Y-68951206D02*
X195141629Y-70748794D01*
D17*
X202565000Y-71120000D03*
X201295000Y-68580000D03*
X196215000Y-68580000D03*
D19*
X198755000Y-73660000D03*
D20*
X193675000Y-73660000D03*
X203835000Y-73660000D03*
D17*
X194945000Y-71120000D03*
D18*
X201491629Y-68951206D02*
X202368371Y-70748794D01*
D15*
X193255000Y-92710000D03*
X204255000Y-92710000D03*
D16*
X193535000Y-88510000D03*
X203975000Y-88510000D03*
D17*
X203755000Y-96510000D03*
X193755000Y-96510000D03*
X198755000Y-98610000D03*
D18*
X196018371Y-88001206D02*
X195141629Y-89798794D01*
D17*
X202565000Y-90170000D03*
X201295000Y-87630000D03*
X196215000Y-87630000D03*
D19*
X198755000Y-92710000D03*
D20*
X193675000Y-92710000D03*
X203835000Y-92710000D03*
D17*
X194945000Y-90170000D03*
D18*
X201491629Y-88001206D02*
X202368371Y-89798794D01*
D15*
X193255000Y-111760000D03*
X204255000Y-111760000D03*
D16*
X193535000Y-107560000D03*
X203975000Y-107560000D03*
D17*
X203755000Y-115560000D03*
X193755000Y-115560000D03*
X198755000Y-117660000D03*
D18*
X196018371Y-107051206D02*
X195141629Y-108848794D01*
D17*
X202565000Y-109220000D03*
X201295000Y-106680000D03*
X196215000Y-106680000D03*
D19*
X198755000Y-111760000D03*
D20*
X193675000Y-111760000D03*
X203835000Y-111760000D03*
D17*
X194945000Y-109220000D03*
D18*
X201491629Y-107051206D02*
X202368371Y-108848794D01*
D15*
X193255000Y-130810000D03*
X204255000Y-130810000D03*
D16*
X193535000Y-126610000D03*
X203975000Y-126610000D03*
D17*
X203755000Y-134610000D03*
X193755000Y-134610000D03*
X198755000Y-136710000D03*
D18*
X196018371Y-126101206D02*
X195141629Y-127898794D01*
D17*
X202565000Y-128270000D03*
X201295000Y-125730000D03*
X196215000Y-125730000D03*
D19*
X198755000Y-130810000D03*
D20*
X193675000Y-130810000D03*
X203835000Y-130810000D03*
D17*
X194945000Y-128270000D03*
D18*
X201491629Y-126101206D02*
X202368371Y-127898794D01*
D21*
X193675000Y-57785000D03*
X198755000Y-57785000D03*
D22*
X132080000Y-102235000D03*
X189230000Y-83185000D03*
D23*
X160020000Y-58420000D03*
D13*
X162560000Y-58420000D03*
X165100000Y-58420000D03*
X167640000Y-58420000D03*
X170180000Y-58420000D03*
X172720000Y-58420000D03*
X175260000Y-58420000D03*
X177800000Y-58420000D03*
X180340000Y-58420000D03*
X182880000Y-58420000D03*
X185420000Y-58420000D03*
X187960000Y-58420000D03*
X187960000Y-43180000D03*
X185420000Y-43180000D03*
X182880000Y-43180000D03*
X180340000Y-43180000D03*
X177800000Y-43180000D03*
X175260000Y-43180000D03*
X172720000Y-43180000D03*
X170180000Y-43180000D03*
X167640000Y-43180000D03*
X165100000Y-43180000D03*
X162560000Y-43180000D03*
X160020000Y-43180000D03*
D22*
X189230000Y-121285000D03*
X93980000Y-83185000D03*
X93980000Y-121285000D03*
D24*
X188230000Y-64135000D03*
X190230000Y-64135000D03*
D25*
X198215000Y-42775000D03*
X194215000Y-42775000D03*
D26*
X196215000Y-47575000D03*
X192215000Y-53075000D03*
X196215000Y-51575000D03*
X200215000Y-53075000D03*
X196215000Y-44575000D03*
D25*
X194215000Y-49775000D03*
X198215000Y-49775000D03*
D27*
X207645000Y-129180000D03*
D23*
X207645000Y-135890000D03*
D14*
X207645000Y-125730000D03*
D27*
X207645000Y-132440000D03*
X207645000Y-110130000D03*
D23*
X207645000Y-116840000D03*
D14*
X207645000Y-106680000D03*
D27*
X207645000Y-113390000D03*
X207645000Y-91080000D03*
D23*
X207645000Y-97790000D03*
D14*
X207645000Y-87630000D03*
D27*
X207645000Y-94340000D03*
X207645000Y-72030000D03*
D23*
X207645000Y-78740000D03*
D14*
X207645000Y-68580000D03*
D27*
X207645000Y-75290000D03*
X189230000Y-129180000D03*
D23*
X189230000Y-135890000D03*
D14*
X189230000Y-125730000D03*
D27*
X189230000Y-132440000D03*
X189230000Y-110130000D03*
D23*
X189230000Y-116840000D03*
D14*
X189230000Y-106680000D03*
D27*
X189230000Y-113390000D03*
X189230000Y-91080000D03*
D23*
X189230000Y-97790000D03*
D14*
X189230000Y-87630000D03*
D27*
X189230000Y-94340000D03*
X189230000Y-72030000D03*
D23*
X189230000Y-78740000D03*
D14*
X189230000Y-68580000D03*
D27*
X189230000Y-75290000D03*
X170180000Y-129180000D03*
D23*
X170180000Y-135890000D03*
D14*
X170180000Y-125730000D03*
D27*
X170180000Y-132440000D03*
X170180000Y-110130000D03*
D23*
X170180000Y-116840000D03*
D14*
X170180000Y-106680000D03*
D27*
X170180000Y-113390000D03*
X170180000Y-91080000D03*
D23*
X170180000Y-97790000D03*
D14*
X170180000Y-87630000D03*
D27*
X170180000Y-94340000D03*
X170180000Y-72030000D03*
D23*
X170180000Y-78740000D03*
D14*
X170180000Y-68580000D03*
D27*
X170180000Y-75290000D03*
X151130000Y-129180000D03*
D23*
X151130000Y-135890000D03*
D14*
X151130000Y-125730000D03*
D27*
X151130000Y-132440000D03*
X151130000Y-110130000D03*
D23*
X151130000Y-116840000D03*
D14*
X151130000Y-106680000D03*
D27*
X151130000Y-113390000D03*
X151130000Y-91080000D03*
D23*
X151130000Y-97790000D03*
D14*
X151130000Y-87630000D03*
D27*
X151130000Y-94340000D03*
X151130000Y-72030000D03*
D23*
X151130000Y-78740000D03*
D14*
X151130000Y-68580000D03*
D27*
X151130000Y-75290000D03*
X132080000Y-129180000D03*
D23*
X132080000Y-135890000D03*
D14*
X132080000Y-125730000D03*
D27*
X132080000Y-132440000D03*
X132080000Y-110130000D03*
D23*
X132080000Y-116840000D03*
D14*
X132080000Y-106680000D03*
D27*
X132080000Y-113390000D03*
X132080000Y-91080000D03*
D23*
X132080000Y-97790000D03*
D14*
X132080000Y-87630000D03*
D27*
X132080000Y-94340000D03*
X132080000Y-72030000D03*
D23*
X132080000Y-78740000D03*
D14*
X132080000Y-68580000D03*
D27*
X132080000Y-75290000D03*
X113030000Y-129180000D03*
D23*
X113030000Y-135890000D03*
D14*
X113030000Y-125730000D03*
D27*
X113030000Y-132440000D03*
X113030000Y-110130000D03*
D23*
X113030000Y-116840000D03*
D14*
X113030000Y-106680000D03*
D27*
X113030000Y-113390000D03*
X113030000Y-91080000D03*
D23*
X113030000Y-97790000D03*
D14*
X113030000Y-87630000D03*
D27*
X113030000Y-94340000D03*
X113030000Y-72030000D03*
D23*
X113030000Y-78740000D03*
D14*
X113030000Y-68580000D03*
D27*
X113030000Y-75290000D03*
X93980000Y-129180000D03*
D23*
X93980000Y-135890000D03*
D14*
X93980000Y-125730000D03*
D27*
X93980000Y-132440000D03*
X93980000Y-110130000D03*
D23*
X93980000Y-116840000D03*
D14*
X93980000Y-106680000D03*
D27*
X93980000Y-113390000D03*
X93980000Y-91080000D03*
D23*
X93980000Y-97790000D03*
D14*
X93980000Y-87630000D03*
D27*
X93980000Y-94340000D03*
X93980000Y-72030000D03*
D23*
X93980000Y-78740000D03*
D14*
X93980000Y-68580000D03*
D27*
X93980000Y-75290000D03*
M02*
