M48
;DRILL file {KiCad 4.0.7-e2-6376~58~ubuntu16.04.1} date Sun Nov 12 02:54:05 2017
;FORMAT={3:3/ absolute / metric / suppress leading zeros}
FMAT,2
METRIC,TZ
T1C0.991
T2C1.702
T3C3.988
%
G90
G05
M71
T1
X171355Y-50395
X171355Y-57395
X175355Y-50395
X175355Y-57395
T2
X63500Y-58420
X63500Y-77470
X63500Y-96520
X63500Y-115570
X73660Y-58420
X73660Y-77470
X73660Y-96520
X73660Y-115570
X82550Y-58420
X82550Y-77470
X82550Y-96520
X82550Y-115570
X92710Y-58420
X92710Y-77470
X92710Y-96520
X92710Y-115570
X101600Y-58420
X101600Y-77470
X101600Y-96520
X101600Y-115570
X111760Y-58420
X111760Y-77470
X111760Y-96520
X111760Y-115570
X120650Y-58420
X120650Y-77470
X120650Y-96520
X120650Y-115570
X130810Y-58420
X130810Y-77470
X130810Y-96520
X130810Y-115570
X139700Y-58420
X139700Y-77470
X139700Y-96520
X139700Y-115570
X149860Y-58420
X149860Y-77470
X149860Y-96520
X149860Y-115570
X158750Y-58420
X158750Y-77470
X158750Y-96520
X158750Y-115570
X168910Y-58420
X168910Y-77470
X168910Y-96520
X168910Y-115570
X177800Y-58420
X177800Y-77470
X177800Y-96520
X177800Y-115570
X187960Y-58420
X187960Y-77470
X187960Y-96520
X187960Y-115570
T3
X68580Y-58420
X68580Y-77470
X68580Y-96520
X68580Y-115570
X87630Y-58420
X87630Y-77470
X87630Y-96520
X87630Y-115570
X106680Y-58420
X106680Y-77470
X106680Y-96520
X106680Y-115570
X125730Y-58420
X125730Y-77470
X125730Y-96520
X125730Y-115570
X144780Y-58420
X144780Y-77470
X144780Y-96520
X144780Y-115570
X163830Y-58420
X163830Y-77470
X163830Y-96520
X163830Y-115570
X182880Y-58420
X182880Y-77470
X182880Y-96520
X182880Y-115570
T0
M30
