<?xml version="1.0" standalone="no"?>
 <!DOCTYPE svg PUBLIC "-//W3C//DTD SVG 1.1//EN" 
 "http://www.w3.org/Graphics/SVG/1.1/DTD/svg11.dtd"> 
<svg xmlns="http://www.w3.org/2000/svg" version="1.1" 
    width="29.7002cm" height="21.0007cm" viewBox="0 0 116930 82680 ">
<title>SVG Picture created as ergo42-B.SilkS.svg date 2018/01/15 02:29:49 </title>
  <desc>Picture generated by PCBNEW </desc>
<g style="fill:#000000; fill-opacity:1;stroke:#000000; stroke-opacity:1;
stroke-linecap:round; stroke-linejoin:round; "
 transform="translate(0 0) scale(1 1)">
</g>
<g style="fill:#000000; fill-opacity:0.0; 
stroke:#000000; stroke-width:-0.000393701; stroke-opacity:1; 
stroke-linecap:round; stroke-linejoin:round;">
</g>
<g style="fill:#000000; fill-opacity:0.0; 
stroke:#000000; stroke-width:39.3701; stroke-opacity:1; 
stroke-linecap:round; stroke-linejoin:round;">
</g>
<g style="fill:#000000; fill-opacity:0.0; 
stroke:#000000; stroke-width:59.0551; stroke-opacity:1; 
stroke-linecap:round; stroke-linejoin:round;">
<rect x="69685.9" y="65357.2" width="42519.7" height="12598.4" rx="0" />
</g>
<g style="fill:#000000; fill-opacity:0.0; 
stroke:#000000; stroke-width:39.3701; stroke-opacity:1; 
stroke-linecap:round; stroke-linejoin:round;">
</g>
<g style="fill:#000000; fill-opacity:0.0; 
stroke:#000000; stroke-width:59.0551; stroke-opacity:1; 
stroke-linecap:round; stroke-linejoin:round;">
<rect x="3937.01" y="3937.01" width="109056" height="74806" rx="0" />
</g>
<g style="fill:#000000; fill-opacity:0.0; 
stroke:#000000; stroke-width:39.3701; stroke-opacity:1; 
stroke-linecap:round; stroke-linejoin:round;">
</g>
<g style="fill:#000000; fill-opacity:0.0; 
stroke:#000000; stroke-width:59.0551; stroke-opacity:1; 
stroke-linecap:round; stroke-linejoin:round;">
<rect x="4724.41" y="4724.41" width="107481" height="73231.2" rx="0" />
</g>
<g style="fill:#000000; fill-opacity:0.0; 
stroke:#000000; stroke-width:39.3701; stroke-opacity:1; 
stroke-linecap:round; stroke-linejoin:round;">
</g>
<g style="fill:#000000; fill-opacity:0.0; 
stroke:#000000; stroke-width:59.0551; stroke-opacity:1; 
stroke-linecap:round; stroke-linejoin:round;">
<path d="M23622 4724
L23622 3937
" />
</g>
<g style="fill:#000000; fill-opacity:0.0; 
stroke:#000000; stroke-width:39.3701; stroke-opacity:1; 
stroke-linecap:round; stroke-linejoin:round;">
</g>
<g style="fill:#000000; fill-opacity:0.0; 
stroke:#000000; stroke-width:59.0551; stroke-opacity:1; 
stroke-linecap:round; stroke-linejoin:round;">
<path d="M43307 4724
L43307 3937
" />
</g>
<g style="fill:#000000; fill-opacity:0.0; 
stroke:#000000; stroke-width:39.3701; stroke-opacity:1; 
stroke-linecap:round; stroke-linejoin:round;">
</g>
<g style="fill:#000000; fill-opacity:0.0; 
stroke:#000000; stroke-width:59.0551; stroke-opacity:1; 
stroke-linecap:round; stroke-linejoin:round;">
<path d="M62992 4724
L62992 3937
" />
</g>
<g style="fill:#000000; fill-opacity:0.0; 
stroke:#000000; stroke-width:39.3701; stroke-opacity:1; 
stroke-linecap:round; stroke-linejoin:round;">
</g>
<g style="fill:#000000; fill-opacity:0.0; 
stroke:#000000; stroke-width:59.0551; stroke-opacity:1; 
stroke-linecap:round; stroke-linejoin:round;">
<path d="M82677 4724
L82677 3937
" />
</g>
<g style="fill:#000000; fill-opacity:0.0; 
stroke:#000000; stroke-width:39.3701; stroke-opacity:1; 
stroke-linecap:round; stroke-linejoin:round;">
</g>
<g style="fill:#000000; fill-opacity:0.0; 
stroke:#000000; stroke-width:59.0551; stroke-opacity:1; 
stroke-linecap:round; stroke-linejoin:round;">
<path d="M102362 4724
L102362 3937
" />
</g>
<g style="fill:#000000; fill-opacity:0.0; 
stroke:#000000; stroke-width:39.3701; stroke-opacity:1; 
stroke-linecap:round; stroke-linejoin:round;">
</g>
<g style="fill:#000000; fill-opacity:0.0; 
stroke:#000000; stroke-width:59.0551; stroke-opacity:1; 
stroke-linecap:round; stroke-linejoin:round;">
<path d="M14169 4562
L13877 4562
" />
<path d="M14023 4562
L14023 4050
L13974 4123
L13925 4172
L13877 4196
" />
</g>
<g style="fill:#000000; fill-opacity:0.0; 
stroke:#000000; stroke-width:39.3701; stroke-opacity:1; 
stroke-linecap:round; stroke-linejoin:round;">
</g>
<g style="fill:#000000; fill-opacity:0.0; 
stroke:#000000; stroke-width:59.0551; stroke-opacity:1; 
stroke-linecap:round; stroke-linejoin:round;">
<path d="M33562 4099
L33586 4074
L33635 4050
L33757 4050
L33805 4074
L33830 4099
L33854 4147
L33854 4196
L33830 4269
L33537 4562
L33854 4562
" />
</g>
<g style="fill:#000000; fill-opacity:0.0; 
stroke:#000000; stroke-width:39.3701; stroke-opacity:1; 
stroke-linecap:round; stroke-linejoin:round;">
</g>
<g style="fill:#000000; fill-opacity:0.0; 
stroke:#000000; stroke-width:59.0551; stroke-opacity:1; 
stroke-linecap:round; stroke-linejoin:round;">
<path d="M53222 4050
L53539 4050
L53368 4245
L53442 4245
L53490 4269
L53515 4294
L53539 4342
L53539 4464
L53515 4513
L53490 4537
L53442 4562
L53295 4562
L53247 4537
L53222 4513
" />
</g>
<g style="fill:#000000; fill-opacity:0.0; 
stroke:#000000; stroke-width:39.3701; stroke-opacity:1; 
stroke-linecap:round; stroke-linejoin:round;">
</g>
<g style="fill:#000000; fill-opacity:0.0; 
stroke:#000000; stroke-width:59.0551; stroke-opacity:1; 
stroke-linecap:round; stroke-linejoin:round;">
<path d="M73175 4221
L73175 4562
" />
<path d="M73053 4026
L72932 4391
L73248 4391
" />
</g>
<g style="fill:#000000; fill-opacity:0.0; 
stroke:#000000; stroke-width:39.3701; stroke-opacity:1; 
stroke-linecap:round; stroke-linejoin:round;">
</g>
<g style="fill:#000000; fill-opacity:0.0; 
stroke:#000000; stroke-width:59.0551; stroke-opacity:1; 
stroke-linecap:round; stroke-linejoin:round;">
<path d="M92885 4050
L92641 4050
L92617 4294
L92641 4269
L92690 4245
L92812 4245
L92860 4269
L92885 4294
L92909 4342
L92909 4464
L92885 4513
L92860 4537
L92812 4562
L92690 4562
L92641 4537
L92617 4513
" />
</g>
<g style="fill:#000000; fill-opacity:0.0; 
stroke:#000000; stroke-width:39.3701; stroke-opacity:1; 
stroke-linecap:round; stroke-linejoin:round;">
</g>
<g style="fill:#000000; fill-opacity:0.0; 
stroke:#000000; stroke-width:59.0551; stroke-opacity:1; 
stroke-linecap:round; stroke-linejoin:round;">
<path d="M112545 4050
L112448 4050
L112399 4074
L112375 4099
L112326 4172
L112302 4269
L112302 4464
L112326 4513
L112350 4537
L112399 4562
L112497 4562
L112545 4537
L112570 4513
L112594 4464
L112594 4342
L112570 4294
L112545 4269
L112497 4245
L112399 4245
L112350 4269
L112326 4294
L112302 4342
" />
</g>
<g style="fill:#000000; fill-opacity:0.0; 
stroke:#000000; stroke-width:39.3701; stroke-opacity:1; 
stroke-linecap:round; stroke-linejoin:round;">
</g>
<g style="fill:#000000; fill-opacity:0.0; 
stroke:#000000; stroke-width:59.0551; stroke-opacity:1; 
stroke-linecap:round; stroke-linejoin:round;">
<path d="M23622 77955
L23622 78742
" />
</g>
<g style="fill:#000000; fill-opacity:0.0; 
stroke:#000000; stroke-width:39.3701; stroke-opacity:1; 
stroke-linecap:round; stroke-linejoin:round;">
</g>
<g style="fill:#000000; fill-opacity:0.0; 
stroke:#000000; stroke-width:59.0551; stroke-opacity:1; 
stroke-linecap:round; stroke-linejoin:round;">
<path d="M43307 77955
L43307 78742
" />
</g>
<g style="fill:#000000; fill-opacity:0.0; 
stroke:#000000; stroke-width:39.3701; stroke-opacity:1; 
stroke-linecap:round; stroke-linejoin:round;">
</g>
<g style="fill:#000000; fill-opacity:0.0; 
stroke:#000000; stroke-width:59.0551; stroke-opacity:1; 
stroke-linecap:round; stroke-linejoin:round;">
<path d="M62992 77955
L62992 78742
" />
</g>
<g style="fill:#000000; fill-opacity:0.0; 
stroke:#000000; stroke-width:39.3701; stroke-opacity:1; 
stroke-linecap:round; stroke-linejoin:round;">
</g>
<g style="fill:#000000; fill-opacity:0.0; 
stroke:#000000; stroke-width:59.0551; stroke-opacity:1; 
stroke-linecap:round; stroke-linejoin:round;">
<path d="M82677 77955
L82677 78742
" />
</g>
<g style="fill:#000000; fill-opacity:0.0; 
stroke:#000000; stroke-width:39.3701; stroke-opacity:1; 
stroke-linecap:round; stroke-linejoin:round;">
</g>
<g style="fill:#000000; fill-opacity:0.0; 
stroke:#000000; stroke-width:59.0551; stroke-opacity:1; 
stroke-linecap:round; stroke-linejoin:round;">
<path d="M102362 77955
L102362 78742
" />
</g>
<g style="fill:#000000; fill-opacity:0.0; 
stroke:#000000; stroke-width:39.3701; stroke-opacity:1; 
stroke-linecap:round; stroke-linejoin:round;">
</g>
<g style="fill:#000000; fill-opacity:0.0; 
stroke:#000000; stroke-width:59.0551; stroke-opacity:1; 
stroke-linecap:round; stroke-linejoin:round;">
<path d="M14169 78580
L13877 78580
" />
<path d="M14023 78580
L14023 78069
L13974 78142
L13925 78190
L13877 78215
" />
</g>
<g style="fill:#000000; fill-opacity:0.0; 
stroke:#000000; stroke-width:39.3701; stroke-opacity:1; 
stroke-linecap:round; stroke-linejoin:round;">
</g>
<g style="fill:#000000; fill-opacity:0.0; 
stroke:#000000; stroke-width:59.0551; stroke-opacity:1; 
stroke-linecap:round; stroke-linejoin:round;">
<path d="M33562 78117
L33586 78093
L33635 78069
L33757 78069
L33805 78093
L33830 78117
L33854 78166
L33854 78215
L33830 78288
L33537 78580
L33854 78580
" />
</g>
<g style="fill:#000000; fill-opacity:0.0; 
stroke:#000000; stroke-width:39.3701; stroke-opacity:1; 
stroke-linecap:round; stroke-linejoin:round;">
</g>
<g style="fill:#000000; fill-opacity:0.0; 
stroke:#000000; stroke-width:59.0551; stroke-opacity:1; 
stroke-linecap:round; stroke-linejoin:round;">
<path d="M53222 78069
L53539 78069
L53368 78263
L53442 78263
L53490 78288
L53515 78312
L53539 78361
L53539 78483
L53515 78532
L53490 78556
L53442 78580
L53295 78580
L53247 78556
L53222 78532
" />
</g>
<g style="fill:#000000; fill-opacity:0.0; 
stroke:#000000; stroke-width:39.3701; stroke-opacity:1; 
stroke-linecap:round; stroke-linejoin:round;">
</g>
<g style="fill:#000000; fill-opacity:0.0; 
stroke:#000000; stroke-width:59.0551; stroke-opacity:1; 
stroke-linecap:round; stroke-linejoin:round;">
<path d="M73175 78239
L73175 78580
" />
<path d="M73053 78044
L72932 78410
L73248 78410
" />
</g>
<g style="fill:#000000; fill-opacity:0.0; 
stroke:#000000; stroke-width:39.3701; stroke-opacity:1; 
stroke-linecap:round; stroke-linejoin:round;">
</g>
<g style="fill:#000000; fill-opacity:0.0; 
stroke:#000000; stroke-width:59.0551; stroke-opacity:1; 
stroke-linecap:round; stroke-linejoin:round;">
<path d="M92885 78069
L92641 78069
L92617 78312
L92641 78288
L92690 78263
L92812 78263
L92860 78288
L92885 78312
L92909 78361
L92909 78483
L92885 78532
L92860 78556
L92812 78580
L92690 78580
L92641 78556
L92617 78532
" />
</g>
<g style="fill:#000000; fill-opacity:0.0; 
stroke:#000000; stroke-width:39.3701; stroke-opacity:1; 
stroke-linecap:round; stroke-linejoin:round;">
</g>
<g style="fill:#000000; fill-opacity:0.0; 
stroke:#000000; stroke-width:59.0551; stroke-opacity:1; 
stroke-linecap:round; stroke-linejoin:round;">
<path d="M112545 78069
L112448 78069
L112399 78093
L112375 78117
L112326 78190
L112302 78288
L112302 78483
L112326 78532
L112350 78556
L112399 78580
L112497 78580
L112545 78556
L112570 78532
L112594 78483
L112594 78361
L112570 78312
L112545 78288
L112497 78263
L112399 78263
L112350 78288
L112326 78312
L112302 78361
" />
</g>
<g style="fill:#000000; fill-opacity:0.0; 
stroke:#000000; stroke-width:39.3701; stroke-opacity:1; 
stroke-linecap:round; stroke-linejoin:round;">
</g>
<g style="fill:#000000; fill-opacity:0.0; 
stroke:#000000; stroke-width:59.0551; stroke-opacity:1; 
stroke-linecap:round; stroke-linejoin:round;">
<path d="M3937 23622
L4724 23622
" />
</g>
<g style="fill:#000000; fill-opacity:0.0; 
stroke:#000000; stroke-width:39.3701; stroke-opacity:1; 
stroke-linecap:round; stroke-linejoin:round;">
</g>
<g style="fill:#000000; fill-opacity:0.0; 
stroke:#000000; stroke-width:59.0551; stroke-opacity:1; 
stroke-linecap:round; stroke-linejoin:round;">
<path d="M3937 43307
L4724 43307
" />
</g>
<g style="fill:#000000; fill-opacity:0.0; 
stroke:#000000; stroke-width:39.3701; stroke-opacity:1; 
stroke-linecap:round; stroke-linejoin:round;">
</g>
<g style="fill:#000000; fill-opacity:0.0; 
stroke:#000000; stroke-width:59.0551; stroke-opacity:1; 
stroke-linecap:round; stroke-linejoin:round;">
<path d="M3937 62992
L4724 62992
" />
</g>
<g style="fill:#000000; fill-opacity:0.0; 
stroke:#000000; stroke-width:39.3701; stroke-opacity:1; 
stroke-linecap:round; stroke-linejoin:round;">
</g>
<g style="fill:#000000; fill-opacity:0.0; 
stroke:#000000; stroke-width:59.0551; stroke-opacity:1; 
stroke-linecap:round; stroke-linejoin:round;">
<path d="M4208 13864
L4452 13864
" />
<path d="M4160 14011
L4330 13499
L4501 14011
" />
</g>
<g style="fill:#000000; fill-opacity:0.0; 
stroke:#000000; stroke-width:39.3701; stroke-opacity:1; 
stroke-linecap:round; stroke-linejoin:round;">
</g>
<g style="fill:#000000; fill-opacity:0.0; 
stroke:#000000; stroke-width:59.0551; stroke-opacity:1; 
stroke-linecap:round; stroke-linejoin:round;">
<path d="M4367 33428
L4440 33452
L4464 33476
L4489 33525
L4489 33598
L4464 33647
L4440 33671
L4391 33696
L4196 33696
L4196 33184
L4367 33184
L4416 33208
L4440 33233
L4464 33281
L4464 33330
L4440 33379
L4416 33403
L4367 33428
L4196 33428
" />
</g>
<g style="fill:#000000; fill-opacity:0.0; 
stroke:#000000; stroke-width:39.3701; stroke-opacity:1; 
stroke-linecap:round; stroke-linejoin:round;">
</g>
<g style="fill:#000000; fill-opacity:0.0; 
stroke:#000000; stroke-width:59.0551; stroke-opacity:1; 
stroke-linecap:round; stroke-linejoin:round;">
<path d="M4489 53332
L4464 53356
L4391 53381
L4342 53381
L4269 53356
L4221 53308
L4196 53259
L4172 53161
L4172 53088
L4196 52991
L4221 52942
L4269 52893
L4342 52869
L4391 52869
L4464 52893
L4489 52918
" />
</g>
<g style="fill:#000000; fill-opacity:0.0; 
stroke:#000000; stroke-width:39.3701; stroke-opacity:1; 
stroke-linecap:round; stroke-linejoin:round;">
</g>
<g style="fill:#000000; fill-opacity:0.0; 
stroke:#000000; stroke-width:59.0551; stroke-opacity:1; 
stroke-linecap:round; stroke-linejoin:round;">
<path d="M4196 73066
L4196 72554
L4318 72554
L4391 72578
L4440 72627
L4464 72676
L4489 72773
L4489 72846
L4464 72944
L4440 72993
L4391 73041
L4318 73066
L4196 73066
" />
</g>
<g style="fill:#000000; fill-opacity:0.0; 
stroke:#000000; stroke-width:39.3701; stroke-opacity:1; 
stroke-linecap:round; stroke-linejoin:round;">
</g>
<g style="fill:#000000; fill-opacity:0.0; 
stroke:#000000; stroke-width:59.0551; stroke-opacity:1; 
stroke-linecap:round; stroke-linejoin:round;">
<path d="M112992 23622
L112205 23622
" />
</g>
<g style="fill:#000000; fill-opacity:0.0; 
stroke:#000000; stroke-width:39.3701; stroke-opacity:1; 
stroke-linecap:round; stroke-linejoin:round;">
</g>
<g style="fill:#000000; fill-opacity:0.0; 
stroke:#000000; stroke-width:59.0551; stroke-opacity:1; 
stroke-linecap:round; stroke-linejoin:round;">
<path d="M112992 43307
L112205 43307
" />
</g>
<g style="fill:#000000; fill-opacity:0.0; 
stroke:#000000; stroke-width:39.3701; stroke-opacity:1; 
stroke-linecap:round; stroke-linejoin:round;">
</g>
<g style="fill:#000000; fill-opacity:0.0; 
stroke:#000000; stroke-width:59.0551; stroke-opacity:1; 
stroke-linecap:round; stroke-linejoin:round;">
<path d="M112992 62992
L112205 62992
" />
</g>
<g style="fill:#000000; fill-opacity:0.0; 
stroke:#000000; stroke-width:39.3701; stroke-opacity:1; 
stroke-linecap:round; stroke-linejoin:round;">
</g>
<g style="fill:#000000; fill-opacity:0.0; 
stroke:#000000; stroke-width:59.0551; stroke-opacity:1; 
stroke-linecap:round; stroke-linejoin:round;">
<path d="M112477 13864
L112721 13864
" />
<path d="M112428 14011
L112599 13499
L112769 14011
" />
</g>
<g style="fill:#000000; fill-opacity:0.0; 
stroke:#000000; stroke-width:39.3701; stroke-opacity:1; 
stroke-linecap:round; stroke-linejoin:round;">
</g>
<g style="fill:#000000; fill-opacity:0.0; 
stroke:#000000; stroke-width:59.0551; stroke-opacity:1; 
stroke-linecap:round; stroke-linejoin:round;">
<path d="M112635 33428
L112708 33452
L112733 33476
L112757 33525
L112757 33598
L112733 33647
L112708 33671
L112660 33696
L112465 33696
L112465 33184
L112635 33184
L112684 33208
L112708 33233
L112733 33281
L112733 33330
L112708 33379
L112684 33403
L112635 33428
L112465 33428
" />
</g>
<g style="fill:#000000; fill-opacity:0.0; 
stroke:#000000; stroke-width:39.3701; stroke-opacity:1; 
stroke-linecap:round; stroke-linejoin:round;">
</g>
<g style="fill:#000000; fill-opacity:0.0; 
stroke:#000000; stroke-width:59.0551; stroke-opacity:1; 
stroke-linecap:round; stroke-linejoin:round;">
<path d="M112757 53332
L112733 53356
L112660 53381
L112611 53381
L112538 53356
L112489 53308
L112465 53259
L112440 53161
L112440 53088
L112465 52991
L112489 52942
L112538 52893
L112611 52869
L112660 52869
L112733 52893
L112757 52918
" />
</g>
<g style="fill:#000000; fill-opacity:0.0; 
stroke:#000000; stroke-width:39.3701; stroke-opacity:1; 
stroke-linecap:round; stroke-linejoin:round;">
</g>
<g style="fill:#000000; fill-opacity:0.0; 
stroke:#000000; stroke-width:59.0551; stroke-opacity:1; 
stroke-linecap:round; stroke-linejoin:round;">
<path d="M112465 73066
L112465 72554
L112587 72554
L112660 72578
L112708 72627
L112733 72676
L112757 72773
L112757 72846
L112733 72944
L112708 72993
L112660 73041
L112587 73066
L112465 73066
" />
</g>
<g style="fill:#000000; fill-opacity:0.0; 
stroke:#000000; stroke-width:39.3701; stroke-opacity:1; 
stroke-linecap:round; stroke-linejoin:round;">
</g>
<g style="fill:#000000; fill-opacity:0.0; 
stroke:#000000; stroke-width:59.0551; stroke-opacity:1; 
stroke-linecap:round; stroke-linejoin:round;">
<path d="M78881 76293
L78881 75703
L79022 75703
L79106 75731
L79162 75787
L79190 75843
L79219 75956
L79219 76040
L79190 76153
L79162 76209
L79106 76265
L79022 76293
L78881 76293
" />
<path d="M79725 76293
L79725 75984
L79697 75928
L79640 75899
L79528 75899
L79472 75928
" />
<path d="M79725 76265
L79669 76293
L79528 76293
L79472 76265
L79444 76209
L79444 76153
L79472 76096
L79528 76068
L79669 76068
L79725 76040
" />
<path d="M79922 75899
L80147 75899
" />
<path d="M80006 75703
L80006 76209
L80034 76265
L80090 76293
L80147 76293
" />
<path d="M80568 76265
L80512 76293
L80400 76293
L80343 76265
L80315 76209
L80315 75984
L80343 75928
L80400 75899
L80512 75899
L80568 75928
L80597 75984
L80597 76040
L80315 76096
" />
<path d="M80850 76237
L80878 76265
L80850 76293
L80822 76265
L80850 76237
L80850 76293
" />
<path d="M80850 75928
L80878 75956
L80850 75984
L80822 75956
L80850 75928
L80850 75984
" />
<path d="M81553 75759
L81581 75731
L81637 75703
L81778 75703
L81834 75731
L81862 75759
L81890 75815
L81890 75871
L81862 75956
L81525 76293
L81890 76293
" />
<path d="M82256 75703
L82312 75703
L82368 75731
L82396 75759
L82424 75815
L82453 75928
L82453 76068
L82424 76181
L82396 76237
L82368 76265
L82312 76293
L82256 76293
L82199 76265
L82171 76237
L82143 76181
L82115 76068
L82115 75928
L82143 75815
L82171 75759
L82199 75731
L82256 75703
" />
<path d="M83015 76293
L82678 76293
" />
<path d="M82846 76293
L82846 75703
L82790 75787
L82734 75843
L82678 75871
" />
<path d="M83212 75703
L83606 75703
L83352 76293
" />
<path d="M83831 76068
L84280 76068
" />
<path d="M84871 76293
L84534 76293
" />
<path d="M84702 76293
L84702 75703
L84646 75787
L84590 75843
L84534 75871
" />
<path d="M85237 75703
L85293 75703
L85349 75731
L85377 75759
L85405 75815
L85433 75928
L85433 76068
L85405 76181
L85377 76237
L85349 76265
L85293 76293
L85237 76293
L85180 76265
L85152 76237
L85124 76181
L85096 76068
L85096 75928
L85124 75815
L85152 75759
L85180 75731
L85237 75703
" />
<path d="M85687 76068
L86136 76068
" />
<path d="M86390 75759
L86418 75731
L86474 75703
L86615 75703
L86671 75731
L86699 75759
L86727 75815
L86727 75871
L86699 75956
L86361 76293
L86727 76293
" />
<path d="M87093 75703
L87149 75703
L87205 75731
L87233 75759
L87261 75815
L87289 75928
L87289 76068
L87261 76181
L87233 76237
L87205 76265
L87149 76293
L87093 76293
L87036 76265
L87008 76237
L86980 76181
L86952 76068
L86952 75928
L86980 75815
L87008 75759
L87036 75731
L87093 75703
" />
</g>
<g style="fill:#000000; fill-opacity:0.0; 
stroke:#000000; stroke-width:39.3701; stroke-opacity:1; 
stroke-linecap:round; stroke-linejoin:round;">
</g>
<g style="fill:#000000; fill-opacity:0.0; 
stroke:#000000; stroke-width:59.0551; stroke-opacity:1; 
stroke-linecap:round; stroke-linejoin:round;">
<path d="M69685 76577
L112205 76577
" />
</g>
<g style="fill:#000000; fill-opacity:0.0; 
stroke:#000000; stroke-width:39.3701; stroke-opacity:1; 
stroke-linecap:round; stroke-linejoin:round;">
</g>
<g style="fill:#000000; fill-opacity:0.0; 
stroke:#000000; stroke-width:59.0551; stroke-opacity:1; 
stroke-linecap:round; stroke-linejoin:round;">
<path d="M70220 77395
L70220 76805
" />
<path d="M70557 77395
L70304 77058
" />
<path d="M70557 76805
L70220 77142
" />
<path d="M70810 77395
L70810 77002
" />
<path d="M70810 76805
L70782 76833
L70810 76861
L70838 76833
L70810 76805
L70810 76861
" />
<path d="M71429 77339
L71401 77367
L71316 77395
L71260 77395
L71176 77367
L71120 77311
L71091 77255
L71063 77142
L71063 77058
L71091 76946
L71120 76889
L71176 76833
L71260 76805
L71316 76805
L71401 76833
L71429 76861
" />
<path d="M71935 77395
L71935 77086
L71907 77030
L71851 77002
L71738 77002
L71682 77030
" />
<path d="M71935 77367
L71879 77395
L71738 77395
L71682 77367
L71654 77311
L71654 77255
L71682 77199
L71738 77171
L71879 77171
L71935 77142
" />
<path d="M72469 77395
L72469 76805
" />
<path d="M72469 77367
L72413 77395
L72301 77395
L72244 77367
L72216 77339
L72188 77283
L72188 77114
L72216 77058
L72244 77030
L72301 77002
L72413 77002
L72469 77030
" />
<path d="M73201 77086
L73397 77086
" />
<path d="M73482 77395
L73201 77395
L73201 76805
L73482 76805
" />
<path d="M73735 77339
L73763 77367
L73735 77395
L73707 77367
L73735 77339
L73735 77395
" />
<path d="M74016 77395
L74016 76805
L74157 76805
L74241 76833
L74297 76889
L74325 76946
L74354 77058
L74354 77142
L74325 77255
L74297 77311
L74241 77367
L74157 77395
L74016 77395
" />
<path d="M74607 77339
L74635 77367
L74607 77395
L74579 77367
L74607 77339
L74607 77395
" />
<path d="M74860 77227
L75141 77227
" />
<path d="M74804 77395
L75000 76805
L75197 77395
" />
<path d="M75394 77339
L75422 77367
L75394 77395
L75366 77367
L75394 77339
L75394 77395
" />
<path d="M76575 77395
L76575 76805
" />
<path d="M76631 77171
L76800 77395
" />
<path d="M76800 77002
L76575 77227
" />
<path d="M77053 77395
L77053 77002
" />
<path d="M77053 76805
L77025 76833
L77053 76861
L77081 76833
L77053 76805
L77053 76861
" />
<path d="M77588 77367
L77531 77395
L77419 77395
L77363 77367
L77334 77339
L77306 77283
L77306 77114
L77334 77058
L77363 77030
L77419 77002
L77531 77002
L77588 77030
" />
<path d="M78094 77395
L78094 77086
L78066 77030
L78009 77002
L77897 77002
L77841 77030
" />
<path d="M78094 77367
L78037 77395
L77897 77395
L77841 77367
L77813 77311
L77813 77255
L77841 77199
L77897 77171
L78037 77171
L78094 77142
" />
<path d="M78628 77395
L78628 76805
" />
<path d="M78628 77367
L78572 77395
L78459 77395
L78403 77367
L78375 77339
L78347 77283
L78347 77114
L78375 77058
L78403 77030
L78459 77002
L78572 77002
L78628 77030
" />
<path d="M79612 77002
L79612 77395
" />
<path d="M79472 76777
L79331 77199
L79697 77199
" />
<path d="M79922 77339
L79950 77367
L79922 77395
L79894 77367
L79922 77339
L79922 77395
" />
<path d="M80315 76805
L80372 76805
L80428 76833
L80456 76861
L80484 76917
L80512 77030
L80512 77171
L80484 77283
L80456 77339
L80428 77367
L80372 77395
L80315 77395
L80259 77367
L80231 77339
L80203 77283
L80175 77171
L80175 77030
L80203 76917
L80231 76861
L80259 76833
L80315 76805
" />
<path d="M80765 77339
L80793 77367
L80765 77395
L80737 77367
L80765 77339
L80765 77395
" />
<path d="M80990 76805
L81384 76805
L81131 77395
" />
<path d="M81609 77171
L82059 77171
" />
<path d="M82565 77367
L82509 77395
L82396 77395
L82340 77367
L82312 77311
L82312 77086
L82340 77030
L82396 77002
L82509 77002
L82565 77030
L82593 77086
L82593 77142
L82312 77199
" />
<path d="M82818 76861
L82846 76833
L82903 76805
L83043 76805
L83099 76833
L83127 76861
L83156 76917
L83156 76974
L83127 77058
L82790 77395
L83156 77395
" />
<path d="M83409 77171
L83859 77171
" />
<path d="M84393 76805
L84280 76805
L84224 76833
L84196 76861
L84140 76946
L84112 77058
L84112 77283
L84140 77339
L84168 77367
L84224 77395
L84337 77395
L84393 77367
L84421 77339
L84449 77283
L84449 77142
L84421 77086
L84393 77058
L84337 77030
L84224 77030
L84168 77058
L84140 77086
L84112 77142
" />
<path d="M84646 76805
L85012 76805
L84815 77030
L84899 77030
L84955 77058
L84983 77086
L85012 77142
L85012 77283
L84983 77339
L84955 77367
L84899 77395
L84730 77395
L84674 77367
L84646 77339
" />
<path d="M85208 76805
L85602 76805
L85349 77395
" />
<path d="M86080 76805
L85968 76805
L85912 76833
L85883 76861
L85827 76946
L85799 77058
L85799 77283
L85827 77339
L85855 77367
L85912 77395
L86024 77395
L86080 77367
L86108 77339
L86136 77283
L86136 77142
L86108 77086
L86080 77058
L86024 77030
L85912 77030
L85855 77058
L85827 77086
L85799 77142
" />
<path d="M86671 76805
L86390 76805
L86361 77086
L86390 77058
L86446 77030
L86586 77030
L86643 77058
L86671 77086
L86699 77142
L86699 77283
L86671 77339
L86643 77367
L86586 77395
L86446 77395
L86390 77367
L86361 77339
" />
<path d="M87036 77058
L86980 77030
L86952 77002
L86924 76946
L86924 76917
L86952 76861
L86980 76833
L87036 76805
L87149 76805
L87205 76833
L87233 76861
L87261 76917
L87261 76946
L87233 77002
L87205 77030
L87149 77058
L87036 77058
L86980 77086
L86952 77114
L86924 77171
L86924 77283
L86952 77339
L86980 77367
L87036 77395
L87149 77395
L87205 77367
L87233 77339
L87261 77283
L87261 77171
L87233 77114
L87205 77086
L87149 77058
" />
<path d="M86249 76703
L87374 76703
" />
<path d="M87768 77002
L87768 77395
" />
<path d="M87514 77002
L87514 77311
L87543 77367
L87599 77395
L87683 77395
L87739 77367
L87768 77339
" />
<path d="M88049 77395
L88049 76805
" />
<path d="M88049 77030
L88105 77002
L88217 77002
L88274 77030
L88302 77058
L88330 77114
L88330 77283
L88302 77339
L88274 77367
L88217 77395
L88105 77395
L88049 77367
" />
<path d="M88836 77002
L88836 77395
" />
<path d="M88583 77002
L88583 77311
L88611 77367
L88667 77395
L88752 77395
L88808 77367
L88836 77339
" />
<path d="M89117 77002
L89117 77395
" />
<path d="M89117 77058
L89145 77030
L89202 77002
L89286 77002
L89342 77030
L89370 77086
L89370 77395
" />
<path d="M89567 77002
L89792 77002
" />
<path d="M89652 76805
L89652 77311
L89680 77367
L89736 77395
L89792 77395
" />
<path d="M90242 77002
L90242 77395
" />
<path d="M89989 77002
L89989 77311
L90017 77367
L90073 77395
L90158 77395
L90214 77367
L90242 77339
" />
<path d="M90833 77395
L90495 77395
" />
<path d="M90664 77395
L90664 76805
L90608 76889
L90552 76946
L90495 76974
" />
<path d="M91339 76805
L91226 76805
L91170 76833
L91142 76861
L91086 76946
L91058 77058
L91058 77283
L91086 77339
L91114 77367
L91170 77395
L91283 77395
L91339 77367
L91367 77339
L91395 77283
L91395 77142
L91367 77086
L91339 77058
L91283 77030
L91170 77030
L91114 77058
L91086 77086
L91058 77142
" />
<path d="M91648 77339
L91676 77367
L91648 77395
L91620 77367
L91648 77339
L91648 77395
" />
<path d="M92042 76805
L92098 76805
L92154 76833
L92183 76861
L92211 76917
L92239 77030
L92239 77171
L92211 77283
L92183 77339
L92154 77367
L92098 77395
L92042 77395
L91986 77367
L91958 77339
L91929 77283
L91901 77171
L91901 77030
L91929 76917
L91958 76861
L91986 76833
L92042 76805
" />
<path d="M92745 77002
L92745 77395
" />
<path d="M92604 76777
L92464 77199
L92829 77199
" />
<path d="M93054 77339
L93082 77367
L93054 77395
L93026 77367
L93054 77339
L93054 77395
" />
<path d="M93645 77395
L93307 77395
" />
<path d="M93476 77395
L93476 76805
L93420 76889
L93364 76946
L93307 76974
" />
</g>
<g style="fill:#000000; fill-opacity:0.0; 
stroke:#000000; stroke-width:39.3701; stroke-opacity:1; 
stroke-linecap:round; stroke-linejoin:round;">
</g>
<g style="fill:#000000; fill-opacity:0.0; 
stroke:#000000; stroke-width:59.0551; stroke-opacity:1; 
stroke-linecap:round; stroke-linejoin:round;">
<path d="M69685 75396
L112205 75396
" />
</g>
<g style="fill:#000000; fill-opacity:0.0; 
stroke:#000000; stroke-width:39.3701; stroke-opacity:1; 
stroke-linecap:round; stroke-linejoin:round;">
</g>
<g style="fill:#000000; fill-opacity:0.0; 
stroke:#000000; stroke-width:118.11; stroke-opacity:1; 
stroke-linecap:round; stroke-linejoin:round;">
<path d="M104022 76293
L103825 76012
" />
<path d="M103684 76293
L103684 75703
L103909 75703
L103965 75731
L103994 75759
L104022 75815
L104022 75899
L103994 75956
L103965 75984
L103909 76012
L103684 76012
" />
<path d="M104500 76265
L104444 76293
L104331 76293
L104275 76265
L104247 76209
L104247 75984
L104275 75928
L104331 75899
L104444 75899
L104500 75928
L104528 75984
L104528 76040
L104247 76096
" />
<path d="M104725 75899
L104865 76293
L105006 75899
" />
<path d="M105231 76237
L105259 76265
L105231 76293
L105203 76265
L105231 76237
L105231 76293
" />
<path d="M105231 75928
L105259 75956
L105231 75984
L105203 75956
L105231 75928
L105231 75984
" />
<path d="M106271 76293
L105934 76293
" />
<path d="M106103 76293
L106103 75703
L106046 75787
L105990 75843
L105934 75871
" />
<path d="M106525 76237
L106553 76265
L106525 76293
L106496 76265
L106525 76237
L106525 76293
" />
<path d="M106918 75703
L106974 75703
L107031 75731
L107059 75759
L107087 75815
L107115 75928
L107115 76068
L107087 76181
L107059 76237
L107031 76265
L106974 76293
L106918 76293
L106862 76265
L106834 76237
L106806 76181
L106778 76068
L106778 75928
L106806 75815
L106834 75759
L106862 75731
L106918 75703
" />
<path d="M107368 76237
L107396 76265
L107368 76293
L107340 76265
L107368 76237
L107368 76293
" />
<path d="M107762 75703
L107818 75703
L107874 75731
L107903 75759
L107931 75815
L107959 75928
L107959 76068
L107931 76181
L107903 76237
L107874 76265
L107818 76293
L107762 76293
L107706 76265
L107678 76237
L107649 76181
L107621 76068
L107621 75928
L107649 75815
L107678 75759
L107706 75731
L107762 75703
" />
<path d="M108212 76068
L108662 76068
" />
<path d="M109196 76293
L109196 75984
L109168 75928
L109112 75899
L108999 75899
L108943 75928
" />
<path d="M109196 76265
L109140 76293
L108999 76293
L108943 76265
L108915 76209
L108915 76153
L108943 76096
L108999 76068
L109140 76068
L109196 76040
" />
<path d="M109562 76293
L109505 76265
L109477 76209
L109477 75703
" />
<path d="M109787 75899
L109787 76490
" />
<path d="M109787 75928
L109843 75899
L109955 75899
L110012 75928
L110040 75956
L110068 76012
L110068 76181
L110040 76237
L110012 76265
L109955 76293
L109843 76293
L109787 76265
" />
<path d="M110321 76293
L110321 75703
" />
<path d="M110574 76293
L110574 75984
L110546 75928
L110490 75899
L110405 75899
L110349 75928
L110321 75956
" />
<path d="M111108 76293
L111108 75984
L111080 75928
L111024 75899
L110912 75899
L110855 75928
" />
<path d="M111108 76265
L111052 76293
L110912 76293
L110855 76265
L110827 76209
L110827 76153
L110855 76096
L110912 76068
L111052 76068
L111108 76040
" />
</g>
<g style="fill:#000000; fill-opacity:0.0; 
stroke:#000000; stroke-width:39.3701; stroke-opacity:1; 
stroke-linecap:round; stroke-linejoin:round;">
</g>
<g style="fill:#000000; fill-opacity:0.0; 
stroke:#000000; stroke-width:59.0551; stroke-opacity:1; 
stroke-linecap:round; stroke-linejoin:round;">
<path d="M70192 76265
L70276 76293
L70417 76293
L70473 76265
L70501 76237
L70529 76181
L70529 76124
L70501 76068
L70473 76040
L70417 76012
L70304 75984
L70248 75956
L70220 75928
L70192 75871
L70192 75815
L70220 75759
L70248 75731
L70304 75703
L70445 75703
L70529 75731
" />
<path d="M70782 76293
L70782 75899
" />
<path d="M70782 75703
L70754 75731
L70782 75759
L70810 75731
L70782 75703
L70782 75759
" />
<path d="M71007 75899
L71316 75899
L71007 76293
L71316 76293
" />
<path d="M71766 76265
L71710 76293
L71598 76293
L71541 76265
L71513 76209
L71513 75984
L71541 75928
L71598 75899
L71710 75899
L71766 75928
L71795 75984
L71795 76040
L71513 76096
" />
<path d="M72048 76237
L72076 76265
L72048 76293
L72019 76265
L72048 76237
L72048 76293
" />
<path d="M72048 75928
L72076 75956
L72048 75984
L72019 75956
L72048 75928
L72048 75984
" />
<path d="M72751 76124
L73032 76124
" />
<path d="M72694 76293
L72891 75703
L73088 76293
" />
<path d="M73538 75899
L73538 76293
" />
<path d="M73397 75674
L73257 76096
L73622 76096
" />
</g>
<g style="fill:#000000; fill-opacity:0.0; 
stroke:#000000; stroke-width:39.3701; stroke-opacity:1; 
stroke-linecap:round; stroke-linejoin:round;">
</g>
<g style="fill:#000000; fill-opacity:0.0; 
stroke:#000000; stroke-width:59.0551; stroke-opacity:1; 
stroke-linecap:round; stroke-linejoin:round;">
<path d="M103684 77395
L103684 76805
" />
<path d="M104219 77395
L104219 76805
" />
<path d="M104219 77367
L104162 77395
L104050 77395
L103994 77367
L103965 77339
L103937 77283
L103937 77114
L103965 77058
L103994 77030
L104050 77002
L104162 77002
L104219 77030
" />
<path d="M104500 77339
L104528 77367
L104500 77395
L104472 77367
L104500 77339
L104500 77395
" />
<path d="M104500 77030
L104528 77058
L104500 77086
L104472 77058
L104500 77030
L104500 77086
" />
<path d="M105540 77395
L105203 77395
" />
<path d="M105372 77395
L105372 76805
L105315 76889
L105259 76946
L105203 76974
" />
<path d="M106215 76777
L105709 77536
" />
<path d="M106721 77395
L106384 77395
" />
<path d="M106553 77395
L106553 76805
L106496 76889
L106440 76946
L106384 76974
" />
</g>
<g style="fill:#000000; fill-opacity:0.0; 
stroke:#000000; stroke-width:39.3701; stroke-opacity:1; 
stroke-linecap:round; stroke-linejoin:round;">
</g>
<g style="fill:#000000; fill-opacity:0.0; 
stroke:#000000; stroke-width:59.0551; stroke-opacity:1; 
stroke-linecap:round; stroke-linejoin:round;">
<path d="M69685 73821
L112205 73821
" />
</g>
<g style="fill:#000000; fill-opacity:0.0; 
stroke:#000000; stroke-width:39.3701; stroke-opacity:1; 
stroke-linecap:round; stroke-linejoin:round;">
</g>
<g style="fill:#000000; fill-opacity:0.0; 
stroke:#000000; stroke-width:157.48; stroke-opacity:1; 
stroke-linecap:round; stroke-linejoin:round;">
<path d="M70257 74099
L70707 74099
" />
<path d="M70384 74886
L70482 74099
" />
<path d="M70871 74886
L70937 74361
" />
<path d="M70970 74099
L70927 74136
L70960 74174
L71002 74136
L70970 74099
L70960 74174
" />
<path d="M71199 74361
L71499 74361
" />
<path d="M71345 74099
L71260 74774
L71288 74849
L71359 74886
L71434 74886
" />
<path d="M71809 74886
L71738 74849
L71710 74774
L71795 74099
" />
<path d="M72413 74849
L72334 74886
L72184 74886
L72113 74849
L72085 74774
L72123 74474
L72169 74399
L72249 74361
L72399 74361
L72469 74399
L72498 74474
L72488 74549
L72104 74624
" />
<path d="M72793 74811
L72826 74849
L72783 74886
L72751 74849
L72793 74811
L72783 74886
" />
<path d="M72844 74399
L72877 74436
L72835 74474
L72802 74436
L72844 74399
L72835 74474
" />
<path d="M73810 74474
L74072 74474
" />
<path d="M74133 74886
L73758 74886
L73857 74099
L74232 74099
" />
<path d="M74471 74886
L74536 74361
" />
<path d="M74518 74511
L74564 74436
L74607 74399
L74686 74361
L74761 74361
" />
<path d="M75361 74361
L75282 74999
L75235 75074
L75193 75111
L75113 75149
L75000 75149
L74930 75111
" />
<path d="M75300 74849
L75221 74886
L75071 74886
L75000 74849
L74968 74811
L74939 74736
L74968 74511
L75014 74436
L75057 74399
L75136 74361
L75286 74361
L75357 74399
" />
<path d="M75783 74886
L75713 74849
L75680 74811
L75652 74736
L75680 74511
L75727 74436
L75769 74399
L75849 74361
L75961 74361
L76031 74399
L76064 74436
L76092 74511
L76064 74736
L76017 74811
L75975 74849
L75896 74886
L75783 74886
" />
<path d="M76786 74361
L76720 74886
" />
<path d="M76636 74061
L76378 74624
L76866 74624
" />
<path d="M77184 74174
L77227 74136
L77306 74099
L77494 74099
L77564 74136
L77597 74174
L77625 74249
L77616 74324
L77564 74436
L77058 74886
L77545 74886
" />
</g>
<g style="fill:#000000; fill-opacity:0.0; 
stroke:#000000; stroke-width:39.3701; stroke-opacity:1; 
stroke-linecap:round; stroke-linejoin:round;">
</g>
<g style="fill:#000000; fill-opacity:0.0; 
stroke:#000000; stroke-width:59.0551; stroke-opacity:1; 
stroke-linecap:round; stroke-linejoin:round;">
<path d="M70417 73070
L70220 73070
" />
<path d="M70220 73380
L70220 72789
L70501 72789
" />
<path d="M70726 73380
L70726 72986
" />
<path d="M70726 72789
L70698 72817
L70726 72845
L70754 72817
L70726 72789
L70726 72845
" />
<path d="M71091 73380
L71035 73352
L71007 73295
L71007 72789
" />
<path d="M71541 73352
L71485 73380
L71373 73380
L71316 73352
L71288 73295
L71288 73070
L71316 73014
L71373 72986
L71485 72986
L71541 73014
L71570 73070
L71570 73127
L71288 73183
" />
<path d="M71823 73323
L71851 73352
L71823 73380
L71795 73352
L71823 73323
L71823 73380
" />
<path d="M71823 73014
L71851 73042
L71823 73070
L71795 73042
L71823 73014
L71823 73070
" />
<path d="M72779 73352
L72723 73380
L72610 73380
L72554 73352
L72526 73295
L72526 73070
L72554 73014
L72610 72986
L72723 72986
L72779 73014
L72807 73070
L72807 73127
L72526 73183
" />
<path d="M73060 73380
L73060 72986
" />
<path d="M73060 73099
L73088 73042
L73116 73014
L73172 72986
L73229 72986
" />
<path d="M73679 72986
L73679 73464
L73651 73520
L73622 73548
L73566 73577
L73482 73577
L73426 73548
" />
<path d="M73679 73352
L73622 73380
L73510 73380
L73454 73352
L73426 73323
L73397 73267
L73397 73099
L73426 73042
L73454 73014
L73510 72986
L73622 72986
L73679 73014
" />
<path d="M74044 73380
L73988 73352
L73960 73323
L73932 73267
L73932 73099
L73960 73042
L73988 73014
L74044 72986
L74129 72986
L74185 73014
L74213 73042
L74241 73099
L74241 73267
L74213 73323
L74185 73352
L74129 73380
L74044 73380
" />
<path d="M74747 72986
L74747 73380
" />
<path d="M74607 72761
L74466 73183
L74832 73183
" />
<path d="M75028 72845
L75057 72817
L75113 72789
L75253 72789
L75310 72817
L75338 72845
L75366 72902
L75366 72958
L75338 73042
L75000 73380
L75366 73380
" />
<path d="M75619 73323
L75647 73352
L75619 73380
L75591 73352
L75619 73323
L75619 73380
" />
<path d="M75900 73380
L75900 72789
" />
<path d="M75956 73155
L76125 73380
" />
<path d="M76125 72986
L75900 73211
" />
<path d="M76378 73380
L76378 72986
" />
<path d="M76378 72789
L76350 72817
L76378 72845
L76406 72817
L76378 72789
L76378 72845
" />
<path d="M76913 73352
L76856 73380
L76744 73380
L76688 73352
L76660 73323
L76631 73267
L76631 73099
L76660 73042
L76688 73014
L76744 72986
L76856 72986
L76913 73014
" />
<path d="M77419 73380
L77419 73070
L77391 73014
L77334 72986
L77222 72986
L77166 73014
" />
<path d="M77419 73352
L77363 73380
L77222 73380
L77166 73352
L77138 73295
L77138 73239
L77166 73183
L77222 73155
L77363 73155
L77419 73127
" />
<path d="M77953 73380
L77953 72789
" />
<path d="M77953 73352
L77897 73380
L77784 73380
L77728 73352
L77700 73323
L77672 73267
L77672 73099
L77700 73042
L77728 73014
L77784 72986
L77897 72986
L77953 73014
" />
<path d="M78094 73436
L78544 73436
" />
<path d="M78684 72986
L78684 73577
" />
<path d="M78684 73014
L78741 72986
L78853 72986
L78909 73014
L78937 73042
L78965 73099
L78965 73267
L78937 73323
L78909 73352
L78853 73380
L78741 73380
L78684 73352
" />
<path d="M79472 73352
L79415 73380
L79303 73380
L79247 73352
L79219 73323
L79190 73267
L79190 73099
L79219 73042
L79247 73014
L79303 72986
L79415 72986
L79472 73014
" />
<path d="M79725 73380
L79725 72789
" />
<path d="M79725 73014
L79781 72986
L79894 72986
L79950 73014
L79978 73042
L80006 73099
L80006 73267
L79978 73323
L79950 73352
L79894 73380
L79781 73380
L79725 73352
" />
</g>
<g style="fill:#000000; fill-opacity:0.0; 
stroke:#000000; stroke-width:39.3701; stroke-opacity:1; 
stroke-linecap:round; stroke-linejoin:round;">
</g>
<g style="fill:#000000; fill-opacity:0.0; 
stroke:#000000; stroke-width:59.0551; stroke-opacity:1; 
stroke-linecap:round; stroke-linejoin:round;">
<path d="M69685 71459
L112205 71459
" />
</g>
<g style="fill:#000000; fill-opacity:0.0; 
stroke:#000000; stroke-width:39.3701; stroke-opacity:1; 
stroke-linecap:round; stroke-linejoin:round;">
</g>
<g style="fill:#000000; fill-opacity:0.0; 
stroke:#000000; stroke-width:59.0551; stroke-opacity:1; 
stroke-linecap:round; stroke-linejoin:round;">
<path d="M70192 72289
L70276 72317
L70417 72317
L70473 72289
L70501 72260
L70529 72204
L70529 72148
L70501 72092
L70473 72064
L70417 72036
L70304 72007
L70248 71979
L70220 71951
L70192 71895
L70192 71839
L70220 71782
L70248 71754
L70304 71726
L70445 71726
L70529 71754
" />
<path d="M70782 72317
L70782 71726
" />
<path d="M71035 72317
L71035 72007
L71007 71951
L70951 71923
L70867 71923
L70810 71951
L70782 71979
" />
<path d="M71541 72289
L71485 72317
L71373 72317
L71316 72289
L71288 72232
L71288 72007
L71316 71951
L71373 71923
L71485 71923
L71541 71951
L71570 72007
L71570 72064
L71288 72120
" />
<path d="M72048 72289
L71991 72317
L71879 72317
L71823 72289
L71795 72232
L71795 72007
L71823 71951
L71879 71923
L71991 71923
L72048 71951
L72076 72007
L72076 72064
L71795 72120
" />
<path d="M72244 71923
L72469 71923
" />
<path d="M72329 71726
L72329 72232
L72357 72289
L72413 72317
L72469 72317
" />
<path d="M72666 72260
L72694 72289
L72666 72317
L72638 72289
L72666 72260
L72666 72317
" />
<path d="M72666 71951
L72694 71979
L72666 72007
L72638 71979
L72666 71951
L72666 72007
" />
</g>
<g style="fill:#000000; fill-opacity:0.0; 
stroke:#000000; stroke-width:39.3701; stroke-opacity:1; 
stroke-linecap:round; stroke-linejoin:round;">
</g>
<g style="fill:#000000; fill-opacity:0.0; 
stroke:#000000; stroke-width:118.11; stroke-opacity:1; 
stroke-linecap:round; stroke-linejoin:round;">
<path d="M70417 70826
L70501 70854
L70529 70883
L70557 70939
L70557 71023
L70529 71079
L70501 71108
L70445 71136
L70220 71136
L70220 70545
L70417 70545
L70473 70573
L70501 70601
L70529 70658
L70529 70714
L70501 70770
L70473 70798
L70417 70826
L70220 70826
" />
<path d="M70810 71136
L70810 70742
" />
<path d="M70810 70545
L70782 70573
L70810 70601
L70838 70573
L70810 70545
L70810 70601
" />
<path d="M71345 71136
L71345 70826
L71316 70770
L71260 70742
L71148 70742
L71091 70770
" />
<path d="M71345 71108
L71288 71136
L71148 71136
L71091 71108
L71063 71051
L71063 70995
L71091 70939
L71148 70911
L71288 70911
L71345 70883
" />
<path d="M71879 71108
L71823 71136
L71710 71136
L71654 71108
L71626 71079
L71598 71023
L71598 70854
L71626 70798
L71654 70770
L71710 70742
L71823 70742
L71879 70770
" />
<path d="M72385 71108
L72329 71136
L72216 71136
L72160 71108
L72132 71079
L72104 71023
L72104 70854
L72132 70798
L72160 70770
L72216 70742
L72329 70742
L72385 70770
" />
<path d="M72723 71136
L72666 71108
L72638 71079
L72610 71023
L72610 70854
L72638 70798
L72666 70770
L72723 70742
L72807 70742
L72863 70770
L72891 70798
L72919 70854
L72919 71023
L72891 71079
L72863 71108
L72807 71136
L72723 71136
" />
<path d="M73426 70742
L73426 71136
" />
<path d="M73285 70517
L73144 70939
L73510 70939
" />
<path d="M73707 70601
L73735 70573
L73791 70545
L73932 70545
L73988 70573
L74016 70601
L74044 70658
L74044 70714
L74016 70798
L73679 71136
L74044 71136
" />
</g>
<g style="fill:#000000; fill-opacity:0.0; 
stroke:#000000; stroke-width:39.3701; stroke-opacity:1; 
stroke-linecap:round; stroke-linejoin:round;">
</g>
<g style="fill:#000000; fill-opacity:0.0; 
stroke:#000000; stroke-width:59.0551; stroke-opacity:1; 
stroke-linecap:round; stroke-linejoin:round;">
<path d="M77559 75396
L77559 76577
" />
</g>
<g style="fill:#000000; fill-opacity:0.0; 
stroke:#000000; stroke-width:39.3701; stroke-opacity:1; 
stroke-linecap:round; stroke-linejoin:round;">
</g>
<g style="fill:#000000; fill-opacity:0.0; 
stroke:#000000; stroke-width:59.0551; stroke-opacity:1; 
stroke-linecap:round; stroke-linejoin:round;">
<path d="M102756 75396
L102756 77955
" />
</g>
<g style="fill:#C2C200; fill-opacity:0.0; 
stroke:#C2C200; stroke-width:59.0551; stroke-opacity:1; 
stroke-linecap:round; stroke-linejoin:round;">
<path d="M53750 25000
L29750 25000
" />
<path d="M80000 15750
L63000 15750
" />
<path d="M63000 15750
L53750 25000
" />
<path d="M80500 16250
L80500 24000
" />
</g>
<g style="fill:#840084; fill-opacity:0.0; 
stroke:#840084; stroke-width:59.0551; stroke-opacity:1; 
stroke-linecap:round; stroke-linejoin:round;">
</g>
<g style="fill:#840084; fill-opacity:0.0; 
stroke:#840084; stroke-width:118.11; stroke-opacity:1; 
stroke-linecap:round; stroke-linejoin:round;">
<path d="M73849 19443
L73586 19443
" />
<path d="M73474 19856
L73849 19856
L73849 19068
L73474 19068
" />
<path d="M73136 19856
L73136 19331
" />
<path d="M73136 19481
L73099 19406
L73061 19368
L72986 19331
L72911 19331
" />
<path d="M72311 19331
L72311 19968
L72349 20043
L72386 20081
L72461 20118
L72574 20118
L72649 20081
" />
<path d="M72311 19818
L72386 19856
L72536 19856
L72611 19818
L72649 19781
L72686 19706
L72686 19481
L72649 19406
L72611 19368
L72536 19331
L72386 19331
L72311 19368
" />
<path d="M71824 19856
L71899 19818
L71937 19781
L71974 19706
L71974 19481
L71937 19406
L71899 19368
L71824 19331
L71712 19331
L71637 19368
L71599 19406
L71562 19481
L71562 19706
L71599 19781
L71637 19818
L71712 19856
L71824 19856
" />
<path d="M70887 19331
L70887 19856
" />
<path d="M71074 19031
L71262 19593
L70774 19593
" />
<path d="M70512 19143
L70474 19106
L70399 19068
L70212 19068
L70137 19106
L70099 19143
L70062 19218
L70062 19293
L70099 19406
L70549 19856
L70062 19856
" />
<path d="M69124 19856
L69124 19068
" />
<path d="M69124 19368
L69049 19331
L68899 19331
L68824 19368
L68787 19406
L68749 19481
L68749 19706
L68787 19781
L68824 19818
L68899 19856
L69049 19856
L69124 19818
" />
<path d="M68487 19331
L68299 19856
" />
<path d="M68112 19331
L68299 19856
L68374 20043
L68412 20081
L68487 20118
" />
<path d="M66950 19443
L66837 19481
L66800 19518
L66762 19593
L66762 19706
L66800 19781
L66837 19818
L66912 19856
L67212 19856
L67212 19068
L66950 19068
L66875 19106
L66837 19143
L66800 19218
L66800 19293
L66837 19368
L66875 19406
L66950 19443
L67212 19443
" />
<path d="M66425 19856
L66425 19331
" />
<path d="M66425 19068
L66462 19106
L66425 19143
L66387 19106
L66425 19068
L66425 19143
" />
<path d="M65712 19856
L65712 19443
L65750 19368
L65825 19331
L65975 19331
L66050 19368
" />
<path d="M65712 19818
L65787 19856
L65975 19856
L66050 19818
L66087 19743
L66087 19668
L66050 19593
L65975 19556
L65787 19556
L65712 19518
" />
<path d="M65000 19818
L65075 19856
L65225 19856
L65300 19818
L65337 19781
L65375 19706
L65375 19481
L65337 19406
L65300 19368
L65225 19331
L65075 19331
L65000 19368
" />
<path d="M64325 19818
L64400 19856
L64550 19856
L64625 19818
L64662 19781
L64700 19706
L64700 19481
L64662 19406
L64625 19368
L64550 19331
L64400 19331
L64325 19368
" />
<path d="M63875 19856
L63950 19818
L63988 19781
L64025 19706
L64025 19481
L63988 19406
L63950 19368
L63875 19331
L63763 19331
L63688 19368
L63650 19406
L63613 19481
L63613 19706
L63650 19781
L63688 19818
L63763 19856
L63875 19856
" />
<path d="M62938 19331
L62938 19856
" />
<path d="M63125 19031
L63313 19593
L62825 19593
" />
<path d="M62563 19143
L62525 19106
L62450 19068
L62263 19068
L62188 19106
L62150 19143
L62113 19218
L62113 19293
L62150 19406
L62600 19856
L62113 19856
" />
</g>
<g style="fill:#C2C200; fill-opacity:0.0; 
stroke:#C2C200; stroke-width:118.11; stroke-opacity:1; 
stroke-linecap:round; stroke-linejoin:round;">
</g>
<g style="fill:#C2C200; fill-opacity:0.0; 
stroke:#C2C200; stroke-width:59.0551; stroke-opacity:1; 
stroke-linecap:round; stroke-linejoin:round;">
<path d="M80000 15750
L80500 16250
" />
<path d="M29250 55000
L29250 25500
" />
<path d="M29750 55500
L29250 55000
" />
<path d="M82250 55500
L29750 55500
" />
<path d="M82750 55000
L82250 55500
" />
<path d="M82750 26250
L82750 55000
" />
<path d="M29750 25000
L29250 25500
" />
<path d="M82750 26250
L80500 24000
" />
</g>
<g style="fill:#840084; fill-opacity:0.0; 
stroke:#840084; stroke-width:59.0551; stroke-opacity:1; 
stroke-linecap:round; stroke-linejoin:round;">
<path d="M74500 16500
L74500 23500
" />
<path d="M74500 23500
L62500 23500
" />
<path d="M62500 23500
L62500 21500
" />
<path d="M62500 21500
L61500 21500
" />
<path d="M61500 21500
L61500 18500
" />
<path d="M61500 18500
L62500 18500
" />
<path d="M62500 18500
L62500 16500
" />
<path d="M62500 16500
L74500 16500
" />
<path d="M79250 16250
L78750 16250
" />
<path d="M78750 16250
L78750 15750
" />
<path d="M78750 15750
L77250 15750
" />
<path d="M77250 15750
L77250 16250
" />
<path d="M77250 16250
L76750 16250
" />
<path d="M76750 16250
L76750 21250
" />
<path d="M76750 21250
L79250 21250
" />
<path d="M79250 21250
L79250 16250
" />
</g>
<g style="fill:#840084; fill-opacity:1.0; 
stroke:#840084; stroke-width:3.93701; stroke-opacity:1; 
stroke-linecap:round; stroke-linejoin:round;">
<polyline style="fill-rule:evenodd;"
points="46857,42206
46613,42245
46382,42315
46194,42395
45951,42540
45730,42731
45539,42958
45384,43214
45271,43491
45234,43625
45215,43731
45197,43882
45179,44064
45164,44268
45152,44480
45143,44690
45140,44886
45139,44895
45138,45111
46435,45111
46454,44562
46464,44319
46477,44128
46494,43984
46513,43884
46517,43868
46595,43696
46704,43561
46837,43465
46985,43407
47141,43388
47296,43408
47443,43467
47573,43566
47679,43704
47736,43831
47754,43896
47771,43979
47784,44084
47796,44214
47806,44372
47814,44562
47820,44785
47825,45047
47827,45349
47829,45695
47828,46088
47827,46532
47825,46838
47823,47243
47821,47596
47818,47901
47815,48163
47811,48386
47807,48573
47801,48728
47793,48856
47783,48960
47772,49045
47758,49114
47741,49172
47721,49222
47698,49268
47672,49315
47655,49344
47543,49487
47403,49582
47233,49629
47194,49633
47021,49629
46877,49585
46748,49497
46708,49459
46649,49396
46601,49332
46564,49259
46535,49172
46513,49062
46496,48922
46482,48744
46469,48522
46463,48395
46433,47722
45131,47722
45150,48312
45160,48589
45172,48818
45187,49008
45206,49167
45230,49302
45259,49422
45295,49534
45296,49537
45432,49845
45607,50117
45818,50350
46061,50541
46333,50687
46600,50778
46801,50814
47032,50831
47272,50829
47498,50808
47661,50776
47959,50674
48221,50531
48456,50342
48638,50142
48778,49946
48888,49744
48971,49524
49032,49275
49073,48986
49081,48912
49087,48820
49092,48679
49096,48493
49100,48269
49103,48013
49106,47729
49108,47423
49110,47102
49110,46771
49110,46435
49110,46101
49109,45774
49107,45459
49105,45163
49102,44891
49098,44649
49094,44442
49089,44276
49084,44157
49081,44115
49043,43812
48987,43553
48908,43327
48803,43123
48667,42931
48500,42746
48272,42543
48033,42390
47775,42282
47492,42218
47176,42194
47132,42194
46857,42206
" /> 
<polyline style="fill-rule:evenodd;"
points="64909,42313
64597,42317
64333,42321
64114,42327
63931,42333
63779,42343
63653,42354
63545,42369
63450,42388
63361,42412
63273,42440
63180,42473
62939,42587
62730,42737
62553,42924
62407,43150
62291,43418
62204,43728
62146,44082
62116,44483
62111,44759
62123,45193
62160,45579
62224,45918
62316,46214
62438,46468
62590,46682
62775,46859
62993,47000
63246,47108
63536,47185
63761,47221
63875,47232
64026,47241
64195,47247
64364,47249
64381,47250
64777,47250
64777,50722
66083,50722
66083,46055
64777,46055
64489,46055
64349,46052
64211,46045
64096,46034
64053,46027
63849,45967
63688,45872
63566,45740
63483,45569
63471,45528
63443,45398
63421,45227
63407,45030
63400,44823
63401,44621
63411,44450
63444,44197
63495,43991
63570,43827
63673,43702
63809,43610
63983,43549
64199,43513
64462,43500
64520,43500
64777,43500
64777,46055
66083,46055
66083,42300
64909,42313
" /> 
<polyline style="fill-rule:evenodd;"
points="58185,46437
58103,46909
58023,47367
57946,47808
57873,48229
57804,48626
57740,48996
57680,49338
57627,49646
57579,49919
57538,50153
57505,50345
57479,50493
57462,50593
57453,50641
57452,50645
57437,50722
58107,50722
58341,50721
58522,50718
58653,50713
58736,50705
58774,50696
58777,50691
58781,50657
58793,50575
58812,50451
58836,50293
58864,50107
58896,49900
58916,49772
58950,49557
58980,49359
59007,49187
59029,49046
59045,48942
59054,48883
59055,48871
59082,48868
59156,48866
59271,48865
59418,48865
59590,48866
59715,48867
60374,48875
60505,49708
60538,49921
60569,50120
60597,50297
60621,50444
60639,50555
60650,50621
60652,50631
60669,50722
61940,50722
61926,50631
61919,50594
61905,50505
61882,50367
61852,50184
61815,49958
61772,49693
61723,49391
61668,49056
61608,48691
61544,48299
61476,47883
61441,47666
60200,47666
59245,47666
59261,47590
59267,47548
59282,47457
59303,47322
59329,47148
59361,46940
59396,46704
59435,46444
59477,46167
59500,46013
59542,45731
59582,45466
59619,45222
59651,45004
59680,44819
59702,44670
59719,44563
59728,44503
59730,44492
59735,44514
59747,44587
59765,44705
59789,44864
59817,45058
59850,45283
59886,45534
59925,45807
59954,46006
59994,46293
60033,46565
60069,46816
60102,47042
60130,47237
60154,47396
60171,47514
60182,47585
60186,47604
60200,47666
61441,47666
61405,47446
61331,46992
61254,46522
61239,46430
60567,42319
59735,42312
58902,42305
58185,46437
" /> 
<polyline style="fill-rule:evenodd;"
points="52555,50722
53739,50722
54632,48187
55525,45652
55526,48187
55527,50722
56722,50722
56722,42305
56076,42306
55430,42306
54597,44722
53763,47137
53756,44721
53749,42305
52555,42305
52555,50722
" /> 
<polyline style="fill-rule:evenodd;"
points="50166,50722
51444,50722
51444,42305
50166,42305
50166,50722
" /> 
<polyline style="fill-rule:evenodd;"
points="58792,29644
58591,29688
58584,29690
58273,29810
58005,29966
57774,30159
57579,30394
57426,30649
57384,30735
57346,30820
57312,30907
57283,31001
57258,31103
57237,31219
57219,31352
57204,31505
57193,31683
57184,31888
57177,32125
57173,32397
57171,32708
57170,33062
57170,33462
57172,33911
57173,34180
57176,34595
57178,34959
57180,35274
57183,35546
57186,35778
57189,35973
57193,36136
57197,36270
57202,36380
57207,36468
57214,36540
57221,36599
57229,36648
57231,36658
57324,36999
57456,37301
57628,37564
57840,37790
58092,37976
58263,38070
58574,38191
58897,38260
59229,38274
59555,38236
59858,38148
60138,38012
60391,37833
60611,37615
60793,37364
60933,37084
60995,36898
61015,36821
61033,36743
61049,36660
61062,36568
61074,36464
61083,36344
61091,36204
61097,36040
61102,35848
61105,35625
61107,35366
61108,35069
61107,34728
61106,34341
61105,33911
59819,33911
59819,33930
59819,34356
59819,34729
59818,35054
59817,35335
59816,35575
59814,35778
59812,35947
59809,36086
59806,36199
59802,36290
59797,36362
59791,36418
59784,36463
59776,36500
59771,36520
59693,36724
59585,36883
59446,36997
59312,37057
59213,37072
59089,37069
58966,37050
58870,37018
58741,36932
58639,36818
58564,36670
58511,36483
58477,36250
58472,36191
58467,36094
58462,35949
58458,35761
58455,35536
58452,35279
58450,34998
58448,34697
58447,34382
58446,34059
58446,33735
58447,33414
58448,33103
58450,32808
58452,32534
58455,32287
58459,32073
58463,31898
58467,31768
58472,31697
58495,31493
58527,31333
58572,31206
58632,31101
58713,31005
58720,30998
58866,30884
59023,30824
59193,30818
59275,30832
59443,30896
59580,31001
59686,31150
59767,31346
59768,31349
59777,31381
59785,31416
59792,31459
59797,31513
59802,31583
59807,31671
59810,31782
59813,31918
59815,32084
59816,32284
59817,32520
59818,32798
59819,33119
59819,33489
59819,33911
61105,33911
61105,33903
61104,33750
61102,33333
61100,32968
61099,32651
61097,32378
61094,32145
61092,31948
61089,31784
61086,31648
61082,31536
61077,31445
61071,31371
61065,31310
61057,31257
61049,31210
61039,31165
61036,31152
60934,30821
60792,30527
60608,30270
60385,30052
60122,29873
59820,29733
59694,29690
59494,29646
59264,29623
59023,29623
58792,29644
" /> 
<polyline style="fill-rule:evenodd;"
points="64895,29756
64600,29759
64354,29762
64152,29766
63989,29770
63860,29775
63757,29781
63676,29789
63612,29798
63557,29809
63527,29817
63220,29927
62950,30079
62718,30271
62525,30502
62373,30770
62263,31075
62252,31116
62231,31199
62214,31281
62198,31366
62185,31458
62174,31562
62164,31680
62157,31818
62151,31979
62147,32167
62144,32387
62142,32641
62142,32935
62142,33272
62143,33657
62145,34092
62145,34125
62147,34532
62149,34888
62151,35196
62153,35461
62155,35686
62158,35875
62161,36033
62164,36163
62169,36269
62174,36356
62180,36427
62187,36486
62195,36537
62204,36584
62213,36625
62309,36958
62436,37246
62595,37491
62789,37696
63021,37864
63292,37996
63476,38060
63528,38075
63579,38087
63634,38097
63700,38106
63782,38112
63887,38117
64019,38121
64185,38124
64390,38127
64641,38130
64881,38132
66083,38142
66083,36944
64777,36944
64479,36943
64295,36938
64154,36922
64043,36895
64036,36892
63857,36813
63717,36708
63615,36585
63582,36535
63553,36489
63528,36442
63507,36390
63489,36328
63474,36254
63462,36162
63452,36049
63445,35911
63439,35743
63434,35541
63431,35302
63428,35022
63426,34695
63424,34319
63423,34157
63421,33714
63420,33323
63420,32980
63421,32681
63425,32424
63431,32203
63439,32016
63451,31858
63465,31726
63483,31617
63505,31526
63532,31450
63563,31386
63598,31328
63639,31275
63682,31226
63784,31126
63891,31053
64014,31003
64166,30971
64357,30953
64437,30950
64777,30937
64777,36944
66083,36944
66083,29746
64895,29756
" /> 
<polyline style="fill-rule:evenodd;"
points="51916,38138
52509,38138
52705,38138
52852,38137
52959,38135
53031,38130
53077,38123
53104,38111
53119,38095
53129,38076
53142,38041
53172,37958
53218,37829
53278,37660
53351,37453
53436,37212
53532,36942
53636,36645
53748,36326
53867,35989
53991,35636
54015,35567
54875,33121
54889,38138
56083,38138
56083,29750
54791,29750
53958,32166
53125,34581
53117,32165
53110,29750
51916,29750
51916,38138
" /> 
<polyline style="fill-rule:evenodd;"
points="44944,30944
46277,30944
46277,38138
47583,38138
47583,30944
48916,30944
48916,29750
44944,29750
44944,30944
" /> 
<polyline style="fill-rule:evenodd;"
points="49555,31085
50201,32527
50802,32527
50760,32384
50741,32321
50709,32216
50668,32080
50621,31924
50570,31756
50519,31588
50471,31429
50429,31290
50396,31182
50375,31113
50372,31104
50370,31080
50389,31065
50439,31058
50531,31055
50581,31055
50805,31055
50805,29750
49555,29750
49555,31085
" /> 
</g> 
</svg>
